<?xml version="1.0" encoding="UTF-8"?>
<svg xmlns="http://www.w3.org/2000/svg" xmlns:xlink="http://www.w3.org/1999/xlink" version="1.1" id="_x35_" x="0px" y="0px" viewBox="0 0 453.5 111" style="enable-background:new 0 0 453.5 111;" xml:space="preserve">
<style type="text/css">
	.st0{fill:#E72276;}
	.st1{fill:#4A4A49;}
</style>
<g>
	<g>
		<path class="st0" d="M155.9,87v8.7h14.9v4.5h-14.9V111h-5.7V82.5h22.5V87H155.9z"></path>
		<path class="st0" d="M196.9,104.4h-15.4l-3,6.6h-5.9l13.9-28.4h5.6l13.9,28.4h-6L196.9,104.4z M195,100.3l-5.8-12.4l-5.8,12.4H195    z"></path>
		<path class="st0" d="M209.9,82.5h5.7V111h-5.7V82.5z"></path>
		<path class="st0" d="M244,111l-6.3-8.3c-0.3,0-0.7,0-1.2,0h-7v8.3h-5.7V82.5h12.7c2.7,0,5,0.4,7,1.2c2,0.8,3.5,2,4.6,3.5    c1.1,1.5,1.6,3.3,1.6,5.4c0,2.1-0.6,4-1.7,5.5c-1.1,1.5-2.7,2.7-4.9,3.5l7.1,9.3H244z M242,88.5c-1.3-1-3.2-1.5-5.7-1.5h-6.7v11.3    h6.7c2.5,0,4.4-0.5,5.7-1.5c1.3-1,1.9-2.4,1.9-4.2C243.9,90.8,243.3,89.5,242,88.5z"></path>
	</g>
	<g>
		<path class="st1" d="M284.3,111l0-18.9l-10.1,15.6h-2.6l-10.1-15.4V111h-5.5V82.5h4.7l12.2,18.9l12-18.9h4.7l0,28.4H284.3z"></path>
		<path class="st1" d="M298.1,82.5h5.7V111h-5.7V82.5z"></path>
		<path class="st1" d="M335.2,106.6v4.4h-23.1V82.5h22.5V87h-16.8v7.4h14.9v4.3h-14.9v7.8H335.2z"></path>
		<path class="st1" d="M347.8,87h-10.2v-4.5h26.1V87h-10.2v24h-5.7V87z"></path>
		<path class="st1" d="M391.2,106.6v4.4h-23.1V82.5h22.5V87h-16.8v7.4h14.9v4.3h-14.9v7.8H391.2z"></path>
		<path class="st1" d="M424.9,82.5V111h-4.7l-17-19.3V111h-5.7V82.5h4.7l17,19.3V82.5H424.9z"></path>
	</g>
</g>
<g>
	<path class="st1" d="M368.4,0c3.6,1.9,6.5,4.5,8.7,7.6c2.4,3.4,4.3,7.8,5.6,12.9c0.4,1.6,0.7,3.2,1,5H395v51.1h30l0-51.1h28.6V0   H368.4z"></path>
	<path class="st1" d="M378,22c-1.1-4.5-2.7-8.2-4.7-11c-2-2.9-4.8-5.1-8.4-6.8c-3.6-1.6-7.5-2.7-11.6-3.3C349,0.3,343.9,0,337.8,0   h-45v25.5l30,0v0h9c3.9,0,6.8,0.1,8.8,0.4c1.9,0.3,3.7,1,5.3,2.1c1.6,1.1,2.6,2.8,3.1,5c0.5,2.2,0.7,5.3,0.7,9.3   c0,7-1.2,7.7-3.5,9.7c-2.3,2-7.1,3-14.4,3h-9V31h-30v45.6h45c7.7,0,14.1-0.6,19.2-1.8c5.1-1.2,9.4-3.2,12.9-6.2   c3.5-2.9,6-6.8,7.5-11.7c1.5-4.9,2.3-11.1,2.3-18.5C379.7,32,379.1,26.5,378,22z"></path>
	<path class="st1" d="M199.6,0h23.9l36.4,37.2V0h28v76.6h-23.3l-36.9-36v36h-28.1V0z"></path>
	<path class="st1" d="M177.4,52.4c5.3-1.9,9.2-5.1,11.5-9.5c2.4-4.4,3.6-9.4,3.6-15c0-9.8-2.4-16.9-7.3-21.3   C180.3,2.2,172.5,0,161.9,0h-52.2v13.3v17.3v2l22.9,43.9h4.3h2.8l0-51h12.7c3.4,0,5.9,0.8,7.5,2.3c1.6,1.5,2.4,3.9,2.4,7.2   c0,6.8-3.3,7.8-9.8,7.8h-9.4l17.6,33.9h34.9L177.4,52.4z"></path>
	<polygon class="st0" points="86.8,82.1 19,82.1 15.1,82.1 0,111 2.7,111 103.1,111 112,111 96.8,82.1  "></polygon>
	<path class="st1" d="M118.1,111h27.5L87.8,0l0,0l0,0l-0.1,0l0,0h0H59.1h0l0,0L59,0l0,0l0,0L18.8,77.2h28l5.3-10.3H95L118.1,111z    M61.7,48.1l11.6-22.5l11.8,22.5H61.7z"></path>
</g>
</svg>
