<svg xmlns="http://www.w3.org/2000/svg" width="1400" height="990" viewBox="0 0 1400 990"><defs><linearGradient id="grad5" x1="0" y1="0" x2="1" y2="1"><stop offset="0" stop-color="#1FD1B6"/><stop offset="1" stop-color="#0E7C9D"/></linearGradient><filter id="soft" x="-20%" y="-20%" width="140%" height="140%"><feDropShadow dx="0" dy="6" stdDeviation="14" flood-color="#000000" flood-opacity="0.12"/></filter></defs><rect width="1400" height="990" fill="#0B1F3A"/><circle cx="700.0" cy="455.0" r="520" fill="none" stroke="#C9A24B" stroke-opacity="0.07" stroke-width="1.5"/><circle cx="700.0" cy="455.0" r="410" fill="none" stroke="#C9A24B" stroke-opacity="0.07" stroke-width="1.5"/><circle cx="700.0" cy="455.0" r="300" fill="none" stroke="#C9A24B" stroke-opacity="0.07" stroke-width="1.5"/><path fill="none" stroke="#F1E9D6" stroke-width="16.80" stroke-linecap="butt" stroke-linejoin="miter" stroke-miterlimit="8" d="M 370.72 322.44 L 370.72 490.44 M 370.72 330.84 L 456.40 330.84 M 370.72 406.44 L 441.35 406.44"/><circle cx="570.64" cy="406.44" r="75.60" fill="none" stroke="#F1E9D6" stroke-width="16.80" stroke-linecap="butt" stroke-linejoin="miter" stroke-miterlimit="8"/><path fill="none" stroke="#C9A24B" stroke-width="16.80" stroke-linecap="butt" d="M 614.00 344.51 A 75.60 75.60 0 0 1 527.28 468.37"/><path fill="none" stroke="#F1E9D6" stroke-width="16.80" stroke-linecap="butt" stroke-linejoin="miter" stroke-miterlimit="8" d="M 693.28 490.44 L 693.28 322.44 L 762.16 423.24 L 831.04 322.44 L 831.04 490.44"/><circle cx="953.68" cy="406.44" r="75.60" fill="none" stroke="#F1E9D6" stroke-width="16.80" stroke-linecap="butt" stroke-linejoin="miter" stroke-miterlimit="8"/><path fill="none" stroke="#C9A24B" stroke-width="16.80" stroke-linecap="butt" d="M 997.04 344.51 A 75.60 75.60 0 0 1 910.32 468.37"/><text x="700.00" y="537.28" font-family="Liberation Sans, Arial, DejaVu Sans, sans-serif" font-size="27.72" font-weight="600" letter-spacing="17.19" text-anchor="middle" fill="#F1E9D6">MARKETING</text><line x1="550.0" y1="645.0" x2="850.0" y2="645.0" stroke="#C9A24B" stroke-width="1.5"/><text x="700.0" y="695.0" font-family="Liberation Sans, Arial, DejaVu Sans, sans-serif" font-size="22" letter-spacing="6" text-anchor="middle" fill="#F1E9D6">LOGO-KONZEPTE</text><text x="700.0" y="727.0" font-family="Liberation Sans, Arial, DejaVu Sans, sans-serif" font-size="15" letter-spacing="3" text-anchor="middle" fill="#C9A24B">6 ENTWUERFE &#183; PRAESENTATION</text><text x="80" y="940" font-family="Liberation Sans, Arial, DejaVu Sans, sans-serif" font-size="13" letter-spacing="2" fill="#ffffff55">FOMO MARKETING</text><text x="1320" y="940" font-family="Liberation Sans, Arial, DejaVu Sans, sans-serif" font-size="13" letter-spacing="2" text-anchor="end" fill="#ffffff55">09.06.2026</text></svg>