<svg xmlns="http://www.w3.org/2000/svg" width="1400" height="990" viewBox="0 0 1400 990"><defs><linearGradient id="grad5" x1="0" y1="0" x2="1" y2="1"><stop offset="0" stop-color="#1FD1B6"/><stop offset="1" stop-color="#0E7C9D"/></linearGradient><filter id="soft" x="-20%" y="-20%" width="140%" height="140%"><feDropShadow dx="0" dy="6" stdDeviation="14" flood-color="#000000" flood-opacity="0.12"/></filter></defs><rect width="1400" height="990" fill="#FBFAF7"/><text x="80" y="86" font-family="Liberation Sans, Arial, DejaVu Sans, sans-serif" font-size="20" font-weight="800" letter-spacing="4" fill="#0B1F3A">FOMO MARKETING</text><text x="80" y="112" font-family="Liberation Sans, Arial, DejaVu Sans, sans-serif" font-size="13" letter-spacing="3" fill="#999">LOGO-KONZEPT 01</text><text x="1320" y="92" font-family="Liberation Sans, Arial, DejaVu Sans, sans-serif" font-size="46" font-weight="800" text-anchor="end" fill="#0B1F3A">ECLIPSE</text><text x="1320" y="116" font-family="Liberation Sans, Arial, DejaVu Sans, sans-serif" font-size="14" font-style="italic" text-anchor="end" fill="#888">Der zweifarbige Ring</text><line x1="80" y1="138" x2="1320" y2="138" stroke="#C9A24B" stroke-width="2"/><rect x="90" y="178" width="580" height="560" rx="22" fill="#F7F4EE" stroke="#0000000f" stroke-width="1.2" filter="url(#soft)"/><rect x="730" y="178" width="580" height="560" rx="22" fill="#0B1F3A" filter="url(#soft)"/><path fill="none" stroke="#0B1F3A" stroke-width="11.80" stroke-linecap="butt" stroke-linejoin="miter" stroke-miterlimit="8" d="M 148.72 378.94 L 148.72 496.94 M 148.72 384.84 L 208.90 384.84 M 148.72 437.94 L 198.33 437.94"/><circle cx="289.14" cy="437.94" r="53.10" fill="none" stroke="#0B1F3A" stroke-width="11.80" stroke-linecap="butt" stroke-linejoin="miter" stroke-miterlimit="8"/><path fill="none" stroke="#C9A24B" stroke-width="11.80" stroke-linecap="butt" d="M 319.60 394.44 A 53.10 53.10 0 0 1 258.68 481.44"/><path fill="none" stroke="#0B1F3A" stroke-width="11.80" stroke-linecap="butt" stroke-linejoin="miter" stroke-miterlimit="8" d="M 375.28 496.94 L 375.28 378.94 L 423.66 449.74 L 472.04 378.94 L 472.04 496.94"/><circle cx="558.18" cy="437.94" r="53.10" fill="none" stroke="#0B1F3A" stroke-width="11.80" stroke-linecap="butt" stroke-linejoin="miter" stroke-miterlimit="8"/><path fill="none" stroke="#C9A24B" stroke-width="11.80" stroke-linecap="butt" d="M 588.64 394.44 A 53.10 53.10 0 0 1 527.72 481.44"/><text x="380.00" y="529.84" font-family="Liberation Sans, Arial, DejaVu Sans, sans-serif" font-size="19.47" font-weight="600" letter-spacing="12.07" text-anchor="middle" fill="#0B1F3A">MARKETING</text><path fill="none" stroke="#F1E9D6" stroke-width="11.80" stroke-linecap="butt" stroke-linejoin="miter" stroke-miterlimit="8" d="M 788.72 378.94 L 788.72 496.94 M 788.72 384.84 L 848.90 384.84 M 788.72 437.94 L 838.33 437.94"/><circle cx="929.14" cy="437.94" r="53.10" fill="none" stroke="#F1E9D6" stroke-width="11.80" stroke-linecap="butt" stroke-linejoin="miter" stroke-miterlimit="8"/><path fill="none" stroke="#C9A24B" stroke-width="11.80" stroke-linecap="butt" d="M 959.60 394.44 A 53.10 53.10 0 0 1 898.68 481.44"/><path fill="none" stroke="#F1E9D6" stroke-width="11.80" stroke-linecap="butt" stroke-linejoin="miter" stroke-miterlimit="8" d="M 1015.28 496.94 L 1015.28 378.94 L 1063.66 449.74 L 1112.04 378.94 L 1112.04 496.94"/><circle cx="1198.18" cy="437.94" r="53.10" fill="none" stroke="#F1E9D6" stroke-width="11.80" stroke-linecap="butt" stroke-linejoin="miter" stroke-miterlimit="8"/><path fill="none" stroke="#C9A24B" stroke-width="11.80" stroke-linecap="butt" d="M 1228.64 394.44 A 53.10 53.10 0 0 1 1167.72 481.44"/><text x="1020.00" y="529.84" font-family="Liberation Sans, Arial, DejaVu Sans, sans-serif" font-size="19.47" font-weight="600" letter-spacing="12.07" text-anchor="middle" fill="#F1E9D6">MARKETING</text><text x="110" y="720" font-family="Liberation Sans, Arial, DejaVu Sans, sans-serif" font-size="12" letter-spacing="2" fill="#aaa">HELLER UNTERGRUND</text><text x="750" y="720" font-family="Liberation Sans, Arial, DejaVu Sans, sans-serif" font-size="12" letter-spacing="2" fill="#ffffff66">DUNKLER UNTERGRUND</text><text x="80" y="782" font-family="Liberation Sans, Arial, DejaVu Sans, sans-serif" font-size="15" fill="#333">Jedes O ist ein zweifarbiger Ring – wie der Moment einer Eklipse. Tiefes Marineblau trifft auf</text><text x="80" y="804" font-family="Liberation Sans, Arial, DejaVu Sans, sans-serif" font-size="15" fill="#333">Champagner-Gold: seriös, edel, zeitlos. Steht fuer den einen Augenblick, den man nicht verpassen</text><text x="80" y="826" font-family="Liberation Sans, Arial, DejaVu Sans, sans-serif" font-size="15" fill="#333">darf.</text><rect x="812" y="768" width="34" height="34" rx="7" fill="#0B1F3A" stroke="#00000022" stroke-width="1"/><text x="856" y="782" font-family="Liberation Sans, Arial, DejaVu Sans, sans-serif" font-size="13" font-weight="700" fill="#1a1a1a">PRIMAER</text><text x="856" y="798" font-family="Liberation Sans, Arial, DejaVu Sans, sans-serif" font-size="12" fill="#777">#0B1F3A</text><rect x="940" y="768" width="34" height="34" rx="7" fill="#C9A24B" stroke="#00000022" stroke-width="1"/><text x="984" y="782" font-family="Liberation Sans, Arial, DejaVu Sans, sans-serif" font-size="13" font-weight="700" fill="#1a1a1a">AKZENT</text><text x="984" y="798" font-family="Liberation Sans, Arial, DejaVu Sans, sans-serif" font-size="12" fill="#777">#C9A24B</text><rect x="1068" y="768" width="34" height="34" rx="7" fill="#F7F4EE" stroke="#00000022" stroke-width="1"/><text x="1112" y="782" font-family="Liberation Sans, Arial, DejaVu Sans, sans-serif" font-size="13" font-weight="700" fill="#1a1a1a">HELL</text><text x="1112" y="798" font-family="Liberation Sans, Arial, DejaVu Sans, sans-serif" font-size="12" fill="#777">#F7F4EE</text><rect x="1196" y="768" width="34" height="34" rx="7" fill="#0B1F3A" stroke="#00000022" stroke-width="1"/><text x="1240" y="782" font-family="Liberation Sans, Arial, DejaVu Sans, sans-serif" font-size="13" font-weight="700" fill="#1a1a1a">DUNKEL</text><text x="1240" y="798" font-family="Liberation Sans, Arial, DejaVu Sans, sans-serif" font-size="12" fill="#777">#0B1F3A</text></svg>