<svg xmlns="http://www.w3.org/2000/svg" width="1400" height="990" viewBox="0 0 1400 990"><defs><linearGradient id="grad5" x1="0" y1="0" x2="1" y2="1"><stop offset="0" stop-color="#1FD1B6"/><stop offset="1" stop-color="#0E7C9D"/></linearGradient><filter id="soft" x="-20%" y="-20%" width="140%" height="140%"><feDropShadow dx="0" dy="6" stdDeviation="14" flood-color="#000000" flood-opacity="0.12"/></filter></defs><rect width="1400" height="990" fill="#FBFAF7"/><text x="80" y="86" font-family="Liberation Sans, Arial, DejaVu Sans, sans-serif" font-size="20" font-weight="800" letter-spacing="4" fill="#5E1F2E">FOMO MARKETING</text><text x="80" y="112" font-family="Liberation Sans, Arial, DejaVu Sans, sans-serif" font-size="13" letter-spacing="3" fill="#999">LOGO-KONZEPT 04</text><text x="1320" y="92" font-family="Liberation Sans, Arial, DejaVu Sans, sans-serif" font-size="46" font-weight="800" text-anchor="end" fill="#5E1F2E">CREST</text><text x="1320" y="116" font-family="Liberation Sans, Arial, DejaVu Sans, sans-serif" font-size="14" font-style="italic" text-anchor="end" fill="#888">Das Monogramm-Emblem</text><line x1="80" y1="138" x2="1320" y2="138" stroke="#C2A14A" stroke-width="2"/><rect x="90" y="178" width="580" height="560" rx="22" fill="#F6F0EB" stroke="#0000000f" stroke-width="1.2" filter="url(#soft)"/><rect x="730" y="178" width="580" height="560" rx="22" fill="#2A0F16" filter="url(#soft)"/><rect x="230" y="238" width="300" height="300" rx="34" fill="none" stroke="#C2A14A" stroke-width="3.5"/><rect x="244" y="252" width="272" height="272" rx="24" fill="none" stroke="#C2A14A" stroke-width="1.4"/><circle cx="270.56" cy="382.00" r="43.20" fill="none" stroke="#C2A14A" stroke-width="9.60" stroke-linecap="butt" stroke-linejoin="miter" stroke-miterlimit="8"/><path fill="none" stroke="#C2A14A" stroke-width="9.60" stroke-linecap="butt" stroke-linejoin="miter" stroke-miterlimit="8" d="M 340.64 430.00 L 340.64 334.00 L 380.00 391.60 L 419.36 334.00 L 419.36 430.00"/><circle cx="489.44" cy="382.00" r="43.20" fill="none" stroke="#C2A14A" stroke-width="9.60" stroke-linecap="butt" stroke-linejoin="miter" stroke-miterlimit="8"/><line x1="322" y1="460" x2="438" y2="460" stroke="#C2A14A" stroke-width="1.4"/><text x="380" y="484" font-family="Liberation Sans, Arial, DejaVu Sans, sans-serif" font-size="15" font-weight="600" letter-spacing="6" text-anchor="middle" fill="#C2A14A">EST. 2026</text><path fill="none" stroke="#5E1F2E" stroke-width="7.80" stroke-linecap="butt" stroke-linejoin="miter" stroke-miterlimit="8" d="M 227.12 576.00 L 227.12 654.00 M 227.12 579.90 L 266.90 579.90 M 227.12 615.00 L 259.91 615.00"/><circle cx="319.94" cy="615.00" r="35.10" fill="none" stroke="#5E1F2E" stroke-width="7.80" stroke-linecap="butt" stroke-linejoin="miter" stroke-miterlimit="8"/><path fill="none" stroke="#5E1F2E" stroke-width="7.80" stroke-linecap="butt" stroke-linejoin="miter" stroke-miterlimit="8" d="M 376.88 654.00 L 376.88 576.00 L 408.86 622.80 L 440.84 576.00 L 440.84 654.00"/><circle cx="497.78" cy="615.00" r="35.10" fill="none" stroke="#5E1F2E" stroke-width="7.80" stroke-linecap="butt" stroke-linejoin="miter" stroke-miterlimit="8"/><text x="380.00" y="690.00" font-family="Liberation Sans, Arial, DejaVu Sans, sans-serif" font-size="14.00" font-weight="600" letter-spacing="9.00" text-anchor="middle" fill="#5E1F2E">MARKETING</text><rect x="870" y="238" width="300" height="300" rx="34" fill="none" stroke="#C2A14A" stroke-width="3.5"/><rect x="884" y="252" width="272" height="272" rx="24" fill="none" stroke="#C2A14A" stroke-width="1.4"/><circle cx="910.56" cy="382.00" r="43.20" fill="none" stroke="#C2A14A" stroke-width="9.60" stroke-linecap="butt" stroke-linejoin="miter" stroke-miterlimit="8"/><path fill="none" stroke="#C2A14A" stroke-width="9.60" stroke-linecap="butt" stroke-linejoin="miter" stroke-miterlimit="8" d="M 980.64 430.00 L 980.64 334.00 L 1020.00 391.60 L 1059.36 334.00 L 1059.36 430.00"/><circle cx="1129.44" cy="382.00" r="43.20" fill="none" stroke="#C2A14A" stroke-width="9.60" stroke-linecap="butt" stroke-linejoin="miter" stroke-miterlimit="8"/><line x1="962" y1="460" x2="1078" y2="460" stroke="#C2A14A" stroke-width="1.4"/><text x="1020" y="484" font-family="Liberation Sans, Arial, DejaVu Sans, sans-serif" font-size="15" font-weight="600" letter-spacing="6" text-anchor="middle" fill="#C2A14A">EST. 2026</text><path fill="none" stroke="#EBD9C7" stroke-width="7.80" stroke-linecap="butt" stroke-linejoin="miter" stroke-miterlimit="8" d="M 867.12 576.00 L 867.12 654.00 M 867.12 579.90 L 906.90 579.90 M 867.12 615.00 L 899.91 615.00"/><circle cx="959.94" cy="615.00" r="35.10" fill="none" stroke="#EBD9C7" stroke-width="7.80" stroke-linecap="butt" stroke-linejoin="miter" stroke-miterlimit="8"/><path fill="none" stroke="#EBD9C7" stroke-width="7.80" stroke-linecap="butt" stroke-linejoin="miter" stroke-miterlimit="8" d="M 1016.88 654.00 L 1016.88 576.00 L 1048.86 622.80 L 1080.84 576.00 L 1080.84 654.00"/><circle cx="1137.78" cy="615.00" r="35.10" fill="none" stroke="#EBD9C7" stroke-width="7.80" stroke-linecap="butt" stroke-linejoin="miter" stroke-miterlimit="8"/><text x="1020.00" y="690.00" font-family="Liberation Sans, Arial, DejaVu Sans, sans-serif" font-size="14.00" font-weight="600" letter-spacing="9.00" text-anchor="middle" fill="#EBD9C7">MARKETING</text><text x="110" y="720" font-family="Liberation Sans, Arial, DejaVu Sans, sans-serif" font-size="12" letter-spacing="2" fill="#aaa">HELLER UNTERGRUND</text><text x="750" y="720" font-family="Liberation Sans, Arial, DejaVu Sans, sans-serif" font-size="12" letter-spacing="2" fill="#ffffff66">DUNKLER UNTERGRUND</text><text x="80" y="782" font-family="Liberation Sans, Arial, DejaVu Sans, sans-serif" font-size="15" fill="#333">Die Kernmarke O·M·O sitzt in einem edlen Wappen-Emblem. Oxblood-Rot und Gold verleihen einen</text><text x="80" y="804" font-family="Liberation Sans, Arial, DejaVu Sans, sans-serif" font-size="15" fill="#333">Heritage-Charakter wie bei exklusiven Maisons. Souveraen, premium, mit Handschrift.</text><rect x="812" y="768" width="34" height="34" rx="7" fill="#5E1F2E" stroke="#00000022" stroke-width="1"/><text x="856" y="782" font-family="Liberation Sans, Arial, DejaVu Sans, sans-serif" font-size="13" font-weight="700" fill="#1a1a1a">PRIMAER</text><text x="856" y="798" font-family="Liberation Sans, Arial, DejaVu Sans, sans-serif" font-size="12" fill="#777">#5E1F2E</text><rect x="940" y="768" width="34" height="34" rx="7" fill="#C2A14A" stroke="#00000022" stroke-width="1"/><text x="984" y="782" font-family="Liberation Sans, Arial, DejaVu Sans, sans-serif" font-size="13" font-weight="700" fill="#1a1a1a">AKZENT</text><text x="984" y="798" font-family="Liberation Sans, Arial, DejaVu Sans, sans-serif" font-size="12" fill="#777">#C2A14A</text><rect x="1068" y="768" width="34" height="34" rx="7" fill="#F6F0EB" stroke="#00000022" stroke-width="1"/><text x="1112" y="782" font-family="Liberation Sans, Arial, DejaVu Sans, sans-serif" font-size="13" font-weight="700" fill="#1a1a1a">HELL</text><text x="1112" y="798" font-family="Liberation Sans, Arial, DejaVu Sans, sans-serif" font-size="12" fill="#777">#F6F0EB</text><rect x="1196" y="768" width="34" height="34" rx="7" fill="#2A0F16" stroke="#00000022" stroke-width="1"/><text x="1240" y="782" font-family="Liberation Sans, Arial, DejaVu Sans, sans-serif" font-size="13" font-weight="700" fill="#1a1a1a">DUNKEL</text><text x="1240" y="798" font-family="Liberation Sans, Arial, DejaVu Sans, sans-serif" font-size="12" fill="#777">#2A0F16</text></svg>