<svg xmlns="http://www.w3.org/2000/svg" width="1400" height="990" viewBox="0 0 1400 990"><defs><linearGradient id="grad5" x1="0" y1="0" x2="1" y2="1"><stop offset="0" stop-color="#1FD1B6"/><stop offset="1" stop-color="#0E7C9D"/></linearGradient><filter id="soft" x="-20%" y="-20%" width="140%" height="140%"><feDropShadow dx="0" dy="6" stdDeviation="14" flood-color="#000000" flood-opacity="0.12"/></filter></defs><rect width="1400" height="990" fill="#FBFAF7"/><text x="80" y="86" font-family="Liberation Sans, Arial, DejaVu Sans, sans-serif" font-size="20" font-weight="800" letter-spacing="4" fill="#1C1C1E">FOMO MARKETING</text><text x="80" y="112" font-family="Liberation Sans, Arial, DejaVu Sans, sans-serif" font-size="13" letter-spacing="3" fill="#999">LOGO-KONZEPT 05</text><text x="1320" y="92" font-family="Liberation Sans, Arial, DejaVu Sans, sans-serif" font-size="46" font-weight="800" text-anchor="end" fill="#1C1C1E">MOMENTUM</text><text x="1320" y="116" font-family="Liberation Sans, Arial, DejaVu Sans, sans-serif" font-size="14" font-style="italic" text-anchor="end" fill="#888">Wachstum &amp; Ergebnis</text><line x1="80" y1="138" x2="1320" y2="138" stroke="#14B8A6" stroke-width="2"/><rect x="90" y="178" width="580" height="560" rx="22" fill="#FBFBFD" stroke="#0000000f" stroke-width="1.2" filter="url(#soft)"/><rect x="730" y="178" width="580" height="560" rx="22" fill="#121214" filter="url(#soft)"/><path fill="none" stroke="#1C1C1E" stroke-width="11.80" stroke-linecap="butt" stroke-linejoin="miter" stroke-miterlimit="8" d="M 148.72 378.94 L 148.72 496.94 M 148.72 384.84 L 208.90 384.84 M 148.72 437.94 L 198.33 437.94"/><circle cx="289.14" cy="437.94" r="53.10" fill="none" stroke="#1C1C1E" stroke-width="11.80" stroke-linecap="butt" stroke-linejoin="miter" stroke-miterlimit="8"/><path fill="none" stroke="url(#grad5)" stroke-width="10.03" stroke-linecap="round" stroke-linejoin="round" d="M 289.14 465.55 L 289.14 411.39 M 266.84 434.75 L 289.14 408.74 L 311.44 434.75"/><path fill="none" stroke="#1C1C1E" stroke-width="11.80" stroke-linecap="butt" stroke-linejoin="miter" stroke-miterlimit="8" d="M 375.28 496.94 L 375.28 378.94 L 423.66 449.74 L 472.04 378.94 L 472.04 496.94"/><circle cx="558.18" cy="437.94" r="53.10" fill="none" stroke="#1C1C1E" stroke-width="11.80" stroke-linecap="butt" stroke-linejoin="miter" stroke-miterlimit="8"/><path fill="none" stroke="url(#grad5)" stroke-width="10.03" stroke-linecap="round" stroke-linejoin="round" d="M 558.18 465.55 L 558.18 411.39 M 535.88 434.75 L 558.18 408.74 L 580.48 434.75"/><text x="380.00" y="529.84" font-family="Liberation Sans, Arial, DejaVu Sans, sans-serif" font-size="19.47" font-weight="600" letter-spacing="12.07" text-anchor="middle" fill="#1C1C1E">MARKETING</text><path fill="none" stroke="#F4F4F6" stroke-width="11.80" stroke-linecap="butt" stroke-linejoin="miter" stroke-miterlimit="8" d="M 788.72 378.94 L 788.72 496.94 M 788.72 384.84 L 848.90 384.84 M 788.72 437.94 L 838.33 437.94"/><circle cx="929.14" cy="437.94" r="53.10" fill="none" stroke="#F4F4F6" stroke-width="11.80" stroke-linecap="butt" stroke-linejoin="miter" stroke-miterlimit="8"/><path fill="none" stroke="url(#grad5)" stroke-width="10.03" stroke-linecap="round" stroke-linejoin="round" d="M 929.14 465.55 L 929.14 411.39 M 906.84 434.75 L 929.14 408.74 L 951.44 434.75"/><path fill="none" stroke="#F4F4F6" stroke-width="11.80" stroke-linecap="butt" stroke-linejoin="miter" stroke-miterlimit="8" d="M 1015.28 496.94 L 1015.28 378.94 L 1063.66 449.74 L 1112.04 378.94 L 1112.04 496.94"/><circle cx="1198.18" cy="437.94" r="53.10" fill="none" stroke="#F4F4F6" stroke-width="11.80" stroke-linecap="butt" stroke-linejoin="miter" stroke-miterlimit="8"/><path fill="none" stroke="url(#grad5)" stroke-width="10.03" stroke-linecap="round" stroke-linejoin="round" d="M 1198.18 465.55 L 1198.18 411.39 M 1175.88 434.75 L 1198.18 408.74 L 1220.48 434.75"/><text x="1020.00" y="529.84" font-family="Liberation Sans, Arial, DejaVu Sans, sans-serif" font-size="19.47" font-weight="600" letter-spacing="12.07" text-anchor="middle" fill="#F4F4F6">MARKETING</text><text x="110" y="720" font-family="Liberation Sans, Arial, DejaVu Sans, sans-serif" font-size="12" letter-spacing="2" fill="#aaa">HELLER UNTERGRUND</text><text x="750" y="720" font-family="Liberation Sans, Arial, DejaVu Sans, sans-serif" font-size="12" letter-spacing="2" fill="#ffffff66">DUNKLER UNTERGRUND</text><text x="80" y="782" font-family="Liberation Sans, Arial, DejaVu Sans, sans-serif" font-size="15" fill="#333">In den O's steigt ein Pfeil nach oben – Momentum, ROI, Wachstum. Anthrazit mit einem</text><text x="80" y="804" font-family="Liberation Sans, Arial, DejaVu Sans, sans-serif" font-size="15" fill="#333">Aqua-Teal-Verlauf: technologisch, dynamisch und dennoch hochwertig. Fuer eine datengetriebene</text><text x="80" y="826" font-family="Liberation Sans, Arial, DejaVu Sans, sans-serif" font-size="15" fill="#333">Premium-Agentur.</text><rect x="812" y="768" width="34" height="34" rx="7" fill="#1C1C1E" stroke="#00000022" stroke-width="1"/><text x="856" y="782" font-family="Liberation Sans, Arial, DejaVu Sans, sans-serif" font-size="13" font-weight="700" fill="#1a1a1a">PRIMAER</text><text x="856" y="798" font-family="Liberation Sans, Arial, DejaVu Sans, sans-serif" font-size="12" fill="#777">#1C1C1E</text><rect x="940" y="768" width="34" height="34" rx="7" fill="#14B8A6" stroke="#00000022" stroke-width="1"/><text x="984" y="782" font-family="Liberation Sans, Arial, DejaVu Sans, sans-serif" font-size="13" font-weight="700" fill="#1a1a1a">AKZENT</text><text x="984" y="798" font-family="Liberation Sans, Arial, DejaVu Sans, sans-serif" font-size="12" fill="#777">#14B8A6</text><rect x="1068" y="768" width="34" height="34" rx="7" fill="#FBFBFD" stroke="#00000022" stroke-width="1"/><text x="1112" y="782" font-family="Liberation Sans, Arial, DejaVu Sans, sans-serif" font-size="13" font-weight="700" fill="#1a1a1a">HELL</text><text x="1112" y="798" font-family="Liberation Sans, Arial, DejaVu Sans, sans-serif" font-size="12" fill="#777">#FBFBFD</text><rect x="1196" y="768" width="34" height="34" rx="7" fill="#121214" stroke="#00000022" stroke-width="1"/><text x="1240" y="782" font-family="Liberation Sans, Arial, DejaVu Sans, sans-serif" font-size="13" font-weight="700" fill="#1a1a1a">DUNKEL</text><text x="1240" y="798" font-family="Liberation Sans, Arial, DejaVu Sans, sans-serif" font-size="12" fill="#777">#121214</text></svg>