<svg xmlns="http://www.w3.org/2000/svg" width="1400" height="990" viewBox="0 0 1400 990"><defs><linearGradient id="grad5" x1="0" y1="0" x2="1" y2="1"><stop offset="0" stop-color="#1FD1B6"/><stop offset="1" stop-color="#0E7C9D"/></linearGradient><filter id="soft" x="-20%" y="-20%" width="140%" height="140%"><feDropShadow dx="0" dy="6" stdDeviation="14" flood-color="#000000" flood-opacity="0.12"/></filter></defs><rect width="1400" height="990" fill="#FBFAF7"/><text x="80" y="86" font-family="Liberation Sans, Arial, DejaVu Sans, sans-serif" font-size="20" font-weight="800" letter-spacing="4" fill="#3B1E54">FOMO MARKETING</text><text x="80" y="112" font-family="Liberation Sans, Arial, DejaVu Sans, sans-serif" font-size="13" letter-spacing="3" fill="#999">LOGO-KONZEPT 06</text><text x="1320" y="92" font-family="Liberation Sans, Arial, DejaVu Sans, sans-serif" font-size="46" font-weight="800" text-anchor="end" fill="#3B1E54">ORBIT</text><text x="1320" y="116" font-family="Liberation Sans, Arial, DejaVu Sans, sans-serif" font-size="14" font-style="italic" text-anchor="end" fill="#888">Im Zentrum der Aufmerksamkeit</text><line x1="80" y1="138" x2="1320" y2="138" stroke="#E0B973" stroke-width="2"/><rect x="90" y="178" width="580" height="560" rx="22" fill="#F4F0F8" stroke="#0000000f" stroke-width="1.2" filter="url(#soft)"/><rect x="730" y="178" width="580" height="560" rx="22" fill="#1E1029" filter="url(#soft)"/><path fill="none" stroke="#3B1E54" stroke-width="11.80" stroke-linecap="round" stroke-linejoin="round" stroke-miterlimit="8" d="M 148.72 378.94 L 148.72 496.94 M 148.72 384.84 L 208.90 384.84 M 148.72 437.94 L 198.33 437.94"/><circle cx="289.14" cy="437.94" r="53.10" fill="none" stroke="#3B1E54" stroke-width="11.80" stroke-linecap="round" stroke-linejoin="round" stroke-miterlimit="8"/><circle cx="289.14" cy="384.84" r="11.21" fill="#E0B973"/><path fill="none" stroke="#3B1E54" stroke-width="11.80" stroke-linecap="round" stroke-linejoin="round" stroke-miterlimit="8" d="M 375.28 496.94 L 375.28 378.94 L 423.66 449.74 L 472.04 378.94 L 472.04 496.94"/><circle cx="558.18" cy="437.94" r="53.10" fill="none" stroke="#3B1E54" stroke-width="11.80" stroke-linecap="round" stroke-linejoin="round" stroke-miterlimit="8"/><circle cx="558.18" cy="384.84" r="11.21" fill="#E0B973"/><text x="380.00" y="529.84" font-family="Liberation Sans, Arial, DejaVu Sans, sans-serif" font-size="19.47" font-weight="600" letter-spacing="12.07" text-anchor="middle" fill="#3B1E54">MARKETING</text><path fill="none" stroke="#EEE3F2" stroke-width="11.80" stroke-linecap="round" stroke-linejoin="round" stroke-miterlimit="8" d="M 788.72 378.94 L 788.72 496.94 M 788.72 384.84 L 848.90 384.84 M 788.72 437.94 L 838.33 437.94"/><circle cx="929.14" cy="437.94" r="53.10" fill="none" stroke="#EEE3F2" stroke-width="11.80" stroke-linecap="round" stroke-linejoin="round" stroke-miterlimit="8"/><circle cx="929.14" cy="384.84" r="11.21" fill="#E0B973"/><path fill="none" stroke="#EEE3F2" stroke-width="11.80" stroke-linecap="round" stroke-linejoin="round" stroke-miterlimit="8" d="M 1015.28 496.94 L 1015.28 378.94 L 1063.66 449.74 L 1112.04 378.94 L 1112.04 496.94"/><circle cx="1198.18" cy="437.94" r="53.10" fill="none" stroke="#EEE3F2" stroke-width="11.80" stroke-linecap="round" stroke-linejoin="round" stroke-miterlimit="8"/><circle cx="1198.18" cy="384.84" r="11.21" fill="#E0B973"/><text x="1020.00" y="529.84" font-family="Liberation Sans, Arial, DejaVu Sans, sans-serif" font-size="19.47" font-weight="600" letter-spacing="12.07" text-anchor="middle" fill="#EEE3F2">MARKETING</text><text x="110" y="720" font-family="Liberation Sans, Arial, DejaVu Sans, sans-serif" font-size="12" letter-spacing="2" fill="#aaa">HELLER UNTERGRUND</text><text x="750" y="720" font-family="Liberation Sans, Arial, DejaVu Sans, sans-serif" font-size="12" letter-spacing="2" fill="#ffffff66">DUNKLER UNTERGRUND</text><text x="80" y="782" font-family="Liberation Sans, Arial, DejaVu Sans, sans-serif" font-size="15" fill="#333">Ein goldener Punkt umkreist jedes O – man ist im Orbit, im Zentrum des Geschehens.</text><text x="80" y="804" font-family="Liberation Sans, Arial, DejaVu Sans, sans-serif" font-size="15" fill="#333">Pflaumen-Violett und sanftes Gold wirken kreativ, luxurioes und unverwechselbar. Minimalistisch</text><text x="80" y="826" font-family="Liberation Sans, Arial, DejaVu Sans, sans-serif" font-size="15" fill="#333">und elegant.</text><rect x="812" y="768" width="34" height="34" rx="7" fill="#3B1E54" stroke="#00000022" stroke-width="1"/><text x="856" y="782" font-family="Liberation Sans, Arial, DejaVu Sans, sans-serif" font-size="13" font-weight="700" fill="#1a1a1a">PRIMAER</text><text x="856" y="798" font-family="Liberation Sans, Arial, DejaVu Sans, sans-serif" font-size="12" fill="#777">#3B1E54</text><rect x="940" y="768" width="34" height="34" rx="7" fill="#E0B973" stroke="#00000022" stroke-width="1"/><text x="984" y="782" font-family="Liberation Sans, Arial, DejaVu Sans, sans-serif" font-size="13" font-weight="700" fill="#1a1a1a">AKZENT</text><text x="984" y="798" font-family="Liberation Sans, Arial, DejaVu Sans, sans-serif" font-size="12" fill="#777">#E0B973</text><rect x="1068" y="768" width="34" height="34" rx="7" fill="#F4F0F8" stroke="#00000022" stroke-width="1"/><text x="1112" y="782" font-family="Liberation Sans, Arial, DejaVu Sans, sans-serif" font-size="13" font-weight="700" fill="#1a1a1a">HELL</text><text x="1112" y="798" font-family="Liberation Sans, Arial, DejaVu Sans, sans-serif" font-size="12" fill="#777">#F4F0F8</text><rect x="1196" y="768" width="34" height="34" rx="7" fill="#1E1029" stroke="#00000022" stroke-width="1"/><text x="1240" y="782" font-family="Liberation Sans, Arial, DejaVu Sans, sans-serif" font-size="13" font-weight="700" fill="#1a1a1a">DUNKEL</text><text x="1240" y="798" font-family="Liberation Sans, Arial, DejaVu Sans, sans-serif" font-size="12" fill="#777">#1E1029</text></svg>