<svg xmlns="http://www.w3.org/2000/svg" width="1400" height="990" viewBox="0 0 1400 990"><defs><linearGradient id="grad5" x1="0" y1="0" x2="1" y2="1"><stop offset="0" stop-color="#1FD1B6"/><stop offset="1" stop-color="#0E7C9D"/></linearGradient><filter id="soft" x="-20%" y="-20%" width="140%" height="140%"><feDropShadow dx="0" dy="6" stdDeviation="14" flood-color="#000000" flood-opacity="0.12"/></filter></defs><rect width="1400" height="990" fill="#FBFAF7"/><text x="80" y="86" font-family="Liberation Sans, Arial, DejaVu Sans, sans-serif" font-size="20" font-weight="800" letter-spacing="4" fill="#0B1F3A">FOMO MARKETING</text><text x="80" y="112" font-family="Liberation Sans, Arial, DejaVu Sans, sans-serif" font-size="13" letter-spacing="3" fill="#999">UEBERSICHT &#183; ALLE KONZEPTE</text><line x1="80" y1="138" x2="1320" y2="138" stroke="#0B1F3A" stroke-width="2"/><rect x="90" y="180" width="400" height="230" rx="22" fill="#F7F4EE" stroke="#0000000f" stroke-width="1.2" filter="url(#soft)"/><path fill="none" stroke="#0B1F3A" stroke-width="7.40" stroke-linecap="butt" stroke-linejoin="miter" stroke-miterlimit="8" d="M 144.96 233.42 L 144.96 307.42 M 144.96 237.12 L 182.70 237.12 M 144.96 270.42 L 176.07 270.42"/><circle cx="233.02" cy="270.42" r="33.30" fill="none" stroke="#0B1F3A" stroke-width="7.40" stroke-linecap="butt" stroke-linejoin="miter" stroke-miterlimit="8"/><path fill="none" stroke="#C9A24B" stroke-width="7.40" stroke-linecap="butt" d="M 252.12 243.14 A 33.30 33.30 0 0 1 213.92 297.70"/><path fill="none" stroke="#0B1F3A" stroke-width="7.40" stroke-linecap="butt" stroke-linejoin="miter" stroke-miterlimit="8" d="M 287.04 307.42 L 287.04 233.42 L 317.38 277.82 L 347.72 233.42 L 347.72 307.42"/><circle cx="401.74" cy="270.42" r="33.30" fill="none" stroke="#0B1F3A" stroke-width="7.40" stroke-linecap="butt" stroke-linejoin="miter" stroke-miterlimit="8"/><path fill="none" stroke="#C9A24B" stroke-width="7.40" stroke-linecap="butt" d="M 420.84 243.14 A 33.30 33.30 0 0 1 382.64 297.70"/><text x="290.00" y="328.05" font-family="Liberation Sans, Arial, DejaVu Sans, sans-serif" font-size="12.21" font-weight="600" letter-spacing="7.57" text-anchor="middle" fill="#0B1F3A">MARKETING</text><text x="108" y="392" font-family="Liberation Sans, Arial, DejaVu Sans, sans-serif" font-size="14" font-weight="800" letter-spacing="2" fill="#0B1F3A">01 ECLIPSE</text><rect x="510" y="180" width="400" height="230" rx="22" fill="#FFFFFF" stroke="#0000000f" stroke-width="1.2" filter="url(#soft)"/><path fill="none" stroke="#141414" stroke-width="7.40" stroke-linecap="round" stroke-linejoin="round" stroke-miterlimit="8" d="M 564.96 233.42 L 564.96 307.42 M 564.96 237.12 L 602.70 237.12 M 564.96 270.42 L 596.07 270.42"/><circle cx="653.02" cy="270.42" r="33.30" fill="none" stroke="#141414" stroke-width="7.40" stroke-linecap="round" stroke-linejoin="round" stroke-miterlimit="8"/><circle cx="653.02" cy="270.42" r="20.65" fill="none" stroke="#FF5A4D" stroke-width="5.18" stroke-linecap="round" stroke-linejoin="round" stroke-miterlimit="8"/><circle cx="653.02" cy="270.42" r="9.99" fill="none" stroke="#FF5A4D" stroke-width="5.18" stroke-linecap="round" stroke-linejoin="round" stroke-miterlimit="8"/><path fill="none" stroke="#141414" stroke-width="7.40" stroke-linecap="round" stroke-linejoin="round" stroke-miterlimit="8" d="M 707.04 307.42 L 707.04 233.42 L 737.38 277.82 L 767.72 233.42 L 767.72 307.42"/><circle cx="821.74" cy="270.42" r="33.30" fill="none" stroke="#141414" stroke-width="7.40" stroke-linecap="round" stroke-linejoin="round" stroke-miterlimit="8"/><circle cx="821.74" cy="270.42" r="20.65" fill="none" stroke="#FF5A4D" stroke-width="5.18" stroke-linecap="round" stroke-linejoin="round" stroke-miterlimit="8"/><circle cx="821.74" cy="270.42" r="9.99" fill="none" stroke="#FF5A4D" stroke-width="5.18" stroke-linecap="round" stroke-linejoin="round" stroke-miterlimit="8"/><text x="710.00" y="328.05" font-family="Liberation Sans, Arial, DejaVu Sans, sans-serif" font-size="12.21" font-weight="600" letter-spacing="7.57" text-anchor="middle" fill="#141414">MARKETING</text><text x="528" y="392" font-family="Liberation Sans, Arial, DejaVu Sans, sans-serif" font-size="14" font-weight="800" letter-spacing="2" fill="#141414">02 PULSE</text><rect x="930" y="180" width="400" height="230" rx="22" fill="#F3EEE4" stroke="#0000000f" stroke-width="1.2" filter="url(#soft)"/><path fill="none" stroke="#0F5132" stroke-width="7.40" stroke-linecap="round" stroke-linejoin="round" stroke-miterlimit="8" d="M 984.96 233.42 L 984.96 307.42 M 984.96 237.12 L 1022.70 237.12 M 984.96 270.42 L 1016.07 270.42"/><circle cx="1073.02" cy="270.42" r="33.30" fill="none" stroke="#0F5132" stroke-width="7.40" stroke-linecap="round" stroke-linejoin="round" stroke-miterlimit="8"/><circle cx="1073.02" cy="270.42" r="16.65" fill="none" stroke="#CDA75A" stroke-width="5.18" stroke-linecap="round" stroke-linejoin="round" stroke-miterlimit="8"/><circle cx="1073.02" cy="270.42" r="5.66" fill="#CDA75A"/><path fill="none" stroke="#0F5132" stroke-width="7.40" stroke-linecap="round" stroke-linejoin="round" stroke-miterlimit="8" d="M 1127.04 307.42 L 1127.04 233.42 L 1157.38 277.82 L 1187.72 233.42 L 1187.72 307.42"/><circle cx="1241.74" cy="270.42" r="33.30" fill="none" stroke="#0F5132" stroke-width="7.40" stroke-linecap="round" stroke-linejoin="round" stroke-miterlimit="8"/><circle cx="1241.74" cy="270.42" r="16.65" fill="none" stroke="#CDA75A" stroke-width="5.18" stroke-linecap="round" stroke-linejoin="round" stroke-miterlimit="8"/><circle cx="1241.74" cy="270.42" r="5.66" fill="#CDA75A"/><text x="1130.00" y="328.05" font-family="Liberation Sans, Arial, DejaVu Sans, sans-serif" font-size="12.21" font-weight="600" letter-spacing="7.57" text-anchor="middle" fill="#0F5132">MARKETING</text><text x="948" y="392" font-family="Liberation Sans, Arial, DejaVu Sans, sans-serif" font-size="14" font-weight="800" letter-spacing="2" fill="#0F5132">03 APERTURE</text><rect x="90" y="470" width="400" height="230" rx="22" fill="#F6F0EB" stroke="#0000000f" stroke-width="1.2" filter="url(#soft)"/><path fill="none" stroke="#5E1F2E" stroke-width="5.80" stroke-linecap="butt" stroke-linejoin="miter" stroke-miterlimit="8" d="M 176.32 549.00 L 176.32 607.00 M 176.32 551.90 L 205.90 551.90 M 176.32 578.00 L 200.70 578.00"/><circle cx="245.34" cy="578.00" r="26.10" fill="none" stroke="#5E1F2E" stroke-width="5.80" stroke-linecap="butt" stroke-linejoin="miter" stroke-miterlimit="8"/><path fill="none" stroke="#5E1F2E" stroke-width="5.80" stroke-linecap="butt" stroke-linejoin="miter" stroke-miterlimit="8" d="M 287.68 607.00 L 287.68 549.00 L 311.46 583.80 L 335.24 549.00 L 335.24 607.00"/><circle cx="377.58" cy="578.00" r="26.10" fill="none" stroke="#5E1F2E" stroke-width="5.80" stroke-linecap="butt" stroke-linejoin="miter" stroke-miterlimit="8"/><text x="108" y="682" font-family="Liberation Sans, Arial, DejaVu Sans, sans-serif" font-size="14" font-weight="800" letter-spacing="2" fill="#5E1F2E">04 CREST</text><rect x="510" y="470" width="400" height="230" rx="22" fill="#FBFBFD" stroke="#0000000f" stroke-width="1.2" filter="url(#soft)"/><path fill="none" stroke="#1C1C1E" stroke-width="7.40" stroke-linecap="butt" stroke-linejoin="miter" stroke-miterlimit="8" d="M 564.96 523.42 L 564.96 597.42 M 564.96 527.12 L 602.70 527.12 M 564.96 560.42 L 596.07 560.42"/><circle cx="653.02" cy="560.42" r="33.30" fill="none" stroke="#1C1C1E" stroke-width="7.40" stroke-linecap="butt" stroke-linejoin="miter" stroke-miterlimit="8"/><path fill="none" stroke="url(#grad5)" stroke-width="6.29" stroke-linecap="round" stroke-linejoin="round" d="M 653.02 577.74 L 653.02 543.77 M 639.03 558.42 L 653.02 542.10 L 667.01 558.42"/><path fill="none" stroke="#1C1C1E" stroke-width="7.40" stroke-linecap="butt" stroke-linejoin="miter" stroke-miterlimit="8" d="M 707.04 597.42 L 707.04 523.42 L 737.38 567.82 L 767.72 523.42 L 767.72 597.42"/><circle cx="821.74" cy="560.42" r="33.30" fill="none" stroke="#1C1C1E" stroke-width="7.40" stroke-linecap="butt" stroke-linejoin="miter" stroke-miterlimit="8"/><path fill="none" stroke="url(#grad5)" stroke-width="6.29" stroke-linecap="round" stroke-linejoin="round" d="M 821.74 577.74 L 821.74 543.77 M 807.75 558.42 L 821.74 542.10 L 835.73 558.42"/><text x="710.00" y="618.05" font-family="Liberation Sans, Arial, DejaVu Sans, sans-serif" font-size="12.21" font-weight="600" letter-spacing="7.57" text-anchor="middle" fill="#1C1C1E">MARKETING</text><text x="528" y="682" font-family="Liberation Sans, Arial, DejaVu Sans, sans-serif" font-size="14" font-weight="800" letter-spacing="2" fill="#1C1C1E">05 MOMENTUM</text><rect x="930" y="470" width="400" height="230" rx="22" fill="#F4F0F8" stroke="#0000000f" stroke-width="1.2" filter="url(#soft)"/><path fill="none" stroke="#3B1E54" stroke-width="7.40" stroke-linecap="round" stroke-linejoin="round" stroke-miterlimit="8" d="M 984.96 523.42 L 984.96 597.42 M 984.96 527.12 L 1022.70 527.12 M 984.96 560.42 L 1016.07 560.42"/><circle cx="1073.02" cy="560.42" r="33.30" fill="none" stroke="#3B1E54" stroke-width="7.40" stroke-linecap="round" stroke-linejoin="round" stroke-miterlimit="8"/><circle cx="1073.02" cy="527.12" r="7.03" fill="#E0B973"/><path fill="none" stroke="#3B1E54" stroke-width="7.40" stroke-linecap="round" stroke-linejoin="round" stroke-miterlimit="8" d="M 1127.04 597.42 L 1127.04 523.42 L 1157.38 567.82 L 1187.72 523.42 L 1187.72 597.42"/><circle cx="1241.74" cy="560.42" r="33.30" fill="none" stroke="#3B1E54" stroke-width="7.40" stroke-linecap="round" stroke-linejoin="round" stroke-miterlimit="8"/><circle cx="1241.74" cy="527.12" r="7.03" fill="#E0B973"/><text x="1130.00" y="618.05" font-family="Liberation Sans, Arial, DejaVu Sans, sans-serif" font-size="12.21" font-weight="600" letter-spacing="7.57" text-anchor="middle" fill="#3B1E54">MARKETING</text><text x="948" y="682" font-family="Liberation Sans, Arial, DejaVu Sans, sans-serif" font-size="14" font-weight="800" letter-spacing="2" fill="#3B1E54">06 ORBIT</text></svg>