<svg xmlns="http://www.w3.org/2000/svg" width="1400" height="990" viewBox="0 0 1400 990"><defs><filter id="soft" x="-20%" y="-20%" width="140%" height="140%"><feDropShadow dx="0" dy="6" stdDeviation="14" flood-color="#000" flood-opacity="0.12"/></filter></defs><rect width="1400" height="990" fill="#FBFAF7"/><text x="80" y="86" font-family="Liberation Sans, Arial, DejaVu Sans, sans-serif" font-size="20" font-weight="800" letter-spacing="4" fill="#1C2A44">FOMO MARKETING</text><text x="80" y="112" font-family="Liberation Sans, Arial, DejaVu Sans, sans-serif" font-size="13" letter-spacing="3" fill="#999">BULLSEYE-RICHTUNG &#183; ENTWURF C2</text><text x="1320" y="92" font-family="Liberation Sans, Arial, DejaVu Sans, sans-serif" font-size="42" font-weight="800" text-anchor="end" fill="#1C2A44">CROSSHAIR</text><text x="1320" y="116" font-family="Liberation Sans, Arial, DejaVu Sans, sans-serif" font-size="14" font-style="italic" text-anchor="end" fill="#888">Marineblau &amp; Beige – Praezision</text><line x1="80" y1="138" x2="1320" y2="138" stroke="#1C2A44" stroke-width="2"/><rect x="90" y="178" width="580" height="560" rx="22" fill="#ECE6DA" stroke="#0000000f" stroke-width="1.2" filter="url(#soft)"/><rect x="730" y="178" width="580" height="560" rx="22" fill="#111C30" filter="url(#soft)"/><g transform="translate(380.0 366.0) scale(1.0) translate(-380.0 -458.0)"><circle cx="380.0" cy="458.0" r="90.0" fill="none" stroke="#1C2A44" stroke-width="8.0"/><circle cx="380.0" cy="458.0" r="9.0" fill="#1C2A44"/><line x1="380.0" y1="400.0" x2="380.0" y2="340.0" stroke="#1C2A44" stroke-width="6.0" stroke-linecap="round"/><line x1="438.0" y1="458.0" x2="498.0" y2="458.0" stroke="#1C2A44" stroke-width="6.0" stroke-linecap="round"/><line x1="380.0" y1="516.0" x2="380.0" y2="576.0" stroke="#1C2A44" stroke-width="6.0" stroke-linecap="round"/><line x1="322.0" y1="458.0" x2="262.0" y2="458.0" stroke="#1C2A44" stroke-width="6.0" stroke-linecap="round"/></g><path fill="none" stroke="#1C2A44" stroke-width="7.56" stroke-linecap="butt" stroke-linejoin="miter" stroke-miterlimit="8" d="M 271.22 516.00 L 271.22 572.00 M 271.22 519.78 L 298.80 519.78 M 271.22 544.00 L 293.78 544.00"/><circle cx="336.88" cy="544.00" r="24.22" fill="none" stroke="#1C2A44" stroke-width="7.56" stroke-linecap="butt" stroke-linejoin="miter" stroke-miterlimit="8"/><path fill="none" stroke="#1C2A44" stroke-width="7.56" stroke-linecap="butt" stroke-linejoin="miter" stroke-miterlimit="8" d="M 378.74 572.00 L 378.74 516.00 L 400.72 546.80 L 422.70 516.00 L 422.70 572.00"/><circle cx="464.56" cy="544.00" r="24.22" fill="none" stroke="#1C2A44" stroke-width="7.56" stroke-linecap="butt" stroke-linejoin="miter" stroke-miterlimit="8"/><text x="380.00" y="601.12" font-family="Liberation Sans, Arial, DejaVu Sans, sans-serif" font-size="17.92" font-weight="600" letter-spacing="12.54" text-anchor="middle" fill="#1C2A44">MARKETING</text><g transform="translate(1020.0 366.0) scale(1.0) translate(-1020.0 -458.0)"><circle cx="1020.0" cy="458.0" r="90.0" fill="none" stroke="#E7DBC2" stroke-width="8.0"/><circle cx="1020.0" cy="458.0" r="9.0" fill="#E7DBC2"/><line x1="1020.0" y1="400.0" x2="1020.0" y2="340.0" stroke="#E7DBC2" stroke-width="6.0" stroke-linecap="round"/><line x1="1078.0" y1="458.0" x2="1138.0" y2="458.0" stroke="#E7DBC2" stroke-width="6.0" stroke-linecap="round"/><line x1="1020.0" y1="516.0" x2="1020.0" y2="576.0" stroke="#E7DBC2" stroke-width="6.0" stroke-linecap="round"/><line x1="962.0" y1="458.0" x2="902.0" y2="458.0" stroke="#E7DBC2" stroke-width="6.0" stroke-linecap="round"/></g><path fill="none" stroke="#E7DBC2" stroke-width="7.56" stroke-linecap="butt" stroke-linejoin="miter" stroke-miterlimit="8" d="M 911.22 516.00 L 911.22 572.00 M 911.22 519.78 L 938.80 519.78 M 911.22 544.00 L 933.78 544.00"/><circle cx="976.88" cy="544.00" r="24.22" fill="none" stroke="#E7DBC2" stroke-width="7.56" stroke-linecap="butt" stroke-linejoin="miter" stroke-miterlimit="8"/><path fill="none" stroke="#E7DBC2" stroke-width="7.56" stroke-linecap="butt" stroke-linejoin="miter" stroke-miterlimit="8" d="M 1018.74 572.00 L 1018.74 516.00 L 1040.72 546.80 L 1062.70 516.00 L 1062.70 572.00"/><circle cx="1104.56" cy="544.00" r="24.22" fill="none" stroke="#E7DBC2" stroke-width="7.56" stroke-linecap="butt" stroke-linejoin="miter" stroke-miterlimit="8"/><text x="1020.00" y="601.12" font-family="Liberation Sans, Arial, DejaVu Sans, sans-serif" font-size="17.92" font-weight="600" letter-spacing="12.54" text-anchor="middle" fill="#E7DBC2">MARKETING</text><text x="110" y="720" font-family="Liberation Sans, Arial, DejaVu Sans, sans-serif" font-size="12" letter-spacing="2" fill="#aaa">HELLER UNTERGRUND</text><text x="750" y="720" font-family="Liberation Sans, Arial, DejaVu Sans, sans-serif" font-size="12" letter-spacing="2" fill="#ffffff66">DUNKLER UNTERGRUND</text><text x="80" y="782" font-family="Liberation Sans, Arial, DejaVu Sans, sans-serif" font-size="15" fill="#333">Ein Fadenkreuz mit Zielring – Genauigkeit und Fokus. Marineblau und Beige wirken seriös und</text><text x="80" y="804" font-family="Liberation Sans, Arial, DejaVu Sans, sans-serif" font-size="15" fill="#333">praezise. Variante derselben Idee, etwas technischer und bestimmter.</text><rect x="812" y="768" width="34" height="34" rx="7" fill="#1C2A44" stroke="#00000022" stroke-width="1"/><text x="856" y="782" font-family="Liberation Sans, Arial, DejaVu Sans, sans-serif" font-size="13" font-weight="700" fill="#1a1a1a">PRIMAER</text><text x="856" y="798" font-family="Liberation Sans, Arial, DejaVu Sans, sans-serif" font-size="12" fill="#777">#1C2A44</text><rect x="940" y="768" width="34" height="34" rx="7" fill="#ECE6DA" stroke="#00000022" stroke-width="1"/><text x="984" y="782" font-family="Liberation Sans, Arial, DejaVu Sans, sans-serif" font-size="13" font-weight="700" fill="#1a1a1a">BEIGE / HELL</text><text x="984" y="798" font-family="Liberation Sans, Arial, DejaVu Sans, sans-serif" font-size="12" fill="#777">#ECE6DA</text><rect x="1068" y="768" width="34" height="34" rx="7" fill="#111C30" stroke="#00000022" stroke-width="1"/><text x="1112" y="782" font-family="Liberation Sans, Arial, DejaVu Sans, sans-serif" font-size="13" font-weight="700" fill="#1a1a1a">DUNKEL</text><text x="1112" y="798" font-family="Liberation Sans, Arial, DejaVu Sans, sans-serif" font-size="12" fill="#777">#111C30</text><rect x="1196" y="768" width="34" height="34" rx="7" fill="#E7DBC2" stroke="#00000022" stroke-width="1"/><text x="1240" y="782" font-family="Liberation Sans, Arial, DejaVu Sans, sans-serif" font-size="13" font-weight="700" fill="#1a1a1a">BEIGE-MARKE</text><text x="1240" y="798" font-family="Liberation Sans, Arial, DejaVu Sans, sans-serif" font-size="12" fill="#777">#E7DBC2</text></svg>