<svg xmlns="http://www.w3.org/2000/svg" width="1400" height="990" viewBox="0 0 1400 990"><defs><filter id="soft" x="-20%" y="-20%" width="140%" height="140%"><feDropShadow dx="0" dy="6" stdDeviation="14" flood-color="#000" flood-opacity="0.12"/></filter></defs><rect width="1400" height="990" fill="#FBFAF7"/><text x="80" y="86" font-family="Liberation Sans, Arial, DejaVu Sans, sans-serif" font-size="20" font-weight="800" letter-spacing="4" fill="#1F3D2F">FOMO MARKETING</text><text x="80" y="112" font-family="Liberation Sans, Arial, DejaVu Sans, sans-serif" font-size="13" letter-spacing="3" fill="#999">BULLSEYE-RICHTUNG &#183; ENTWURF C3</text><text x="1320" y="92" font-family="Liberation Sans, Arial, DejaVu Sans, sans-serif" font-size="42" font-weight="800" text-anchor="end" fill="#1F3D2F">ENTER</text><text x="1320" y="116" font-family="Liberation Sans, Arial, DejaVu Sans, sans-serif" font-size="14" font-style="italic" text-anchor="end" fill="#888">Tannengruen &amp; Beige – eintreten</text><line x1="80" y1="138" x2="1320" y2="138" stroke="#1F3D2F" stroke-width="2"/><rect x="90" y="178" width="580" height="560" rx="22" fill="#EAE6D6" stroke="#0000000f" stroke-width="1.2" filter="url(#soft)"/><rect x="730" y="178" width="580" height="560" rx="22" fill="#122619" filter="url(#soft)"/><g transform="translate(380.0 366.0) scale(1.0) translate(-380.0 -458.0)"><path d="M 441.57 379.20 A 100.00 100.00 0 1 1 355.81 360.97" fill="none" stroke="#1F3D2F" stroke-width="11.00" stroke-linecap="round"/><circle cx="475.1" cy="427.1" r="16.0" fill="#1F3D2F"/></g><path fill="none" stroke="#1F3D2F" stroke-width="7.56" stroke-linecap="butt" stroke-linejoin="miter" stroke-miterlimit="8" d="M 268.98 516.00 L 268.98 572.00 M 268.98 519.78 L 308.88 519.78 M 268.98 544.00 L 301.89 544.00"/><circle cx="346.96" cy="544.00" r="24.22" fill="none" stroke="#1F3D2F" stroke-width="7.56" stroke-linecap="butt" stroke-linejoin="miter" stroke-miterlimit="8"/><rect x="385.04" y="516.00" width="7.56" height="56.00" fill="#1F3D2F"/><rect x="421.16" y="516.00" width="7.56" height="56.00" fill="#1F3D2F"/><path fill="#1F3D2F" d="M 385.04 516.00 L 392.60 516.00 L 406.88 549.60 L 421.16 516.00 L 428.72 516.00 L 406.88 558.29 Z"/><circle cx="466.80" cy="544.00" r="24.22" fill="none" stroke="#1F3D2F" stroke-width="7.56" stroke-linecap="butt" stroke-linejoin="miter" stroke-miterlimit="8"/><text x="380.00" y="601.12" font-family="Liberation Sans, Arial, DejaVu Sans, sans-serif" font-size="17.92" font-weight="600" letter-spacing="12.54" text-anchor="middle" fill="#1F3D2F">MARKETING</text><g transform="translate(1020.0 366.0) scale(1.0) translate(-1020.0 -458.0)"><path d="M 1081.57 379.20 A 100.00 100.00 0 1 1 995.81 360.97" fill="none" stroke="#E7DDC6" stroke-width="11.00" stroke-linecap="round"/><circle cx="1115.1" cy="427.1" r="16.0" fill="#E7DDC6"/></g><path fill="none" stroke="#E7DDC6" stroke-width="7.56" stroke-linecap="butt" stroke-linejoin="miter" stroke-miterlimit="8" d="M 908.98 516.00 L 908.98 572.00 M 908.98 519.78 L 948.88 519.78 M 908.98 544.00 L 941.89 544.00"/><circle cx="986.96" cy="544.00" r="24.22" fill="none" stroke="#E7DDC6" stroke-width="7.56" stroke-linecap="butt" stroke-linejoin="miter" stroke-miterlimit="8"/><rect x="1025.04" y="516.00" width="7.56" height="56.00" fill="#E7DDC6"/><rect x="1061.16" y="516.00" width="7.56" height="56.00" fill="#E7DDC6"/><path fill="#E7DDC6" d="M 1025.04 516.00 L 1032.60 516.00 L 1046.88 549.60 L 1061.16 516.00 L 1068.72 516.00 L 1046.88 558.29 Z"/><circle cx="1106.80" cy="544.00" r="24.22" fill="none" stroke="#E7DDC6" stroke-width="7.56" stroke-linecap="butt" stroke-linejoin="miter" stroke-miterlimit="8"/><text x="1020.00" y="601.12" font-family="Liberation Sans, Arial, DejaVu Sans, sans-serif" font-size="17.92" font-weight="600" letter-spacing="12.54" text-anchor="middle" fill="#E7DDC6">MARKETING</text><text x="110" y="720" font-family="Liberation Sans, Arial, DejaVu Sans, sans-serif" font-size="12" letter-spacing="2" fill="#aaa">HELLER UNTERGRUND</text><text x="750" y="720" font-family="Liberation Sans, Arial, DejaVu Sans, sans-serif" font-size="12" letter-spacing="2" fill="#ffffff66">DUNKLER UNTERGRUND</text><text x="80" y="782" font-family="Liberation Sans, Arial, DejaVu Sans, sans-serif" font-size="15" fill="#333">Ein offener Ring mit Punkt: der Schritt hinein in den Kreis – das Gegenteil von aussen vor sein.</text><text x="80" y="804" font-family="Liberation Sans, Arial, DejaVu Sans, sans-serif" font-size="15" fill="#333">Erzaehlt die FOMO-Idee direkt. Tannengruen und Beige, natuerlich und vornehm.</text><rect x="812" y="768" width="34" height="34" rx="7" fill="#1F3D2F" stroke="#00000022" stroke-width="1"/><text x="856" y="782" font-family="Liberation Sans, Arial, DejaVu Sans, sans-serif" font-size="13" font-weight="700" fill="#1a1a1a">PRIMAER</text><text x="856" y="798" font-family="Liberation Sans, Arial, DejaVu Sans, sans-serif" font-size="12" fill="#777">#1F3D2F</text><rect x="940" y="768" width="34" height="34" rx="7" fill="#EAE6D6" stroke="#00000022" stroke-width="1"/><text x="984" y="782" font-family="Liberation Sans, Arial, DejaVu Sans, sans-serif" font-size="13" font-weight="700" fill="#1a1a1a">BEIGE / HELL</text><text x="984" y="798" font-family="Liberation Sans, Arial, DejaVu Sans, sans-serif" font-size="12" fill="#777">#EAE6D6</text><rect x="1068" y="768" width="34" height="34" rx="7" fill="#122619" stroke="#00000022" stroke-width="1"/><text x="1112" y="782" font-family="Liberation Sans, Arial, DejaVu Sans, sans-serif" font-size="13" font-weight="700" fill="#1a1a1a">DUNKEL</text><text x="1112" y="798" font-family="Liberation Sans, Arial, DejaVu Sans, sans-serif" font-size="12" fill="#777">#122619</text><rect x="1196" y="768" width="34" height="34" rx="7" fill="#E7DBC2" stroke="#00000022" stroke-width="1"/><text x="1240" y="782" font-family="Liberation Sans, Arial, DejaVu Sans, sans-serif" font-size="13" font-weight="700" fill="#1a1a1a">BEIGE-MARKE</text><text x="1240" y="798" font-family="Liberation Sans, Arial, DejaVu Sans, sans-serif" font-size="12" fill="#777">#E7DBC2</text></svg>