<svg xmlns="http://www.w3.org/2000/svg" width="1400" height="990" viewBox="0 0 1400 990"><defs><filter id="soft" x="-20%" y="-20%" width="140%" height="140%"><feDropShadow dx="0" dy="6" stdDeviation="14" flood-color="#000" flood-opacity="0.12"/></filter></defs><rect width="1400" height="990" fill="#FBFAF7"/><text x="80" y="86" font-family="Liberation Sans, Arial, DejaVu Sans, sans-serif" font-size="20" font-weight="800" letter-spacing="4" fill="#3A2440">FOMO MARKETING</text><text x="80" y="112" font-family="Liberation Sans, Arial, DejaVu Sans, sans-serif" font-size="13" letter-spacing="3" fill="#999">BULLSEYE-RICHTUNG &#183; ENTWURF C4</text><text x="1320" y="92" font-family="Liberation Sans, Arial, DejaVu Sans, sans-serif" font-size="42" font-weight="800" text-anchor="end" fill="#3A2440">TWIN</text><text x="1320" y="116" font-family="Liberation Sans, Arial, DejaVu Sans, sans-serif" font-size="14" font-style="italic" text-anchor="end" fill="#888">Pflaume &amp; Beige – Verbindung</text><line x1="80" y1="138" x2="1320" y2="138" stroke="#3A2440" stroke-width="2"/><rect x="90" y="178" width="580" height="560" rx="22" fill="#ECE5DA" stroke="#0000000f" stroke-width="1.2" filter="url(#soft)"/><rect x="730" y="178" width="580" height="560" rx="22" fill="#221329" filter="url(#soft)"/><g transform="translate(380.0 366.0) scale(1.0) translate(-380.0 -458.0)"><circle cx="340.0" cy="458.0" r="72.0" fill="none" stroke="#3A2440" stroke-width="9.0"/><circle cx="420.0" cy="458.0" r="72.0" fill="none" stroke="#3A2440" stroke-width="9.0"/></g><path fill="none" stroke="#3A2440" stroke-width="7.56" stroke-linecap="butt" stroke-linejoin="miter" stroke-miterlimit="8" d="M 268.98 516.00 L 268.98 572.00 M 268.98 519.78 L 308.88 519.78 M 268.98 544.00 L 301.89 544.00"/><circle cx="346.96" cy="544.00" r="24.22" fill="none" stroke="#3A2440" stroke-width="7.56" stroke-linecap="butt" stroke-linejoin="miter" stroke-miterlimit="8"/><rect x="385.04" y="516.00" width="7.56" height="56.00" fill="#3A2440"/><rect x="421.16" y="516.00" width="7.56" height="56.00" fill="#3A2440"/><path fill="#3A2440" d="M 385.04 516.00 L 392.60 516.00 L 406.88 549.60 L 421.16 516.00 L 428.72 516.00 L 406.88 558.29 Z"/><circle cx="466.80" cy="544.00" r="24.22" fill="none" stroke="#3A2440" stroke-width="7.56" stroke-linecap="butt" stroke-linejoin="miter" stroke-miterlimit="8"/><text x="380.00" y="601.12" font-family="Liberation Sans, Arial, DejaVu Sans, sans-serif" font-size="17.92" font-weight="600" letter-spacing="12.54" text-anchor="middle" fill="#3A2440">MARKETING</text><g transform="translate(1020.0 366.0) scale(1.0) translate(-1020.0 -458.0)"><circle cx="980.0" cy="458.0" r="72.0" fill="none" stroke="#E9DFD2" stroke-width="9.0"/><circle cx="1060.0" cy="458.0" r="72.0" fill="none" stroke="#E9DFD2" stroke-width="9.0"/></g><path fill="none" stroke="#E9DFD2" stroke-width="7.56" stroke-linecap="butt" stroke-linejoin="miter" stroke-miterlimit="8" d="M 908.98 516.00 L 908.98 572.00 M 908.98 519.78 L 948.88 519.78 M 908.98 544.00 L 941.89 544.00"/><circle cx="986.96" cy="544.00" r="24.22" fill="none" stroke="#E9DFD2" stroke-width="7.56" stroke-linecap="butt" stroke-linejoin="miter" stroke-miterlimit="8"/><rect x="1025.04" y="516.00" width="7.56" height="56.00" fill="#E9DFD2"/><rect x="1061.16" y="516.00" width="7.56" height="56.00" fill="#E9DFD2"/><path fill="#E9DFD2" d="M 1025.04 516.00 L 1032.60 516.00 L 1046.88 549.60 L 1061.16 516.00 L 1068.72 516.00 L 1046.88 558.29 Z"/><circle cx="1106.80" cy="544.00" r="24.22" fill="none" stroke="#E9DFD2" stroke-width="7.56" stroke-linecap="butt" stroke-linejoin="miter" stroke-miterlimit="8"/><text x="1020.00" y="601.12" font-family="Liberation Sans, Arial, DejaVu Sans, sans-serif" font-size="17.92" font-weight="600" letter-spacing="12.54" text-anchor="middle" fill="#E9DFD2">MARKETING</text><text x="110" y="720" font-family="Liberation Sans, Arial, DejaVu Sans, sans-serif" font-size="12" letter-spacing="2" fill="#aaa">HELLER UNTERGRUND</text><text x="750" y="720" font-family="Liberation Sans, Arial, DejaVu Sans, sans-serif" font-size="12" letter-spacing="2" fill="#ffffff66">DUNKLER UNTERGRUND</text><text x="80" y="782" font-family="Liberation Sans, Arial, DejaVu Sans, sans-serif" font-size="15" fill="#333">Zwei ueberlappende Ringe – die beiden O's von FOMO und ihre Schnittmenge, der gemeinsame Moment.</text><text x="80" y="804" font-family="Liberation Sans, Arial, DejaVu Sans, sans-serif" font-size="15" fill="#333">Pflaumen-Violett auf Beige, kreativ und luxurioes. Freundlich und einpraegsam.</text><rect x="812" y="768" width="34" height="34" rx="7" fill="#3A2440" stroke="#00000022" stroke-width="1"/><text x="856" y="782" font-family="Liberation Sans, Arial, DejaVu Sans, sans-serif" font-size="13" font-weight="700" fill="#1a1a1a">PRIMAER</text><text x="856" y="798" font-family="Liberation Sans, Arial, DejaVu Sans, sans-serif" font-size="12" fill="#777">#3A2440</text><rect x="940" y="768" width="34" height="34" rx="7" fill="#ECE5DA" stroke="#00000022" stroke-width="1"/><text x="984" y="782" font-family="Liberation Sans, Arial, DejaVu Sans, sans-serif" font-size="13" font-weight="700" fill="#1a1a1a">BEIGE / HELL</text><text x="984" y="798" font-family="Liberation Sans, Arial, DejaVu Sans, sans-serif" font-size="12" fill="#777">#ECE5DA</text><rect x="1068" y="768" width="34" height="34" rx="7" fill="#221329" stroke="#00000022" stroke-width="1"/><text x="1112" y="782" font-family="Liberation Sans, Arial, DejaVu Sans, sans-serif" font-size="13" font-weight="700" fill="#1a1a1a">DUNKEL</text><text x="1112" y="798" font-family="Liberation Sans, Arial, DejaVu Sans, sans-serif" font-size="12" fill="#777">#221329</text><rect x="1196" y="768" width="34" height="34" rx="7" fill="#E7DBC2" stroke="#00000022" stroke-width="1"/><text x="1240" y="782" font-family="Liberation Sans, Arial, DejaVu Sans, sans-serif" font-size="13" font-weight="700" fill="#1a1a1a">BEIGE-MARKE</text><text x="1240" y="798" font-family="Liberation Sans, Arial, DejaVu Sans, sans-serif" font-size="12" fill="#777">#E7DBC2</text></svg>