<svg xmlns="http://www.w3.org/2000/svg" width="1400" height="990" viewBox="0 0 1400 990"><defs><filter id="soft" x="-20%" y="-20%" width="140%" height="140%"><feDropShadow dx="0" dy="6" stdDeviation="14" flood-color="#000" flood-opacity="0.12"/></filter></defs><rect width="1400" height="990" fill="#FBFAF7"/><text x="80" y="86" font-family="Liberation Sans, Arial, DejaVu Sans, sans-serif" font-size="20" font-weight="800" letter-spacing="4" fill="#163B40">FOMO MARKETING</text><text x="80" y="112" font-family="Liberation Sans, Arial, DejaVu Sans, sans-serif" font-size="13" letter-spacing="3" fill="#999">ENTWURF C5 &#183; FORM + SCHRIFT: LORA</text><text x="1320" y="92" font-family="Liberation Sans, Arial, DejaVu Sans, sans-serif" font-size="42" font-weight="800" text-anchor="end" fill="#163B40">QUARTETT</text><text x="1320" y="116" font-family="Liberation Sans, Arial, DejaVu Sans, sans-serif" font-size="14" font-style="italic" text-anchor="end" fill="#888">Petrol &amp; Beige – vier werden eins</text><line x1="80" y1="138" x2="1320" y2="138" stroke="#163B40" stroke-width="2"/><rect x="90" y="178" width="580" height="560" rx="22" fill="#E8E6DC" stroke="#0000000f" stroke-width="1.2" filter="url(#soft)"/><rect x="730" y="178" width="580" height="560" rx="22" fill="#0C2528" filter="url(#soft)"/><g transform="translate(380.0 366.0) scale(1.0) translate(-380.0 -458.0)"><path d="M 390.87 362.62 A 96.00 96.00 0 0 1 475.38 447.13" fill="none" stroke="#163B40" stroke-width="15.00" stroke-linecap="round"/><path d="M 475.38 468.87 A 96.00 96.00 0 0 1 390.87 553.38" fill="none" stroke="#163B40" stroke-width="15.00" stroke-linecap="round"/><path d="M 369.13 553.38 A 96.00 96.00 0 0 1 284.62 468.87" fill="none" stroke="#163B40" stroke-width="15.00" stroke-linecap="round"/><path d="M 284.62 447.13 A 96.00 96.00 0 0 1 369.13 362.62" fill="none" stroke="#163B40" stroke-width="15.00" stroke-linecap="round"/></g><text x="380.0" y="554.0" font-family="Lora" font-weight="600" font-size="88.0" letter-spacing="3.00" text-anchor="middle" fill="#163B40">FOMO</text><text x="380.0" y="590.0" font-family="Poppins Medium" font-size="18.0" letter-spacing="7.00" text-anchor="middle" fill="#163B40">MARKETING</text><g transform="translate(1020.0 366.0) scale(1.0) translate(-1020.0 -458.0)"><path d="M 1030.87 362.62 A 96.00 96.00 0 0 1 1115.38 447.13" fill="none" stroke="#E3DDCB" stroke-width="15.00" stroke-linecap="round"/><path d="M 1115.38 468.87 A 96.00 96.00 0 0 1 1030.87 553.38" fill="none" stroke="#E3DDCB" stroke-width="15.00" stroke-linecap="round"/><path d="M 1009.13 553.38 A 96.00 96.00 0 0 1 924.62 468.87" fill="none" stroke="#E3DDCB" stroke-width="15.00" stroke-linecap="round"/><path d="M 924.62 447.13 A 96.00 96.00 0 0 1 1009.13 362.62" fill="none" stroke="#E3DDCB" stroke-width="15.00" stroke-linecap="round"/></g><text x="1020.0" y="554.0" font-family="Lora" font-weight="600" font-size="88.0" letter-spacing="3.00" text-anchor="middle" fill="#E3DDCB">FOMO</text><text x="1020.0" y="590.0" font-family="Poppins Medium" font-size="18.0" letter-spacing="7.00" text-anchor="middle" fill="#E3DDCB">MARKETING</text><text x="110" y="720" font-family="Liberation Sans, Arial, DejaVu Sans, sans-serif" font-size="12" letter-spacing="2" fill="#aaa">HELLER UNTERGRUND</text><text x="750" y="720" font-family="Liberation Sans, Arial, DejaVu Sans, sans-serif" font-size="12" letter-spacing="2" fill="#ffffff66">DUNKLER UNTERGRUND</text><text x="80" y="782" font-family="Liberation Sans, Arial, DejaVu Sans, sans-serif" font-size="15" fill="#333">Vier Bogensegmente fuegen sich zu einem Kreis. Schrift: Lora (humanistischer Serif), warm und</text><text x="80" y="804" font-family="Liberation Sans, Arial, DejaVu Sans, sans-serif" font-size="15" fill="#333">vertrauenswuerdig. Gedecktes Petrol auf Beige.</text><rect x="812" y="768" width="34" height="34" rx="7" fill="#163B40" stroke="#00000022" stroke-width="1"/><text x="856" y="782" font-family="Liberation Sans, Arial, DejaVu Sans, sans-serif" font-size="13" font-weight="700" fill="#1a1a1a">PRIMAER</text><text x="856" y="798" font-family="Liberation Sans, Arial, DejaVu Sans, sans-serif" font-size="12" fill="#777">#163B40</text><rect x="940" y="768" width="34" height="34" rx="7" fill="#E8E6DC" stroke="#00000022" stroke-width="1"/><text x="984" y="782" font-family="Liberation Sans, Arial, DejaVu Sans, sans-serif" font-size="13" font-weight="700" fill="#1a1a1a">BEIGE / HELL</text><text x="984" y="798" font-family="Liberation Sans, Arial, DejaVu Sans, sans-serif" font-size="12" fill="#777">#E8E6DC</text><rect x="1068" y="768" width="34" height="34" rx="7" fill="#0C2528" stroke="#00000022" stroke-width="1"/><text x="1112" y="782" font-family="Liberation Sans, Arial, DejaVu Sans, sans-serif" font-size="13" font-weight="700" fill="#1a1a1a">DUNKEL</text><text x="1112" y="798" font-family="Liberation Sans, Arial, DejaVu Sans, sans-serif" font-size="12" fill="#777">#0C2528</text><rect x="1196" y="768" width="34" height="34" rx="7" fill="#E7DBC2" stroke="#00000022" stroke-width="1"/><text x="1240" y="782" font-family="Liberation Sans, Arial, DejaVu Sans, sans-serif" font-size="13" font-weight="700" fill="#1a1a1a">BEIGE-MARKE</text><text x="1240" y="798" font-family="Liberation Sans, Arial, DejaVu Sans, sans-serif" font-size="12" fill="#777">#E7DBC2</text></svg>