<svg xmlns="http://www.w3.org/2000/svg" width="1400" height="990" viewBox="0 0 1400 990"><defs><filter id="soft" x="-20%" y="-20%" width="140%" height="140%"><feDropShadow dx="0" dy="6" stdDeviation="14" flood-color="#000" flood-opacity="0.12"/></filter></defs><rect width="1400" height="990" fill="#FBFAF7"/><text x="80" y="86" font-family="Liberation Sans, Arial, DejaVu Sans, sans-serif" font-size="20" font-weight="800" letter-spacing="4" fill="#3B2A21">FOMO MARKETING</text><text x="80" y="112" font-family="Liberation Sans, Arial, DejaVu Sans, sans-serif" font-size="13" letter-spacing="3" fill="#999">BULLSEYE-RICHTUNG &#183; ENTWURF C6</text><text x="1320" y="92" font-family="Liberation Sans, Arial, DejaVu Sans, sans-serif" font-size="42" font-weight="800" text-anchor="end" fill="#3B2A21">RADAR</text><text x="1320" y="116" font-family="Liberation Sans, Arial, DejaVu Sans, sans-serif" font-size="14" font-style="italic" text-anchor="end" fill="#888">Espresso &amp; Beige – Aufmerksamkeit</text><line x1="80" y1="138" x2="1320" y2="138" stroke="#3B2A21" stroke-width="2"/><rect x="90" y="178" width="580" height="560" rx="22" fill="#F0E8D7" stroke="#0000000f" stroke-width="1.2" filter="url(#soft)"/><rect x="730" y="178" width="580" height="560" rx="22" fill="#221710" filter="url(#soft)"/><g transform="translate(380.0 366.0) scale(1.0) translate(-380.0 -458.0)"><circle cx="380.0" cy="458.0" r="100.0" fill="none" stroke="#3B2A21" stroke-width="7.0"/><circle cx="380.0" cy="458.0" r="68.0" fill="none" stroke="#3B2A21" stroke-width="4.0"/><circle cx="380.0" cy="458.0" r="36.0" fill="none" stroke="#3B2A21" stroke-width="4.0"/><circle cx="380.0" cy="458.0" r="7.0" fill="#3B2A21"/><line x1="380.0" y1="458.0" x2="441.6" y2="379.2" stroke="#3B2A21" stroke-width="5.0" stroke-linecap="round"/><circle cx="441.6" cy="379.2" r="10.0" fill="#3B2A21"/></g><path fill="none" stroke="#3B2A21" stroke-width="7.56" stroke-linecap="butt" stroke-linejoin="miter" stroke-miterlimit="8" d="M 281.30 516.00 L 281.30 572.00 M 281.30 519.78 L 308.88 519.78 M 281.30 544.00 L 303.86 544.00"/><circle cx="346.96" cy="544.00" r="24.22" fill="none" stroke="#3B2A21" stroke-width="7.56" stroke-linecap="butt" stroke-linejoin="miter" stroke-miterlimit="8"/><path fill="none" stroke="#3B2A21" stroke-width="7.56" stroke-linecap="butt" stroke-linejoin="miter" stroke-miterlimit="8" d="M 388.82 572.00 L 388.82 516.00 L 400.72 546.80 L 412.62 516.00 L 412.62 572.00"/><circle cx="454.48" cy="544.00" r="24.22" fill="none" stroke="#3B2A21" stroke-width="7.56" stroke-linecap="butt" stroke-linejoin="miter" stroke-miterlimit="8"/><text x="380.00" y="601.12" font-family="Liberation Sans, Arial, DejaVu Sans, sans-serif" font-size="17.92" font-weight="600" letter-spacing="12.54" text-anchor="middle" fill="#3B2A21">MARKETING</text><g transform="translate(1020.0 366.0) scale(1.0) translate(-1020.0 -458.0)"><circle cx="1020.0" cy="458.0" r="100.0" fill="none" stroke="#E8DDC8" stroke-width="7.0"/><circle cx="1020.0" cy="458.0" r="68.0" fill="none" stroke="#E8DDC8" stroke-width="4.0"/><circle cx="1020.0" cy="458.0" r="36.0" fill="none" stroke="#E8DDC8" stroke-width="4.0"/><circle cx="1020.0" cy="458.0" r="7.0" fill="#E8DDC8"/><line x1="1020.0" y1="458.0" x2="1081.6" y2="379.2" stroke="#E8DDC8" stroke-width="5.0" stroke-linecap="round"/><circle cx="1081.6" cy="379.2" r="10.0" fill="#E8DDC8"/></g><path fill="none" stroke="#E8DDC8" stroke-width="7.56" stroke-linecap="butt" stroke-linejoin="miter" stroke-miterlimit="8" d="M 921.30 516.00 L 921.30 572.00 M 921.30 519.78 L 948.88 519.78 M 921.30 544.00 L 943.86 544.00"/><circle cx="986.96" cy="544.00" r="24.22" fill="none" stroke="#E8DDC8" stroke-width="7.56" stroke-linecap="butt" stroke-linejoin="miter" stroke-miterlimit="8"/><path fill="none" stroke="#E8DDC8" stroke-width="7.56" stroke-linecap="butt" stroke-linejoin="miter" stroke-miterlimit="8" d="M 1028.82 572.00 L 1028.82 516.00 L 1040.72 546.80 L 1052.62 516.00 L 1052.62 572.00"/><circle cx="1094.48" cy="544.00" r="24.22" fill="none" stroke="#E8DDC8" stroke-width="7.56" stroke-linecap="butt" stroke-linejoin="miter" stroke-miterlimit="8"/><text x="1020.00" y="601.12" font-family="Liberation Sans, Arial, DejaVu Sans, sans-serif" font-size="17.92" font-weight="600" letter-spacing="12.54" text-anchor="middle" fill="#E8DDC8">MARKETING</text><text x="110" y="720" font-family="Liberation Sans, Arial, DejaVu Sans, sans-serif" font-size="12" letter-spacing="2" fill="#aaa">HELLER UNTERGRUND</text><text x="750" y="720" font-family="Liberation Sans, Arial, DejaVu Sans, sans-serif" font-size="12" letter-spacing="2" fill="#ffffff66">DUNKLER UNTERGRUND</text><text x="80" y="782" font-family="Liberation Sans, Arial, DejaVu Sans, sans-serif" font-size="15" fill="#333">Ein Radar erfasst, was gerade passiert – Aufmerksamkeit und Reichweite. Warmes Espresso-Braun</text><text x="80" y="804" font-family="Liberation Sans, Arial, DejaVu Sans, sans-serif" font-size="15" fill="#333">auf Beige wirkt erdig und hochwertig wie feines Leder.</text><rect x="812" y="768" width="34" height="34" rx="7" fill="#3B2A21" stroke="#00000022" stroke-width="1"/><text x="856" y="782" font-family="Liberation Sans, Arial, DejaVu Sans, sans-serif" font-size="13" font-weight="700" fill="#1a1a1a">PRIMAER</text><text x="856" y="798" font-family="Liberation Sans, Arial, DejaVu Sans, sans-serif" font-size="12" fill="#777">#3B2A21</text><rect x="940" y="768" width="34" height="34" rx="7" fill="#F0E8D7" stroke="#00000022" stroke-width="1"/><text x="984" y="782" font-family="Liberation Sans, Arial, DejaVu Sans, sans-serif" font-size="13" font-weight="700" fill="#1a1a1a">BEIGE / HELL</text><text x="984" y="798" font-family="Liberation Sans, Arial, DejaVu Sans, sans-serif" font-size="12" fill="#777">#F0E8D7</text><rect x="1068" y="768" width="34" height="34" rx="7" fill="#221710" stroke="#00000022" stroke-width="1"/><text x="1112" y="782" font-family="Liberation Sans, Arial, DejaVu Sans, sans-serif" font-size="13" font-weight="700" fill="#1a1a1a">DUNKEL</text><text x="1112" y="798" font-family="Liberation Sans, Arial, DejaVu Sans, sans-serif" font-size="12" fill="#777">#221710</text><rect x="1196" y="768" width="34" height="34" rx="7" fill="#E7DBC2" stroke="#00000022" stroke-width="1"/><text x="1240" y="782" font-family="Liberation Sans, Arial, DejaVu Sans, sans-serif" font-size="13" font-weight="700" fill="#1a1a1a">BEIGE-MARKE</text><text x="1240" y="798" font-family="Liberation Sans, Arial, DejaVu Sans, sans-serif" font-size="12" fill="#777">#E7DBC2</text></svg>