<svg xmlns="http://www.w3.org/2000/svg" width="1400" height="990" viewBox="0 0 1400 990"><defs><filter id="soft" x="-20%" y="-20%" width="140%" height="140%"><feDropShadow dx="0" dy="6" stdDeviation="14" flood-color="#000" flood-opacity="0.12"/></filter></defs><rect width="1400" height="990" fill="#FBFAF7"/><text x="80" y="86" font-family="Liberation Sans, Arial, DejaVu Sans, sans-serif" font-size="20" font-weight="800" letter-spacing="4" fill="#0B1F3A">FOMO MARKETING</text><text x="80" y="112" font-family="Liberation Sans, Arial, DejaVu Sans, sans-serif" font-size="13" letter-spacing="3" fill="#999">UEBERSICHT &#183; VERBUNDENE BUCHSTABEN</text><line x1="80" y1="138" x2="1320" y2="138" stroke="#0B1F3A" stroke-width="2"/><rect x="90" y="180" width="400" height="250" rx="22" fill="#F7F3EA" stroke="#0000000f" stroke-width="1.2" filter="url(#soft)"/><path fill="none" stroke="#0B1F3A" stroke-width="7.00" stroke-linecap="round" stroke-linejoin="round" stroke-miterlimit="8" d="M 185.35 256.00 L 185.35 326.00 M 185.35 259.50 L 221.05 259.50 M 185.35 291.00 L 214.78 291.00"/><path fill="none" stroke="#0B1F3A" stroke-width="7.00" stroke-linecap="round" stroke-linejoin="round" stroke-miterlimit="8" d="M 276.35 326.00 L 276.35 256.00 L 305.05 298.00 L 333.75 256.00 L 333.75 326.00"/><circle cx="246.95" cy="291.00" r="31.50" fill="none" stroke="#C9A24B" stroke-width="7.00" stroke-linecap="round" stroke-linejoin="round" stroke-miterlimit="8"/><circle cx="363.15" cy="291.00" r="31.50" fill="none" stroke="#C9A24B" stroke-width="7.00" stroke-linecap="round" stroke-linejoin="round" stroke-miterlimit="8"/><text x="108" y="414" font-family="Liberation Sans, Arial, DejaVu Sans, sans-serif" font-size="13" font-weight="800" letter-spacing="1.5" fill="#0B1F3A">V1 INTERLACE</text><rect x="510" y="180" width="400" height="250" rx="22" fill="#F6F2E8" stroke="#0000000f" stroke-width="1.2" filter="url(#soft)"/><path fill="none" stroke="#0B1F3A" stroke-width="7.00" stroke-linecap="round" stroke-linejoin="round" stroke-miterlimit="8" d="M 607.45 256.00 L 607.45 326.00 M 607.45 259.50 L 643.15 259.50 M 607.45 291.00 L 636.88 291.00"/><circle cx="663.45" cy="291.00" r="35.70" fill="none" stroke="#C9A24B" stroke-width="7.00" stroke-linecap="round" stroke-linejoin="round" stroke-miterlimit="8"/><circle cx="776.85" cy="291.00" r="35.70" fill="none" stroke="#C9A24B" stroke-width="7.00" stroke-linecap="round" stroke-linejoin="round" stroke-miterlimit="8"/><path fill="none" stroke="#0B1F3A" stroke-width="7.00" stroke-linecap="round" stroke-linejoin="round" stroke-miterlimit="8" d="M 695.65 326.00 L 695.65 256.00 L 724.35 298.00 L 753.05 256.00 L 753.05 326.00"/><text x="528" y="414" font-family="Liberation Sans, Arial, DejaVu Sans, sans-serif" font-size="13" font-weight="800" letter-spacing="1.5" fill="#0B1F3A">V2 CHAIN</text><rect x="930" y="180" width="400" height="250" rx="22" fill="#F4F1EA" stroke="#0000000f" stroke-width="1.2" filter="url(#soft)"/><path fill="none" stroke="#14110C" stroke-width="7.00" stroke-linecap="round" stroke-linejoin="round" stroke-miterlimit="8" d="M 1011.70 256.00 L 1011.70 326.00 M 1011.70 259.50 L 1047.40 259.50 M 1011.70 291.00 L 1041.13 291.00"/><path fill="none" stroke="#14110C" stroke-width="7.00" stroke-linecap="round" stroke-linejoin="round" stroke-miterlimit="8" d="M 1120.90 326.00 L 1120.90 256.00 L 1149.60 298.00 L 1178.30 256.00 L 1178.30 326.00"/><line x1="1045.4" y1="291.0" x2="1049.4" y2="291.0" stroke="#14110C" stroke-width="7.0" stroke-linecap="round"/><line x1="1115.4" y1="291.0" x2="1119.4" y2="291.0" stroke="#14110C" stroke-width="7.0" stroke-linecap="round"/><line x1="1179.8" y1="291.0" x2="1183.8" y2="291.0" stroke="#14110C" stroke-width="7.0" stroke-linecap="round"/><circle cx="1082.40" cy="291.00" r="31.50" fill="none" stroke="#C9A24B" stroke-width="7.00" stroke-linecap="round" stroke-linejoin="round" stroke-miterlimit="8"/><circle cx="1216.80" cy="291.00" r="31.50" fill="none" stroke="#C9A24B" stroke-width="7.00" stroke-linecap="round" stroke-linejoin="round" stroke-miterlimit="8"/><text x="948" y="414" font-family="Liberation Sans, Arial, DejaVu Sans, sans-serif" font-size="13" font-weight="800" letter-spacing="1.5" fill="#14110C">V3 LIGATURE</text><rect x="90" y="490" width="400" height="250" rx="22" fill="#F1EEE3" stroke="#0000000f" stroke-width="1.2" filter="url(#soft)"/><g opacity="0.86"><path fill="none" stroke="#0E3B2E" stroke-width="7.00" stroke-linecap="butt" stroke-linejoin="miter" stroke-miterlimit="8" d="M 188.50 566.00 L 188.50 636.00 M 188.50 569.50 L 224.20 569.50 M 188.50 601.00 L 217.93 601.00"/><path fill="none" stroke="#0E3B2E" stroke-width="7.00" stroke-linecap="butt" stroke-linejoin="miter" stroke-miterlimit="8" d="M 275.30 636.00 L 275.30 566.00 L 304.00 608.00 L 332.70 566.00 L 332.70 636.00"/><circle cx="248.00" cy="601.00" r="31.50" fill="none" stroke="#CDA75A" stroke-width="7.00" stroke-linecap="butt" stroke-linejoin="miter" stroke-miterlimit="8"/><circle cx="360.00" cy="601.00" r="31.50" fill="none" stroke="#CDA75A" stroke-width="7.00" stroke-linecap="butt" stroke-linejoin="miter" stroke-miterlimit="8"/></g><text x="108" y="724" font-family="Liberation Sans, Arial, DejaVu Sans, sans-serif" font-size="13" font-weight="800" letter-spacing="1.5" fill="#0E3B2E">V4 DUOTONE</text><rect x="510" y="490" width="400" height="250" rx="22" fill="#F7F3EA" stroke="#0000000f" stroke-width="1.2" filter="url(#soft)"/><path fill="none" stroke="#0B1F3A" stroke-width="5.40" stroke-linecap="round" stroke-linejoin="round" stroke-miterlimit="8" d="M 662.48 550.78 L 662.48 604.78 M 662.48 553.48 L 690.02 553.48 M 662.48 577.78 L 685.18 577.78"/><circle cx="713.78" cy="577.78" r="24.30" fill="none" stroke="#C9A24B" stroke-width="5.40" stroke-linecap="round" stroke-linejoin="round" stroke-miterlimit="8"/><path fill="none" stroke="#0B1F3A" stroke-width="5.40" stroke-linecap="round" stroke-linejoin="round" stroke-miterlimit="8" d="M 662.48 651.22 L 662.48 597.22 L 684.62 629.62 L 706.76 597.22 L 706.76 651.22"/><circle cx="733.22" cy="624.22" r="24.30" fill="none" stroke="#C9A24B" stroke-width="5.40" stroke-linecap="round" stroke-linejoin="round" stroke-miterlimit="8"/><text x="528" y="724" font-family="Liberation Sans, Arial, DejaVu Sans, sans-serif" font-size="13" font-weight="800" letter-spacing="1.5" fill="#0B1F3A">V5 MONOGRAM</text><rect x="930" y="490" width="400" height="250" rx="22" fill="#F6EFE9" stroke="#0000000f" stroke-width="1.2" filter="url(#soft)"/><line x1="1011.5" y1="569.5" x2="1248.5" y2="569.5" stroke="#C2A14A" stroke-width="7.0" stroke-linecap="butt"/><path fill="none" stroke="#5E1F2E" stroke-width="7.00" stroke-linecap="butt" stroke-linejoin="miter" stroke-miterlimit="8" d="M 1016.95 566.00 L 1016.95 636.00 M 1016.95 569.50 L 1052.65 569.50 M 1016.95 601.00 L 1046.38 601.00"/><path fill="none" stroke="#5E1F2E" stroke-width="7.00" stroke-linecap="butt" stroke-linejoin="miter" stroke-miterlimit="8" d="M 1119.15 636.00 L 1119.15 566.00 L 1147.85 608.00 L 1176.55 566.00 L 1176.55 636.00"/><circle cx="1084.15" cy="601.00" r="31.50" fill="none" stroke="#C2A14A" stroke-width="7.00" stroke-linecap="butt" stroke-linejoin="miter" stroke-miterlimit="8"/><circle cx="1211.55" cy="601.00" r="31.50" fill="none" stroke="#C2A14A" stroke-width="7.00" stroke-linecap="butt" stroke-linejoin="miter" stroke-miterlimit="8"/><text x="948" y="724" font-family="Liberation Sans, Arial, DejaVu Sans, sans-serif" font-size="13" font-weight="800" letter-spacing="1.5" fill="#5E1F2E">V6 BRIDGE</text></svg>