<svg xmlns="http://www.w3.org/2000/svg" width="1400" height="990" viewBox="0 0 1400 990"><defs><filter id="soft" x="-20%" y="-20%" width="140%" height="140%"><feDropShadow dx="0" dy="6" stdDeviation="14" flood-color="#000" flood-opacity="0.12"/></filter></defs><rect width="1400" height="990" fill="#FBFAF7"/><text x="80" y="86" font-family="Liberation Sans, Arial, DejaVu Sans, sans-serif" font-size="20" font-weight="800" letter-spacing="4" fill="#3B352D">FOMO MARKETING</text><text x="80" y="112" font-family="Liberation Sans, Arial, DejaVu Sans, sans-serif" font-size="13" letter-spacing="3" fill="#999">LOGO-KONZEPT F1 &#183; WORT + BILD</text><text x="1320" y="92" font-family="Liberation Sans, Arial, DejaVu Sans, sans-serif" font-size="42" font-weight="800" text-anchor="end" fill="#3B352D">MISSING PIECE</text><text x="1320" y="116" font-family="Liberation Sans, Arial, DejaVu Sans, sans-serif" font-size="14" font-style="italic" text-anchor="end" fill="#888">Das fehlende Stueck – du fehlst</text><line x1="80" y1="138" x2="1320" y2="138" stroke="#CBB489" stroke-width="2"/><rect x="90" y="178" width="580" height="560" rx="22" fill="#F1ECE2" stroke="#0000000f" stroke-width="1.2" filter="url(#soft)"/><rect x="730" y="178" width="580" height="560" rx="22" fill="#2E2920" filter="url(#soft)"/><path fill="none" stroke="#3B352D" stroke-width="15.66" stroke-linecap="butt" stroke-linejoin="miter" stroke-miterlimit="8" d="M 154.67 375.64 L 154.67 491.64 M 154.67 383.47 L 211.80 383.47 M 154.67 433.64 L 201.41 433.64"/><circle cx="290.68" cy="433.64" r="50.17" fill="none" stroke="#3B352D" stroke-width="15.66" stroke-linecap="butt" stroke-linejoin="miter" stroke-miterlimit="8"/><path fill="none" stroke="#3B352D" stroke-width="15.66" stroke-linecap="butt" stroke-linejoin="miter" stroke-miterlimit="8" d="M 377.39 491.64 L 377.39 375.64 L 422.92 470.76 L 468.45 375.64 L 468.45 491.64"/><path d="M 595.23 403.45 A 50.17 50.17 0 1 1 569.83 385.66" fill="none" stroke="#3B352D" stroke-width="15.66" stroke-linecap="butt"/><circle cx="590.27" cy="383.50" r="22.71" fill="#CBB489" opacity="1.0"/><circle cx="611.27" cy="353.50" r="12.53" fill="#CBB489" opacity="0.4"/><text x="380.00" y="530.62" font-family="Liberation Sans, Arial, DejaVu Sans, sans-serif" font-size="17.40" font-weight="600" letter-spacing="10.79" text-anchor="middle" fill="#3B352D">MARKETING</text><path fill="none" stroke="#ECE3D2" stroke-width="15.66" stroke-linecap="butt" stroke-linejoin="miter" stroke-miterlimit="8" d="M 794.67 375.64 L 794.67 491.64 M 794.67 383.47 L 851.80 383.47 M 794.67 433.64 L 841.41 433.64"/><circle cx="930.68" cy="433.64" r="50.17" fill="none" stroke="#ECE3D2" stroke-width="15.66" stroke-linecap="butt" stroke-linejoin="miter" stroke-miterlimit="8"/><path fill="none" stroke="#ECE3D2" stroke-width="15.66" stroke-linecap="butt" stroke-linejoin="miter" stroke-miterlimit="8" d="M 1017.39 491.64 L 1017.39 375.64 L 1062.92 470.76 L 1108.45 375.64 L 1108.45 491.64"/><path d="M 1235.23 403.45 A 50.17 50.17 0 1 1 1209.83 385.66" fill="none" stroke="#ECE3D2" stroke-width="15.66" stroke-linecap="butt"/><circle cx="1230.27" cy="383.50" r="22.71" fill="#CBB489" opacity="1.0"/><circle cx="1251.27" cy="353.50" r="12.53" fill="#CBB489" opacity="0.4"/><text x="1020.00" y="530.62" font-family="Liberation Sans, Arial, DejaVu Sans, sans-serif" font-size="17.40" font-weight="600" letter-spacing="10.79" text-anchor="middle" fill="#ECE3D2">MARKETING</text><text x="110" y="720" font-family="Liberation Sans, Arial, DejaVu Sans, sans-serif" font-size="12" letter-spacing="2" fill="#aaa">HELLER UNTERGRUND</text><text x="750" y="720" font-family="Liberation Sans, Arial, DejaVu Sans, sans-serif" font-size="12" letter-spacing="2" fill="#ffffff66">DUNKLER UNTERGRUND</text><text x="80" y="782" font-family="Liberation Sans, Arial, DejaVu Sans, sans-serif" font-size="15" fill="#333">Das letzte O hat eine Luecke, ein Punkt wartet ausserhalb: genau dort gehoerst du hin. Die</text><text x="80" y="804" font-family="Liberation Sans, Arial, DejaVu Sans, sans-serif" font-size="15" fill="#333">direkteste Darstellung von 'Fear Of Missing Out' – das Bild, das fehlt, bist du. Warmes Taupe &amp;</text><text x="80" y="826" font-family="Liberation Sans, Arial, DejaVu Sans, sans-serif" font-size="15" fill="#333">Champagner.</text><rect x="812" y="768" width="34" height="34" rx="7" fill="#3B352D" stroke="#00000022" stroke-width="1"/><text x="856" y="782" font-family="Liberation Sans, Arial, DejaVu Sans, sans-serif" font-size="13" font-weight="700" fill="#1a1a1a">PRIMAER</text><text x="856" y="798" font-family="Liberation Sans, Arial, DejaVu Sans, sans-serif" font-size="12" fill="#777">#3B352D</text><rect x="940" y="768" width="34" height="34" rx="7" fill="#CBB489" stroke="#00000022" stroke-width="1"/><text x="984" y="782" font-family="Liberation Sans, Arial, DejaVu Sans, sans-serif" font-size="13" font-weight="700" fill="#1a1a1a">AKZENT</text><text x="984" y="798" font-family="Liberation Sans, Arial, DejaVu Sans, sans-serif" font-size="12" fill="#777">#CBB489</text><rect x="1068" y="768" width="34" height="34" rx="7" fill="#F1ECE2" stroke="#00000022" stroke-width="1"/><text x="1112" y="782" font-family="Liberation Sans, Arial, DejaVu Sans, sans-serif" font-size="13" font-weight="700" fill="#1a1a1a">HELL</text><text x="1112" y="798" font-family="Liberation Sans, Arial, DejaVu Sans, sans-serif" font-size="12" fill="#777">#F1ECE2</text><rect x="1196" y="768" width="34" height="34" rx="7" fill="#2E2920" stroke="#00000022" stroke-width="1"/><text x="1240" y="782" font-family="Liberation Sans, Arial, DejaVu Sans, sans-serif" font-size="13" font-weight="700" fill="#1a1a1a">DUNKEL</text><text x="1240" y="798" font-family="Liberation Sans, Arial, DejaVu Sans, sans-serif" font-size="12" fill="#777">#2E2920</text></svg>