<svg xmlns="http://www.w3.org/2000/svg" width="1400" height="990" viewBox="0 0 1400 990"><defs><filter id="soft" x="-20%" y="-20%" width="140%" height="140%"><feDropShadow dx="0" dy="6" stdDeviation="14" flood-color="#000" flood-opacity="0.12"/></filter></defs><rect width="1400" height="990" fill="#FBFAF7"/><text x="80" y="86" font-family="Liberation Sans, Arial, DejaVu Sans, sans-serif" font-size="20" font-weight="800" letter-spacing="4" fill="#37413A">FOMO MARKETING</text><text x="80" y="112" font-family="Liberation Sans, Arial, DejaVu Sans, sans-serif" font-size="13" letter-spacing="3" fill="#999">LOGO-KONZEPT F2 &#183; WORT + BILD</text><text x="1320" y="92" font-family="Liberation Sans, Arial, DejaVu Sans, sans-serif" font-size="42" font-weight="800" text-anchor="end" fill="#37413A">LEFT OUT</text><text x="1320" y="116" font-family="Liberation Sans, Arial, DejaVu Sans, sans-serif" font-size="14" font-style="italic" text-anchor="end" fill="#888">Aussen vor</text><line x1="80" y1="138" x2="1320" y2="138" stroke="#BFA97C" stroke-width="2"/><rect x="90" y="178" width="580" height="560" rx="22" fill="#EDEAE0" stroke="#0000000f" stroke-width="1.2" filter="url(#soft)"/><rect x="730" y="178" width="580" height="560" rx="22" fill="#2A322C" filter="url(#soft)"/><path fill="none" stroke="#37413A" stroke-width="11.60" stroke-linecap="round" stroke-linejoin="round" stroke-miterlimit="8" d="M 152.64 375.64 L 152.64 491.64 M 152.64 381.44 L 211.80 381.44 M 152.64 433.64 L 201.41 433.64"/><circle cx="290.68" cy="433.64" r="52.20" fill="none" stroke="#37413A" stroke-width="11.60" stroke-linecap="round" stroke-linejoin="round" stroke-miterlimit="8"/><path fill="none" stroke="#37413A" stroke-width="11.60" stroke-linecap="round" stroke-linejoin="round" stroke-miterlimit="8" d="M 375.36 491.64 L 375.36 375.64 L 422.92 445.24 L 470.48 375.64 L 470.48 491.64"/><circle cx="555.16" cy="433.64" r="52.20" fill="none" stroke="#37413A" stroke-width="11.60" stroke-linecap="round" stroke-linejoin="round" stroke-miterlimit="8"/><circle cx="555.16" cy="457.65" r="9.05" fill="#BFA97C" opacity="1.0"/><circle cx="534.36" cy="421.63" r="9.05" fill="#BFA97C" opacity="1.0"/><circle cx="575.96" cy="421.63" r="9.05" fill="#BFA97C" opacity="1.0"/><circle cx="575.96" cy="445.65" r="9.05" fill="#BFA97C" opacity="1.0"/><circle cx="534.36" cy="445.65" r="9.05" fill="#BFA97C" opacity="1.0"/><circle cx="555.16" cy="409.63" r="9.05" fill="#BFA97C" opacity="1.0"/><circle cx="555.16" cy="433.64" r="9.05" fill="#BFA97C" opacity="1.0"/><circle cx="649.12" cy="433.64" r="14.50" fill="none" stroke="#37413A" stroke-width="6.38" opacity="1.0"/><text x="380.00" y="530.62" font-family="Liberation Sans, Arial, DejaVu Sans, sans-serif" font-size="17.40" font-weight="600" letter-spacing="10.79" text-anchor="middle" fill="#37413A">MARKETING</text><path fill="none" stroke="#E8E4D5" stroke-width="11.60" stroke-linecap="round" stroke-linejoin="round" stroke-miterlimit="8" d="M 792.64 375.64 L 792.64 491.64 M 792.64 381.44 L 851.80 381.44 M 792.64 433.64 L 841.41 433.64"/><circle cx="930.68" cy="433.64" r="52.20" fill="none" stroke="#E8E4D5" stroke-width="11.60" stroke-linecap="round" stroke-linejoin="round" stroke-miterlimit="8"/><path fill="none" stroke="#E8E4D5" stroke-width="11.60" stroke-linecap="round" stroke-linejoin="round" stroke-miterlimit="8" d="M 1015.36 491.64 L 1015.36 375.64 L 1062.92 445.24 L 1110.48 375.64 L 1110.48 491.64"/><circle cx="1195.16" cy="433.64" r="52.20" fill="none" stroke="#E8E4D5" stroke-width="11.60" stroke-linecap="round" stroke-linejoin="round" stroke-miterlimit="8"/><circle cx="1195.16" cy="457.65" r="9.05" fill="#BFA97C" opacity="1.0"/><circle cx="1174.36" cy="421.63" r="9.05" fill="#BFA97C" opacity="1.0"/><circle cx="1215.96" cy="421.63" r="9.05" fill="#BFA97C" opacity="1.0"/><circle cx="1215.96" cy="445.65" r="9.05" fill="#BFA97C" opacity="1.0"/><circle cx="1174.36" cy="445.65" r="9.05" fill="#BFA97C" opacity="1.0"/><circle cx="1195.16" cy="409.63" r="9.05" fill="#BFA97C" opacity="1.0"/><circle cx="1195.16" cy="433.64" r="9.05" fill="#BFA97C" opacity="1.0"/><circle cx="1289.12" cy="433.64" r="14.50" fill="none" stroke="#E8E4D5" stroke-width="6.38" opacity="1.0"/><text x="1020.00" y="530.62" font-family="Liberation Sans, Arial, DejaVu Sans, sans-serif" font-size="17.40" font-weight="600" letter-spacing="10.79" text-anchor="middle" fill="#E8E4D5">MARKETING</text><text x="110" y="720" font-family="Liberation Sans, Arial, DejaVu Sans, sans-serif" font-size="12" letter-spacing="2" fill="#aaa">HELLER UNTERGRUND</text><text x="750" y="720" font-family="Liberation Sans, Arial, DejaVu Sans, sans-serif" font-size="12" letter-spacing="2" fill="#ffffff66">DUNKLER UNTERGRUND</text><text x="80" y="782" font-family="Liberation Sans, Arial, DejaVu Sans, sans-serif" font-size="15" fill="#333">Im letzten O versammelt sich die Gruppe, ein leerer Ring steht ausserhalb – ausgeschlossen sein,</text><text x="80" y="804" font-family="Liberation Sans, Arial, DejaVu Sans, sans-serif" font-size="15" fill="#333">nicht dazugehoeren. Das Kerngefuehl von FOMO, ruhig in gedecktem Salbei und Gold erzaehlt.</text><rect x="812" y="768" width="34" height="34" rx="7" fill="#37413A" stroke="#00000022" stroke-width="1"/><text x="856" y="782" font-family="Liberation Sans, Arial, DejaVu Sans, sans-serif" font-size="13" font-weight="700" fill="#1a1a1a">PRIMAER</text><text x="856" y="798" font-family="Liberation Sans, Arial, DejaVu Sans, sans-serif" font-size="12" fill="#777">#37413A</text><rect x="940" y="768" width="34" height="34" rx="7" fill="#BFA97C" stroke="#00000022" stroke-width="1"/><text x="984" y="782" font-family="Liberation Sans, Arial, DejaVu Sans, sans-serif" font-size="13" font-weight="700" fill="#1a1a1a">AKZENT</text><text x="984" y="798" font-family="Liberation Sans, Arial, DejaVu Sans, sans-serif" font-size="12" fill="#777">#BFA97C</text><rect x="1068" y="768" width="34" height="34" rx="7" fill="#EDEAE0" stroke="#00000022" stroke-width="1"/><text x="1112" y="782" font-family="Liberation Sans, Arial, DejaVu Sans, sans-serif" font-size="13" font-weight="700" fill="#1a1a1a">HELL</text><text x="1112" y="798" font-family="Liberation Sans, Arial, DejaVu Sans, sans-serif" font-size="12" fill="#777">#EDEAE0</text><rect x="1196" y="768" width="34" height="34" rx="7" fill="#2A322C" stroke="#00000022" stroke-width="1"/><text x="1240" y="782" font-family="Liberation Sans, Arial, DejaVu Sans, sans-serif" font-size="13" font-weight="700" fill="#1a1a1a">DUNKEL</text><text x="1240" y="798" font-family="Liberation Sans, Arial, DejaVu Sans, sans-serif" font-size="12" fill="#777">#2A322C</text></svg>