<svg xmlns="http://www.w3.org/2000/svg" width="1400" height="990" viewBox="0 0 1400 990"><defs><filter id="soft" x="-20%" y="-20%" width="140%" height="140%"><feDropShadow dx="0" dy="6" stdDeviation="14" flood-color="#000" flood-opacity="0.12"/></filter></defs><rect width="1400" height="990" fill="#FBFAF7"/><text x="80" y="86" font-family="Liberation Sans, Arial, DejaVu Sans, sans-serif" font-size="20" font-weight="800" letter-spacing="4" fill="#36414C">FOMO MARKETING</text><text x="80" y="112" font-family="Liberation Sans, Arial, DejaVu Sans, sans-serif" font-size="13" letter-spacing="3" fill="#999">LOGO-KONZEPT F3 &#183; WORT + BILD</text><text x="1320" y="92" font-family="Liberation Sans, Arial, DejaVu Sans, sans-serif" font-size="42" font-weight="800" text-anchor="end" fill="#36414C">RUNNING OUT</text><text x="1320" y="116" font-family="Liberation Sans, Arial, DejaVu Sans, sans-serif" font-size="14" font-style="italic" text-anchor="end" fill="#888">Die Zeit laeuft ab</text><line x1="80" y1="138" x2="1320" y2="138" stroke="#C7B488" stroke-width="2"/><rect x="90" y="178" width="580" height="560" rx="22" fill="#EEEAE2" stroke="#0000000f" stroke-width="1.2" filter="url(#soft)"/><rect x="730" y="178" width="580" height="560" rx="22" fill="#2B333B" filter="url(#soft)"/><path fill="none" stroke="#36414C" stroke-width="11.60" stroke-linecap="round" stroke-linejoin="round" stroke-miterlimit="8" d="M 152.64 375.64 L 152.64 491.64 M 152.64 381.44 L 211.80 381.44 M 152.64 433.64 L 201.41 433.64"/><circle cx="290.68" cy="433.64" r="52.20" fill="none" stroke="#36414C" stroke-width="11.60" stroke-linecap="round" stroke-linejoin="round" stroke-miterlimit="8"/><path fill="none" stroke="#36414C" stroke-width="11.60" stroke-linecap="round" stroke-linejoin="round" stroke-miterlimit="8" d="M 375.36 491.64 L 375.36 375.64 L 422.92 445.24 L 470.48 375.64 L 470.48 491.64"/><circle cx="555.16" cy="433.64" r="52.20" fill="none" stroke="#36414C" stroke-width="11.60" stroke-linecap="round" stroke-linejoin="round" stroke-miterlimit="8"/><path d="M 534.3 407.5 L 576.0 407.5 L 555.2 433.6 L 576.0 459.7 L 534.3 459.7 L 555.2 433.6 Z" fill="none" stroke="#C7B488" stroke-width="7.2" stroke-linejoin="round"/><path d="M 538.9 413.3 L 571.4 413.3 L 555.2 432.6 Z" fill="#C7B488" opacity="0.5"/><path d="M 544.7 459.7 L 565.6 459.7 L 555.2 445.4 Z" fill="#C7B488"/><line x1="532.2" y1="407.5" x2="578.1" y2="407.5" stroke="#C7B488" stroke-width="7.2" stroke-linecap="round"/><line x1="532.2" y1="459.7" x2="578.1" y2="459.7" stroke="#C7B488" stroke-width="7.2" stroke-linecap="round"/><text x="380.00" y="530.62" font-family="Liberation Sans, Arial, DejaVu Sans, sans-serif" font-size="17.40" font-weight="600" letter-spacing="10.79" text-anchor="middle" fill="#36414C">MARKETING</text><path fill="none" stroke="#E9E4D7" stroke-width="11.60" stroke-linecap="round" stroke-linejoin="round" stroke-miterlimit="8" d="M 792.64 375.64 L 792.64 491.64 M 792.64 381.44 L 851.80 381.44 M 792.64 433.64 L 841.41 433.64"/><circle cx="930.68" cy="433.64" r="52.20" fill="none" stroke="#E9E4D7" stroke-width="11.60" stroke-linecap="round" stroke-linejoin="round" stroke-miterlimit="8"/><path fill="none" stroke="#E9E4D7" stroke-width="11.60" stroke-linecap="round" stroke-linejoin="round" stroke-miterlimit="8" d="M 1015.36 491.64 L 1015.36 375.64 L 1062.92 445.24 L 1110.48 375.64 L 1110.48 491.64"/><circle cx="1195.16" cy="433.64" r="52.20" fill="none" stroke="#E9E4D7" stroke-width="11.60" stroke-linecap="round" stroke-linejoin="round" stroke-miterlimit="8"/><path d="M 1174.3 407.5 L 1216.0 407.5 L 1195.2 433.6 L 1216.0 459.7 L 1174.3 459.7 L 1195.2 433.6 Z" fill="none" stroke="#C7B488" stroke-width="7.2" stroke-linejoin="round"/><path d="M 1178.9 413.3 L 1211.4 413.3 L 1195.2 432.6 Z" fill="#C7B488" opacity="0.5"/><path d="M 1184.7 459.7 L 1205.6 459.7 L 1195.2 445.4 Z" fill="#C7B488"/><line x1="1172.2" y1="407.5" x2="1218.1" y2="407.5" stroke="#C7B488" stroke-width="7.2" stroke-linecap="round"/><line x1="1172.2" y1="459.7" x2="1218.1" y2="459.7" stroke="#C7B488" stroke-width="7.2" stroke-linecap="round"/><text x="1020.00" y="530.62" font-family="Liberation Sans, Arial, DejaVu Sans, sans-serif" font-size="17.40" font-weight="600" letter-spacing="10.79" text-anchor="middle" fill="#E9E4D7">MARKETING</text><text x="110" y="720" font-family="Liberation Sans, Arial, DejaVu Sans, sans-serif" font-size="12" letter-spacing="2" fill="#aaa">HELLER UNTERGRUND</text><text x="750" y="720" font-family="Liberation Sans, Arial, DejaVu Sans, sans-serif" font-size="12" letter-spacing="2" fill="#ffffff66">DUNKLER UNTERGRUND</text><text x="80" y="782" font-family="Liberation Sans, Arial, DejaVu Sans, sans-serif" font-size="15" fill="#333">Eine Sanduhr im letzten O: jetzt oder nie. Dringlichkeit und ablaufende Zeit sind der Motor</text><text x="80" y="804" font-family="Liberation Sans, Arial, DejaVu Sans, sans-serif" font-size="15" fill="#333">jeder FOMO. Gedecktes Schiefer-Blau und warmer Sand wirken edel und seriös.</text><rect x="812" y="768" width="34" height="34" rx="7" fill="#36414C" stroke="#00000022" stroke-width="1"/><text x="856" y="782" font-family="Liberation Sans, Arial, DejaVu Sans, sans-serif" font-size="13" font-weight="700" fill="#1a1a1a">PRIMAER</text><text x="856" y="798" font-family="Liberation Sans, Arial, DejaVu Sans, sans-serif" font-size="12" fill="#777">#36414C</text><rect x="940" y="768" width="34" height="34" rx="7" fill="#C7B488" stroke="#00000022" stroke-width="1"/><text x="984" y="782" font-family="Liberation Sans, Arial, DejaVu Sans, sans-serif" font-size="13" font-weight="700" fill="#1a1a1a">AKZENT</text><text x="984" y="798" font-family="Liberation Sans, Arial, DejaVu Sans, sans-serif" font-size="12" fill="#777">#C7B488</text><rect x="1068" y="768" width="34" height="34" rx="7" fill="#EEEAE2" stroke="#00000022" stroke-width="1"/><text x="1112" y="782" font-family="Liberation Sans, Arial, DejaVu Sans, sans-serif" font-size="13" font-weight="700" fill="#1a1a1a">HELL</text><text x="1112" y="798" font-family="Liberation Sans, Arial, DejaVu Sans, sans-serif" font-size="12" fill="#777">#EEEAE2</text><rect x="1196" y="768" width="34" height="34" rx="7" fill="#2B333B" stroke="#00000022" stroke-width="1"/><text x="1240" y="782" font-family="Liberation Sans, Arial, DejaVu Sans, sans-serif" font-size="13" font-weight="700" fill="#1a1a1a">DUNKEL</text><text x="1240" y="798" font-family="Liberation Sans, Arial, DejaVu Sans, sans-serif" font-size="12" fill="#777">#2B333B</text></svg>