<svg xmlns="http://www.w3.org/2000/svg" width="1400" height="990" viewBox="0 0 1400 990"><defs><filter id="soft" x="-20%" y="-20%" width="140%" height="140%"><feDropShadow dx="0" dy="6" stdDeviation="14" flood-color="#000" flood-opacity="0.12"/></filter></defs><rect width="1400" height="990" fill="#FBFAF7"/><text x="80" y="86" font-family="Liberation Sans, Arial, DejaVu Sans, sans-serif" font-size="20" font-weight="800" letter-spacing="4" fill="#36414C">FOMO MARKETING</text><text x="80" y="112" font-family="Liberation Sans, Arial, DejaVu Sans, sans-serif" font-size="13" letter-spacing="3" fill="#999">LOGO-KONZEPT F3 &#183; WORT + BILD</text><text x="1320" y="92" font-family="Liberation Sans, Arial, DejaVu Sans, sans-serif" font-size="42" font-weight="800" text-anchor="end" fill="#36414C">RUNNING OUT</text><text x="1320" y="116" font-family="Liberation Sans, Arial, DejaVu Sans, sans-serif" font-size="14" font-style="italic" text-anchor="end" fill="#888">Die Zeit laeuft ab</text><line x1="80" y1="138" x2="1320" y2="138" stroke="#C7B488" stroke-width="2"/><rect x="90" y="178" width="580" height="560" rx="22" fill="#EEEAE2" stroke="#0000000f" stroke-width="1.2" filter="url(#soft)"/><rect x="730" y="178" width="580" height="560" rx="22" fill="#2B333B" filter="url(#soft)"/><path fill="none" stroke="#36414C" stroke-width="15.66" stroke-linecap="butt" stroke-linejoin="miter" stroke-miterlimit="8" d="M 154.67 375.64 L 154.67 491.64 M 154.67 383.47 L 211.80 383.47 M 154.67 433.64 L 201.41 433.64"/><circle cx="290.68" cy="433.64" r="50.17" fill="none" stroke="#36414C" stroke-width="15.66" stroke-linecap="butt" stroke-linejoin="miter" stroke-miterlimit="8"/><path fill="none" stroke="#36414C" stroke-width="15.66" stroke-linecap="butt" stroke-linejoin="miter" stroke-miterlimit="8" d="M 377.39 491.64 L 377.39 375.64 L 422.92 470.76 L 468.45 375.64 L 468.45 491.64"/><circle cx="555.16" cy="433.64" r="50.17" fill="none" stroke="#36414C" stroke-width="15.66" stroke-linecap="butt" stroke-linejoin="miter" stroke-miterlimit="8"/><path d="M 535.1 408.6 L 575.2 408.6 L 555.2 433.6 L 575.2 458.7 L 535.1 458.7 L 555.2 433.6 Z" fill="none" stroke="#C7B488" stroke-width="9.7" stroke-linejoin="round"/><path d="M 539.5 414.1 L 570.8 414.1 L 555.2 432.6 Z" fill="#C7B488" opacity="0.5"/><path d="M 545.1 458.7 L 565.2 458.7 L 555.2 444.9 Z" fill="#C7B488"/><line x1="533.1" y1="408.6" x2="577.2" y2="408.6" stroke="#C7B488" stroke-width="9.7" stroke-linecap="butt"/><line x1="533.1" y1="458.7" x2="577.2" y2="458.7" stroke="#C7B488" stroke-width="9.7" stroke-linecap="butt"/><text x="380.00" y="530.62" font-family="Liberation Sans, Arial, DejaVu Sans, sans-serif" font-size="17.40" font-weight="600" letter-spacing="10.79" text-anchor="middle" fill="#36414C">MARKETING</text><path fill="none" stroke="#E9E4D7" stroke-width="15.66" stroke-linecap="butt" stroke-linejoin="miter" stroke-miterlimit="8" d="M 794.67 375.64 L 794.67 491.64 M 794.67 383.47 L 851.80 383.47 M 794.67 433.64 L 841.41 433.64"/><circle cx="930.68" cy="433.64" r="50.17" fill="none" stroke="#E9E4D7" stroke-width="15.66" stroke-linecap="butt" stroke-linejoin="miter" stroke-miterlimit="8"/><path fill="none" stroke="#E9E4D7" stroke-width="15.66" stroke-linecap="butt" stroke-linejoin="miter" stroke-miterlimit="8" d="M 1017.39 491.64 L 1017.39 375.64 L 1062.92 470.76 L 1108.45 375.64 L 1108.45 491.64"/><circle cx="1195.16" cy="433.64" r="50.17" fill="none" stroke="#E9E4D7" stroke-width="15.66" stroke-linecap="butt" stroke-linejoin="miter" stroke-miterlimit="8"/><path d="M 1175.1 408.6 L 1215.2 408.6 L 1195.2 433.6 L 1215.2 458.7 L 1175.1 458.7 L 1195.2 433.6 Z" fill="none" stroke="#C7B488" stroke-width="9.7" stroke-linejoin="round"/><path d="M 1179.5 414.1 L 1210.8 414.1 L 1195.2 432.6 Z" fill="#C7B488" opacity="0.5"/><path d="M 1185.1 458.7 L 1205.2 458.7 L 1195.2 444.9 Z" fill="#C7B488"/><line x1="1173.1" y1="408.6" x2="1217.2" y2="408.6" stroke="#C7B488" stroke-width="9.7" stroke-linecap="butt"/><line x1="1173.1" y1="458.7" x2="1217.2" y2="458.7" stroke="#C7B488" stroke-width="9.7" stroke-linecap="butt"/><text x="1020.00" y="530.62" font-family="Liberation Sans, Arial, DejaVu Sans, sans-serif" font-size="17.40" font-weight="600" letter-spacing="10.79" text-anchor="middle" fill="#E9E4D7">MARKETING</text><text x="110" y="720" font-family="Liberation Sans, Arial, DejaVu Sans, sans-serif" font-size="12" letter-spacing="2" fill="#aaa">HELLER UNTERGRUND</text><text x="750" y="720" font-family="Liberation Sans, Arial, DejaVu Sans, sans-serif" font-size="12" letter-spacing="2" fill="#ffffff66">DUNKLER UNTERGRUND</text><text x="80" y="782" font-family="Liberation Sans, Arial, DejaVu Sans, sans-serif" font-size="15" fill="#333">Eine Sanduhr im letzten O: jetzt oder nie. Dringlichkeit und ablaufende Zeit sind der Motor</text><text x="80" y="804" font-family="Liberation Sans, Arial, DejaVu Sans, sans-serif" font-size="15" fill="#333">jeder FOMO. Gedecktes Schiefer-Blau und warmer Sand wirken edel und seriös.</text><rect x="812" y="768" width="34" height="34" rx="7" fill="#36414C" stroke="#00000022" stroke-width="1"/><text x="856" y="782" font-family="Liberation Sans, Arial, DejaVu Sans, sans-serif" font-size="13" font-weight="700" fill="#1a1a1a">PRIMAER</text><text x="856" y="798" font-family="Liberation Sans, Arial, DejaVu Sans, sans-serif" font-size="12" fill="#777">#36414C</text><rect x="940" y="768" width="34" height="34" rx="7" fill="#C7B488" stroke="#00000022" stroke-width="1"/><text x="984" y="782" font-family="Liberation Sans, Arial, DejaVu Sans, sans-serif" font-size="13" font-weight="700" fill="#1a1a1a">AKZENT</text><text x="984" y="798" font-family="Liberation Sans, Arial, DejaVu Sans, sans-serif" font-size="12" fill="#777">#C7B488</text><rect x="1068" y="768" width="34" height="34" rx="7" fill="#EEEAE2" stroke="#00000022" stroke-width="1"/><text x="1112" y="782" font-family="Liberation Sans, Arial, DejaVu Sans, sans-serif" font-size="13" font-weight="700" fill="#1a1a1a">HELL</text><text x="1112" y="798" font-family="Liberation Sans, Arial, DejaVu Sans, sans-serif" font-size="12" fill="#777">#EEEAE2</text><rect x="1196" y="768" width="34" height="34" rx="7" fill="#2B333B" stroke="#00000022" stroke-width="1"/><text x="1240" y="782" font-family="Liberation Sans, Arial, DejaVu Sans, sans-serif" font-size="13" font-weight="700" fill="#1a1a1a">DUNKEL</text><text x="1240" y="798" font-family="Liberation Sans, Arial, DejaVu Sans, sans-serif" font-size="12" fill="#777">#2B333B</text></svg>