<svg xmlns="http://www.w3.org/2000/svg" width="1400" height="990" viewBox="0 0 1400 990"><defs><filter id="soft" x="-20%" y="-20%" width="140%" height="140%"><feDropShadow dx="0" dy="6" stdDeviation="14" flood-color="#000" flood-opacity="0.12"/></filter></defs><rect width="1400" height="990" fill="#FBFAF7"/><text x="80" y="86" font-family="Liberation Sans, Arial, DejaVu Sans, sans-serif" font-size="20" font-weight="800" letter-spacing="4" fill="#3C3038">FOMO MARKETING</text><text x="80" y="112" font-family="Liberation Sans, Arial, DejaVu Sans, sans-serif" font-size="13" letter-spacing="3" fill="#999">LOGO-KONZEPT F4 &#183; WORT + BILD</text><text x="1320" y="92" font-family="Liberation Sans, Arial, DejaVu Sans, sans-serif" font-size="42" font-weight="800" text-anchor="end" fill="#3C3038">FADING</text><text x="1320" y="116" font-family="Liberation Sans, Arial, DejaVu Sans, sans-serif" font-size="14" font-style="italic" text-anchor="end" fill="#888">Der Moment verfliegt</text><line x1="80" y1="138" x2="1320" y2="138" stroke="#C2A07F" stroke-width="2"/><rect x="90" y="178" width="580" height="560" rx="22" fill="#EFEAE6" stroke="#0000000f" stroke-width="1.2" filter="url(#soft)"/><rect x="730" y="178" width="580" height="560" rx="22" fill="#2E252B" filter="url(#soft)"/><path fill="none" stroke="#3C3038" stroke-width="11.60" stroke-linecap="round" stroke-linejoin="round" stroke-miterlimit="8" d="M 152.64 375.64 L 152.64 491.64 M 152.64 381.44 L 211.80 381.44 M 152.64 433.64 L 201.41 433.64"/><circle cx="290.68" cy="433.64" r="52.20" fill="none" stroke="#3C3038" stroke-width="11.60" stroke-linecap="round" stroke-linejoin="round" stroke-miterlimit="8"/><path fill="none" stroke="#3C3038" stroke-width="11.60" stroke-linecap="round" stroke-linejoin="round" stroke-miterlimit="8" d="M 375.36 491.64 L 375.36 375.64 L 422.92 445.24 L 470.48 375.64 L 470.48 491.64"/><circle cx="555.16" cy="433.64" r="52.20" fill="none" stroke="#3C3038" stroke-width="11.60" stroke-linecap="round" stroke-linejoin="round" stroke-miterlimit="8"/><circle cx="600.16" cy="393.12" r="10.44" fill="#3C3038" opacity="0.85"/><circle cx="603.10" cy="378.49" r="8.35" fill="#3C3038" opacity="0.62"/><circle cx="603.62" cy="361.80" r="6.38" fill="#3C3038" opacity="0.45"/><circle cx="601.37" cy="342.94" r="4.87" fill="#3C3038" opacity="0.32"/><circle cx="595.87" cy="321.80" r="3.71" fill="#3C3038" opacity="0.22"/><text x="380.00" y="530.62" font-family="Liberation Sans, Arial, DejaVu Sans, sans-serif" font-size="17.40" font-weight="600" letter-spacing="10.79" text-anchor="middle" fill="#3C3038">MARKETING</text><path fill="none" stroke="#ECE2DE" stroke-width="11.60" stroke-linecap="round" stroke-linejoin="round" stroke-miterlimit="8" d="M 792.64 375.64 L 792.64 491.64 M 792.64 381.44 L 851.80 381.44 M 792.64 433.64 L 841.41 433.64"/><circle cx="930.68" cy="433.64" r="52.20" fill="none" stroke="#ECE2DE" stroke-width="11.60" stroke-linecap="round" stroke-linejoin="round" stroke-miterlimit="8"/><path fill="none" stroke="#ECE2DE" stroke-width="11.60" stroke-linecap="round" stroke-linejoin="round" stroke-miterlimit="8" d="M 1015.36 491.64 L 1015.36 375.64 L 1062.92 445.24 L 1110.48 375.64 L 1110.48 491.64"/><circle cx="1195.16" cy="433.64" r="52.20" fill="none" stroke="#ECE2DE" stroke-width="11.60" stroke-linecap="round" stroke-linejoin="round" stroke-miterlimit="8"/><circle cx="1240.16" cy="393.12" r="10.44" fill="#ECE2DE" opacity="0.85"/><circle cx="1243.10" cy="378.49" r="8.35" fill="#ECE2DE" opacity="0.62"/><circle cx="1243.62" cy="361.80" r="6.38" fill="#ECE2DE" opacity="0.45"/><circle cx="1241.37" cy="342.94" r="4.87" fill="#ECE2DE" opacity="0.32"/><circle cx="1235.87" cy="321.80" r="3.71" fill="#ECE2DE" opacity="0.22"/><text x="1020.00" y="530.62" font-family="Liberation Sans, Arial, DejaVu Sans, sans-serif" font-size="17.40" font-weight="600" letter-spacing="10.79" text-anchor="middle" fill="#ECE2DE">MARKETING</text><text x="110" y="720" font-family="Liberation Sans, Arial, DejaVu Sans, sans-serif" font-size="12" letter-spacing="2" fill="#aaa">HELLER UNTERGRUND</text><text x="750" y="720" font-family="Liberation Sans, Arial, DejaVu Sans, sans-serif" font-size="12" letter-spacing="2" fill="#ffffff66">DUNKLER UNTERGRUND</text><text x="80" y="782" font-family="Liberation Sans, Arial, DejaVu Sans, sans-serif" font-size="15" fill="#333">Vom letzten O steigen feine Partikel auf und vergehen – der Moment, der dir gerade entgleitet.</text><text x="80" y="804" font-family="Liberation Sans, Arial, DejaVu Sans, sans-serif" font-size="15" fill="#333">Das O bleibt klar lesbar, das Verpassen wird leise spuerbar. Gedecktes Pflaume und Rosé-Gold,</text><text x="80" y="826" font-family="Liberation Sans, Arial, DejaVu Sans, sans-serif" font-size="15" fill="#333">sehr zurueckhaltend.</text><rect x="812" y="768" width="34" height="34" rx="7" fill="#3C3038" stroke="#00000022" stroke-width="1"/><text x="856" y="782" font-family="Liberation Sans, Arial, DejaVu Sans, sans-serif" font-size="13" font-weight="700" fill="#1a1a1a">PRIMAER</text><text x="856" y="798" font-family="Liberation Sans, Arial, DejaVu Sans, sans-serif" font-size="12" fill="#777">#3C3038</text><rect x="940" y="768" width="34" height="34" rx="7" fill="#C2A07F" stroke="#00000022" stroke-width="1"/><text x="984" y="782" font-family="Liberation Sans, Arial, DejaVu Sans, sans-serif" font-size="13" font-weight="700" fill="#1a1a1a">AKZENT</text><text x="984" y="798" font-family="Liberation Sans, Arial, DejaVu Sans, sans-serif" font-size="12" fill="#777">#C2A07F</text><rect x="1068" y="768" width="34" height="34" rx="7" fill="#EFEAE6" stroke="#00000022" stroke-width="1"/><text x="1112" y="782" font-family="Liberation Sans, Arial, DejaVu Sans, sans-serif" font-size="13" font-weight="700" fill="#1a1a1a">HELL</text><text x="1112" y="798" font-family="Liberation Sans, Arial, DejaVu Sans, sans-serif" font-size="12" fill="#777">#EFEAE6</text><rect x="1196" y="768" width="34" height="34" rx="7" fill="#2E252B" stroke="#00000022" stroke-width="1"/><text x="1240" y="782" font-family="Liberation Sans, Arial, DejaVu Sans, sans-serif" font-size="13" font-weight="700" fill="#1a1a1a">DUNKEL</text><text x="1240" y="798" font-family="Liberation Sans, Arial, DejaVu Sans, sans-serif" font-size="12" fill="#777">#2E252B</text></svg>