<svg xmlns="http://www.w3.org/2000/svg" width="1400" height="990" viewBox="0 0 1400 990"><defs><filter id="soft" x="-20%" y="-20%" width="140%" height="140%"><feDropShadow dx="0" dy="6" stdDeviation="14" flood-color="#000" flood-opacity="0.12"/></filter></defs><rect width="1400" height="990" fill="#FBFAF7"/><text x="80" y="86" font-family="Liberation Sans, Arial, DejaVu Sans, sans-serif" font-size="20" font-weight="800" letter-spacing="4" fill="#3C3038">FOMO MARKETING</text><text x="80" y="112" font-family="Liberation Sans, Arial, DejaVu Sans, sans-serif" font-size="13" letter-spacing="3" fill="#999">LOGO-KONZEPT F4 &#183; WORT + BILD</text><text x="1320" y="92" font-family="Liberation Sans, Arial, DejaVu Sans, sans-serif" font-size="42" font-weight="800" text-anchor="end" fill="#3C3038">FADING</text><text x="1320" y="116" font-family="Liberation Sans, Arial, DejaVu Sans, sans-serif" font-size="14" font-style="italic" text-anchor="end" fill="#888">Der Moment verfliegt</text><line x1="80" y1="138" x2="1320" y2="138" stroke="#C2A07F" stroke-width="2"/><rect x="90" y="178" width="580" height="560" rx="22" fill="#EFEAE6" stroke="#0000000f" stroke-width="1.2" filter="url(#soft)"/><rect x="730" y="178" width="580" height="560" rx="22" fill="#2E252B" filter="url(#soft)"/><path fill="none" stroke="#3C3038" stroke-width="15.66" stroke-linecap="butt" stroke-linejoin="miter" stroke-miterlimit="8" d="M 154.67 375.64 L 154.67 491.64 M 154.67 383.47 L 211.80 383.47 M 154.67 433.64 L 201.41 433.64"/><circle cx="290.68" cy="433.64" r="50.17" fill="none" stroke="#3C3038" stroke-width="15.66" stroke-linecap="butt" stroke-linejoin="miter" stroke-miterlimit="8"/><path fill="none" stroke="#3C3038" stroke-width="15.66" stroke-linecap="butt" stroke-linejoin="miter" stroke-miterlimit="8" d="M 377.39 491.64 L 377.39 375.64 L 422.92 470.76 L 468.45 375.64 L 468.45 491.64"/><circle cx="555.16" cy="433.64" r="50.17" fill="none" stroke="#3C3038" stroke-width="15.66" stroke-linecap="butt" stroke-linejoin="miter" stroke-miterlimit="8"/><circle cx="598.41" cy="394.70" r="14.09" fill="#3C3038" opacity="0.85"/><circle cx="601.24" cy="380.63" r="11.28" fill="#3C3038" opacity="0.62"/><circle cx="601.73" cy="364.60" r="8.61" fill="#3C3038" opacity="0.45"/><circle cx="599.57" cy="346.47" r="6.58" fill="#3C3038" opacity="0.32"/><circle cx="594.28" cy="326.15" r="5.01" fill="#3C3038" opacity="0.22"/><text x="380.00" y="530.62" font-family="Liberation Sans, Arial, DejaVu Sans, sans-serif" font-size="17.40" font-weight="600" letter-spacing="10.79" text-anchor="middle" fill="#3C3038">MARKETING</text><path fill="none" stroke="#ECE2DE" stroke-width="15.66" stroke-linecap="butt" stroke-linejoin="miter" stroke-miterlimit="8" d="M 794.67 375.64 L 794.67 491.64 M 794.67 383.47 L 851.80 383.47 M 794.67 433.64 L 841.41 433.64"/><circle cx="930.68" cy="433.64" r="50.17" fill="none" stroke="#ECE2DE" stroke-width="15.66" stroke-linecap="butt" stroke-linejoin="miter" stroke-miterlimit="8"/><path fill="none" stroke="#ECE2DE" stroke-width="15.66" stroke-linecap="butt" stroke-linejoin="miter" stroke-miterlimit="8" d="M 1017.39 491.64 L 1017.39 375.64 L 1062.92 470.76 L 1108.45 375.64 L 1108.45 491.64"/><circle cx="1195.16" cy="433.64" r="50.17" fill="none" stroke="#ECE2DE" stroke-width="15.66" stroke-linecap="butt" stroke-linejoin="miter" stroke-miterlimit="8"/><circle cx="1238.41" cy="394.70" r="14.09" fill="#ECE2DE" opacity="0.85"/><circle cx="1241.24" cy="380.63" r="11.28" fill="#ECE2DE" opacity="0.62"/><circle cx="1241.73" cy="364.60" r="8.61" fill="#ECE2DE" opacity="0.45"/><circle cx="1239.57" cy="346.47" r="6.58" fill="#ECE2DE" opacity="0.32"/><circle cx="1234.28" cy="326.15" r="5.01" fill="#ECE2DE" opacity="0.22"/><text x="1020.00" y="530.62" font-family="Liberation Sans, Arial, DejaVu Sans, sans-serif" font-size="17.40" font-weight="600" letter-spacing="10.79" text-anchor="middle" fill="#ECE2DE">MARKETING</text><text x="110" y="720" font-family="Liberation Sans, Arial, DejaVu Sans, sans-serif" font-size="12" letter-spacing="2" fill="#aaa">HELLER UNTERGRUND</text><text x="750" y="720" font-family="Liberation Sans, Arial, DejaVu Sans, sans-serif" font-size="12" letter-spacing="2" fill="#ffffff66">DUNKLER UNTERGRUND</text><text x="80" y="782" font-family="Liberation Sans, Arial, DejaVu Sans, sans-serif" font-size="15" fill="#333">Vom letzten O steigen feine Partikel auf und vergehen – der Moment, der dir gerade entgleitet.</text><text x="80" y="804" font-family="Liberation Sans, Arial, DejaVu Sans, sans-serif" font-size="15" fill="#333">Das O bleibt klar lesbar, das Verpassen wird leise spuerbar. Gedecktes Pflaume und Rosé-Gold,</text><text x="80" y="826" font-family="Liberation Sans, Arial, DejaVu Sans, sans-serif" font-size="15" fill="#333">sehr zurueckhaltend.</text><rect x="812" y="768" width="34" height="34" rx="7" fill="#3C3038" stroke="#00000022" stroke-width="1"/><text x="856" y="782" font-family="Liberation Sans, Arial, DejaVu Sans, sans-serif" font-size="13" font-weight="700" fill="#1a1a1a">PRIMAER</text><text x="856" y="798" font-family="Liberation Sans, Arial, DejaVu Sans, sans-serif" font-size="12" fill="#777">#3C3038</text><rect x="940" y="768" width="34" height="34" rx="7" fill="#C2A07F" stroke="#00000022" stroke-width="1"/><text x="984" y="782" font-family="Liberation Sans, Arial, DejaVu Sans, sans-serif" font-size="13" font-weight="700" fill="#1a1a1a">AKZENT</text><text x="984" y="798" font-family="Liberation Sans, Arial, DejaVu Sans, sans-serif" font-size="12" fill="#777">#C2A07F</text><rect x="1068" y="768" width="34" height="34" rx="7" fill="#EFEAE6" stroke="#00000022" stroke-width="1"/><text x="1112" y="782" font-family="Liberation Sans, Arial, DejaVu Sans, sans-serif" font-size="13" font-weight="700" fill="#1a1a1a">HELL</text><text x="1112" y="798" font-family="Liberation Sans, Arial, DejaVu Sans, sans-serif" font-size="12" fill="#777">#EFEAE6</text><rect x="1196" y="768" width="34" height="34" rx="7" fill="#2E252B" stroke="#00000022" stroke-width="1"/><text x="1240" y="782" font-family="Liberation Sans, Arial, DejaVu Sans, sans-serif" font-size="13" font-weight="700" fill="#1a1a1a">DUNKEL</text><text x="1240" y="798" font-family="Liberation Sans, Arial, DejaVu Sans, sans-serif" font-size="12" fill="#777">#2E252B</text></svg>