<svg xmlns="http://www.w3.org/2000/svg" width="1400" height="990" viewBox="0 0 1400 990"><defs><filter id="soft" x="-20%" y="-20%" width="140%" height="140%"><feDropShadow dx="0" dy="6" stdDeviation="14" flood-color="#000" flood-opacity="0.12"/></filter></defs><rect width="1400" height="990" fill="#FBFAF7"/><text x="80" y="86" font-family="Liberation Sans, Arial, DejaVu Sans, sans-serif" font-size="20" font-weight="800" letter-spacing="4" fill="#2E3239">FOMO MARKETING</text><text x="80" y="112" font-family="Liberation Sans, Arial, DejaVu Sans, sans-serif" font-size="13" letter-spacing="3" fill="#999">LOGO-KONZEPT F5 &#183; WORT + BILD</text><text x="1320" y="92" font-family="Liberation Sans, Arial, DejaVu Sans, sans-serif" font-size="42" font-weight="800" text-anchor="end" fill="#2E3239">THE PULL</text><text x="1320" y="116" font-family="Liberation Sans, Arial, DejaVu Sans, sans-serif" font-size="14" font-style="italic" text-anchor="end" fill="#888">Der Sog, dabei zu sein</text><line x1="80" y1="138" x2="1320" y2="138" stroke="#C3AC82" stroke-width="2"/><rect x="90" y="178" width="580" height="560" rx="22" fill="#EEEBE4" stroke="#0000000f" stroke-width="1.2" filter="url(#soft)"/><rect x="730" y="178" width="580" height="560" rx="22" fill="#262A30" filter="url(#soft)"/><path fill="none" stroke="#2E3239" stroke-width="15.66" stroke-linecap="butt" stroke-linejoin="miter" stroke-miterlimit="8" d="M 154.67 375.64 L 154.67 491.64 M 154.67 383.47 L 211.80 383.47 M 154.67 433.64 L 201.41 433.64"/><circle cx="290.68" cy="433.64" r="50.17" fill="none" stroke="#2E3239" stroke-width="15.66" stroke-linecap="butt" stroke-linejoin="miter" stroke-miterlimit="8"/><path fill="none" stroke="#2E3239" stroke-width="15.66" stroke-linecap="butt" stroke-linejoin="miter" stroke-miterlimit="8" d="M 377.39 491.64 L 377.39 375.64 L 422.92 470.76 L 468.45 375.64 L 468.45 491.64"/><circle cx="555.16" cy="433.64" r="50.17" fill="none" stroke="#2E3239" stroke-width="15.66" stroke-linecap="butt" stroke-linejoin="miter" stroke-miterlimit="8"/><path d="M 567.7 331.9 L 555.2 367.4 L 542.7 331.9" fill="none" stroke="#C3AC82" stroke-width="9.4" stroke-linecap="butt" stroke-linejoin="round"/><path d="M 656.9 446.1 L 621.4 433.6 L 656.9 421.1" fill="none" stroke="#C3AC82" stroke-width="9.4" stroke-linecap="butt" stroke-linejoin="round"/><path d="M 542.7 535.4 L 555.2 499.9 L 567.7 535.4" fill="none" stroke="#C3AC82" stroke-width="9.4" stroke-linecap="butt" stroke-linejoin="round"/><path d="M 453.4 421.1 L 488.9 433.6 L 453.4 446.1" fill="none" stroke="#C3AC82" stroke-width="9.4" stroke-linecap="butt" stroke-linejoin="round"/><text x="380.00" y="530.62" font-family="Liberation Sans, Arial, DejaVu Sans, sans-serif" font-size="17.40" font-weight="600" letter-spacing="10.79" text-anchor="middle" fill="#2E3239">MARKETING</text><path fill="none" stroke="#E9E5DB" stroke-width="15.66" stroke-linecap="butt" stroke-linejoin="miter" stroke-miterlimit="8" d="M 794.67 375.64 L 794.67 491.64 M 794.67 383.47 L 851.80 383.47 M 794.67 433.64 L 841.41 433.64"/><circle cx="930.68" cy="433.64" r="50.17" fill="none" stroke="#E9E5DB" stroke-width="15.66" stroke-linecap="butt" stroke-linejoin="miter" stroke-miterlimit="8"/><path fill="none" stroke="#E9E5DB" stroke-width="15.66" stroke-linecap="butt" stroke-linejoin="miter" stroke-miterlimit="8" d="M 1017.39 491.64 L 1017.39 375.64 L 1062.92 470.76 L 1108.45 375.64 L 1108.45 491.64"/><circle cx="1195.16" cy="433.64" r="50.17" fill="none" stroke="#E9E5DB" stroke-width="15.66" stroke-linecap="butt" stroke-linejoin="miter" stroke-miterlimit="8"/><path d="M 1207.7 331.9 L 1195.2 367.4 L 1182.7 331.9" fill="none" stroke="#C3AC82" stroke-width="9.4" stroke-linecap="butt" stroke-linejoin="round"/><path d="M 1296.9 446.1 L 1261.4 433.6 L 1296.9 421.1" fill="none" stroke="#C3AC82" stroke-width="9.4" stroke-linecap="butt" stroke-linejoin="round"/><path d="M 1182.7 535.4 L 1195.2 499.9 L 1207.7 535.4" fill="none" stroke="#C3AC82" stroke-width="9.4" stroke-linecap="butt" stroke-linejoin="round"/><path d="M 1093.4 421.1 L 1128.9 433.6 L 1093.4 446.1" fill="none" stroke="#C3AC82" stroke-width="9.4" stroke-linecap="butt" stroke-linejoin="round"/><text x="1020.00" y="530.62" font-family="Liberation Sans, Arial, DejaVu Sans, sans-serif" font-size="17.40" font-weight="600" letter-spacing="10.79" text-anchor="middle" fill="#E9E5DB">MARKETING</text><text x="110" y="720" font-family="Liberation Sans, Arial, DejaVu Sans, sans-serif" font-size="12" letter-spacing="2" fill="#aaa">HELLER UNTERGRUND</text><text x="750" y="720" font-family="Liberation Sans, Arial, DejaVu Sans, sans-serif" font-size="12" letter-spacing="2" fill="#ffffff66">DUNKLER UNTERGRUND</text><text x="80" y="782" font-family="Liberation Sans, Arial, DejaVu Sans, sans-serif" font-size="15" fill="#333">Vier feine Pfeile ziehen zum letzten O hin – der Sog, Teil davon sein zu wollen. FOMO als</text><text x="80" y="804" font-family="Liberation Sans, Arial, DejaVu Sans, sans-serif" font-size="15" fill="#333">Anziehung. Reduziert, edel, in gedecktem Schiefer und weichem Messing.</text><rect x="812" y="768" width="34" height="34" rx="7" fill="#2E3239" stroke="#00000022" stroke-width="1"/><text x="856" y="782" font-family="Liberation Sans, Arial, DejaVu Sans, sans-serif" font-size="13" font-weight="700" fill="#1a1a1a">PRIMAER</text><text x="856" y="798" font-family="Liberation Sans, Arial, DejaVu Sans, sans-serif" font-size="12" fill="#777">#2E3239</text><rect x="940" y="768" width="34" height="34" rx="7" fill="#C3AC82" stroke="#00000022" stroke-width="1"/><text x="984" y="782" font-family="Liberation Sans, Arial, DejaVu Sans, sans-serif" font-size="13" font-weight="700" fill="#1a1a1a">AKZENT</text><text x="984" y="798" font-family="Liberation Sans, Arial, DejaVu Sans, sans-serif" font-size="12" fill="#777">#C3AC82</text><rect x="1068" y="768" width="34" height="34" rx="7" fill="#EEEBE4" stroke="#00000022" stroke-width="1"/><text x="1112" y="782" font-family="Liberation Sans, Arial, DejaVu Sans, sans-serif" font-size="13" font-weight="700" fill="#1a1a1a">HELL</text><text x="1112" y="798" font-family="Liberation Sans, Arial, DejaVu Sans, sans-serif" font-size="12" fill="#777">#EEEBE4</text><rect x="1196" y="768" width="34" height="34" rx="7" fill="#262A30" stroke="#00000022" stroke-width="1"/><text x="1240" y="782" font-family="Liberation Sans, Arial, DejaVu Sans, sans-serif" font-size="13" font-weight="700" fill="#1a1a1a">DUNKEL</text><text x="1240" y="798" font-family="Liberation Sans, Arial, DejaVu Sans, sans-serif" font-size="12" fill="#777">#262A30</text></svg>