<svg xmlns="http://www.w3.org/2000/svg" width="1400" height="990" viewBox="0 0 1400 990"><defs><filter id="soft" x="-20%" y="-20%" width="140%" height="140%"><feDropShadow dx="0" dy="6" stdDeviation="14" flood-color="#000" flood-opacity="0.12"/></filter></defs><rect width="1400" height="990" fill="#FBFAF7"/><text x="80" y="86" font-family="Liberation Sans, Arial, DejaVu Sans, sans-serif" font-size="20" font-weight="800" letter-spacing="4" fill="#2F2E2B">FOMO MARKETING</text><text x="80" y="112" font-family="Liberation Sans, Arial, DejaVu Sans, sans-serif" font-size="13" letter-spacing="3" fill="#999">LOGO-KONZEPT F6 &#183; WORT + BILD</text><text x="1320" y="92" font-family="Liberation Sans, Arial, DejaVu Sans, sans-serif" font-size="42" font-weight="800" text-anchor="end" fill="#2F2E2B">ALERT</text><text x="1320" y="116" font-family="Liberation Sans, Arial, DejaVu Sans, sans-serif" font-size="14" font-style="italic" text-anchor="end" fill="#888">Es passiert gerade etwas</text><line x1="80" y1="138" x2="1320" y2="138" stroke="#C19A6B" stroke-width="2"/><rect x="90" y="178" width="580" height="560" rx="22" fill="#F1ECE4" stroke="#0000000f" stroke-width="1.2" filter="url(#soft)"/><rect x="730" y="178" width="580" height="560" rx="22" fill="#2A2825" filter="url(#soft)"/><path fill="none" stroke="#2F2E2B" stroke-width="15.66" stroke-linecap="butt" stroke-linejoin="miter" stroke-miterlimit="8" d="M 154.67 375.64 L 154.67 491.64 M 154.67 383.47 L 211.80 383.47 M 154.67 433.64 L 201.41 433.64"/><circle cx="290.68" cy="433.64" r="50.17" fill="none" stroke="#2F2E2B" stroke-width="15.66" stroke-linecap="butt" stroke-linejoin="miter" stroke-miterlimit="8"/><path fill="none" stroke="#2F2E2B" stroke-width="15.66" stroke-linecap="butt" stroke-linejoin="miter" stroke-miterlimit="8" d="M 377.39 491.64 L 377.39 375.64 L 422.92 470.76 L 468.45 375.64 L 468.45 491.64"/><circle cx="555.16" cy="433.64" r="50.17" fill="none" stroke="#2F2E2B" stroke-width="15.66" stroke-linecap="butt" stroke-linejoin="miter" stroke-miterlimit="8"/><circle cx="591.28" cy="397.52" r="29.84" fill="#F1ECE4" opacity="1.0"/><circle cx="591.28" cy="397.52" r="25.84" fill="#C19A6B" opacity="1.0"/><text x="380.00" y="530.62" font-family="Liberation Sans, Arial, DejaVu Sans, sans-serif" font-size="17.40" font-weight="600" letter-spacing="10.79" text-anchor="middle" fill="#2F2E2B">MARKETING</text><path fill="none" stroke="#EDE6D8" stroke-width="15.66" stroke-linecap="butt" stroke-linejoin="miter" stroke-miterlimit="8" d="M 794.67 375.64 L 794.67 491.64 M 794.67 383.47 L 851.80 383.47 M 794.67 433.64 L 841.41 433.64"/><circle cx="930.68" cy="433.64" r="50.17" fill="none" stroke="#EDE6D8" stroke-width="15.66" stroke-linecap="butt" stroke-linejoin="miter" stroke-miterlimit="8"/><path fill="none" stroke="#EDE6D8" stroke-width="15.66" stroke-linecap="butt" stroke-linejoin="miter" stroke-miterlimit="8" d="M 1017.39 491.64 L 1017.39 375.64 L 1062.92 470.76 L 1108.45 375.64 L 1108.45 491.64"/><circle cx="1195.16" cy="433.64" r="50.17" fill="none" stroke="#EDE6D8" stroke-width="15.66" stroke-linecap="butt" stroke-linejoin="miter" stroke-miterlimit="8"/><circle cx="1231.28" cy="397.52" r="29.84" fill="#2A2825" opacity="1.0"/><circle cx="1231.28" cy="397.52" r="25.84" fill="#C19A6B" opacity="1.0"/><text x="1020.00" y="530.62" font-family="Liberation Sans, Arial, DejaVu Sans, sans-serif" font-size="17.40" font-weight="600" letter-spacing="10.79" text-anchor="middle" fill="#EDE6D8">MARKETING</text><text x="110" y="720" font-family="Liberation Sans, Arial, DejaVu Sans, sans-serif" font-size="12" letter-spacing="2" fill="#aaa">HELLER UNTERGRUND</text><text x="750" y="720" font-family="Liberation Sans, Arial, DejaVu Sans, sans-serif" font-size="12" letter-spacing="2" fill="#ffffff66">DUNKLER UNTERGRUND</text><text x="80" y="782" font-family="Liberation Sans, Arial, DejaVu Sans, sans-serif" font-size="15" fill="#333">Ein gedeckter Signalpunkt am letzten O: da draussen passiert gerade etwas, sei dabei. Die</text><text x="80" y="804" font-family="Liberation Sans, Arial, DejaVu Sans, sans-serif" font-size="15" fill="#333">vertraute Notification – aber in einem warmen, edlen Bernsteinton statt grellem Rot.</text><rect x="812" y="768" width="34" height="34" rx="7" fill="#2F2E2B" stroke="#00000022" stroke-width="1"/><text x="856" y="782" font-family="Liberation Sans, Arial, DejaVu Sans, sans-serif" font-size="13" font-weight="700" fill="#1a1a1a">PRIMAER</text><text x="856" y="798" font-family="Liberation Sans, Arial, DejaVu Sans, sans-serif" font-size="12" fill="#777">#2F2E2B</text><rect x="940" y="768" width="34" height="34" rx="7" fill="#C19A6B" stroke="#00000022" stroke-width="1"/><text x="984" y="782" font-family="Liberation Sans, Arial, DejaVu Sans, sans-serif" font-size="13" font-weight="700" fill="#1a1a1a">AKZENT</text><text x="984" y="798" font-family="Liberation Sans, Arial, DejaVu Sans, sans-serif" font-size="12" fill="#777">#C19A6B</text><rect x="1068" y="768" width="34" height="34" rx="7" fill="#F1ECE4" stroke="#00000022" stroke-width="1"/><text x="1112" y="782" font-family="Liberation Sans, Arial, DejaVu Sans, sans-serif" font-size="13" font-weight="700" fill="#1a1a1a">HELL</text><text x="1112" y="798" font-family="Liberation Sans, Arial, DejaVu Sans, sans-serif" font-size="12" fill="#777">#F1ECE4</text><rect x="1196" y="768" width="34" height="34" rx="7" fill="#2A2825" stroke="#00000022" stroke-width="1"/><text x="1240" y="782" font-family="Liberation Sans, Arial, DejaVu Sans, sans-serif" font-size="13" font-weight="700" fill="#1a1a1a">DUNKEL</text><text x="1240" y="798" font-family="Liberation Sans, Arial, DejaVu Sans, sans-serif" font-size="12" fill="#777">#2A2825</text></svg>