<svg xmlns="http://www.w3.org/2000/svg" width="1400" height="990" viewBox="0 0 1400 990"><defs><filter id="soft" x="-20%" y="-20%" width="140%" height="140%"><feDropShadow dx="0" dy="6" stdDeviation="14" flood-color="#000" flood-opacity="0.12"/></filter></defs><rect width="1400" height="990" fill="#FBFAF7"/><text x="80" y="86" font-family="Liberation Sans, Arial, DejaVu Sans, sans-serif" font-size="20" font-weight="800" letter-spacing="4" fill="#2F2E2B">FOMO MARKETING</text><text x="80" y="112" font-family="Liberation Sans, Arial, DejaVu Sans, sans-serif" font-size="13" letter-spacing="3" fill="#999">UEBERSICHT &#183; FEAR OF MISSING OUT</text><line x1="80" y1="138" x2="1320" y2="138" stroke="#2F2E2B" stroke-width="2"/><rect x="90" y="180" width="400" height="250" rx="22" fill="#F1ECE2" stroke="#0000000f" stroke-width="1.2" filter="url(#soft)"/><path fill="none" stroke="#3B352D" stroke-width="8.10" stroke-linecap="butt" stroke-linejoin="miter" stroke-miterlimit="8" d="M 173.45 259.00 L 173.45 319.00 M 173.45 263.05 L 203.00 263.05 M 173.45 289.00 L 197.62 289.00"/><circle cx="243.80" cy="289.00" r="25.95" fill="none" stroke="#3B352D" stroke-width="8.10" stroke-linecap="butt" stroke-linejoin="miter" stroke-miterlimit="8"/><path fill="none" stroke="#3B352D" stroke-width="8.10" stroke-linecap="butt" stroke-linejoin="miter" stroke-miterlimit="8" d="M 288.65 319.00 L 288.65 259.00 L 312.20 308.20 L 335.75 259.00 L 335.75 319.00"/><path d="M 401.32 273.38 A 25.95 25.95 0 1 1 388.19 264.18" fill="none" stroke="#3B352D" stroke-width="8.10" stroke-linecap="butt"/><circle cx="398.76" cy="263.07" r="11.75" fill="#CBB489" opacity="1.0"/><circle cx="409.62" cy="247.55" r="6.48" fill="#CBB489" opacity="0.4"/><text x="108" y="414" font-family="Liberation Sans, Arial, DejaVu Sans, sans-serif" font-size="13" font-weight="800" letter-spacing="1.5" fill="#3B352D">F1 MISSING PIECE</text><rect x="510" y="180" width="400" height="250" rx="22" fill="#EDEAE0" stroke="#0000000f" stroke-width="1.2" filter="url(#soft)"/><path fill="none" stroke="#37413A" stroke-width="8.10" stroke-linecap="butt" stroke-linejoin="miter" stroke-miterlimit="8" d="M 593.45 259.00 L 593.45 319.00 M 593.45 263.05 L 623.00 263.05 M 593.45 289.00 L 617.62 289.00"/><circle cx="663.80" cy="289.00" r="25.95" fill="none" stroke="#37413A" stroke-width="8.10" stroke-linecap="butt" stroke-linejoin="miter" stroke-miterlimit="8"/><path fill="none" stroke="#37413A" stroke-width="8.10" stroke-linecap="butt" stroke-linejoin="miter" stroke-miterlimit="8" d="M 708.65 319.00 L 708.65 259.00 L 732.20 308.20 L 755.75 259.00 L 755.75 319.00"/><circle cx="800.60" cy="289.00" r="25.95" fill="none" stroke="#37413A" stroke-width="8.10" stroke-linecap="butt" stroke-linejoin="miter" stroke-miterlimit="8"/><circle cx="800.60" cy="300.94" r="6.32" fill="#BFA97C" opacity="1.0"/><circle cx="790.26" cy="283.03" r="6.32" fill="#BFA97C" opacity="1.0"/><circle cx="810.94" cy="283.03" r="6.32" fill="#BFA97C" opacity="1.0"/><circle cx="810.94" cy="294.97" r="6.32" fill="#BFA97C" opacity="1.0"/><circle cx="790.26" cy="294.97" r="6.32" fill="#BFA97C" opacity="1.0"/><circle cx="800.60" cy="277.06" r="6.32" fill="#BFA97C" opacity="1.0"/><circle cx="800.60" cy="289.00" r="6.32" fill="#BFA97C" opacity="1.0"/><circle cx="847.31" cy="289.00" r="10.13" fill="none" stroke="#37413A" stroke-width="4.46" opacity="1.0"/><text x="528" y="414" font-family="Liberation Sans, Arial, DejaVu Sans, sans-serif" font-size="13" font-weight="800" letter-spacing="1.5" fill="#37413A">F2 LEFT OUT</text><rect x="930" y="180" width="400" height="250" rx="22" fill="#EEEAE2" stroke="#0000000f" stroke-width="1.2" filter="url(#soft)"/><path fill="none" stroke="#36414C" stroke-width="8.10" stroke-linecap="butt" stroke-linejoin="miter" stroke-miterlimit="8" d="M 1013.45 259.00 L 1013.45 319.00 M 1013.45 263.05 L 1043.00 263.05 M 1013.45 289.00 L 1037.62 289.00"/><circle cx="1083.80" cy="289.00" r="25.95" fill="none" stroke="#36414C" stroke-width="8.10" stroke-linecap="butt" stroke-linejoin="miter" stroke-miterlimit="8"/><path fill="none" stroke="#36414C" stroke-width="8.10" stroke-linecap="butt" stroke-linejoin="miter" stroke-miterlimit="8" d="M 1128.65 319.00 L 1128.65 259.00 L 1152.20 308.20 L 1175.75 259.00 L 1175.75 319.00"/><circle cx="1220.60" cy="289.00" r="25.95" fill="none" stroke="#36414C" stroke-width="8.10" stroke-linecap="butt" stroke-linejoin="miter" stroke-miterlimit="8"/><path d="M 1210.2 276.0 L 1231.0 276.0 L 1220.6 289.0 L 1231.0 302.0 L 1210.2 302.0 L 1220.6 289.0 Z" fill="none" stroke="#C7B488" stroke-width="5.0" stroke-linejoin="round"/><path d="M 1212.5 278.9 L 1228.7 278.9 L 1220.6 288.5 Z" fill="#C7B488" opacity="0.5"/><path d="M 1215.4 302.0 L 1225.8 302.0 L 1220.6 294.8 Z" fill="#C7B488"/><line x1="1209.2" y1="276.0" x2="1232.0" y2="276.0" stroke="#C7B488" stroke-width="5.0" stroke-linecap="butt"/><line x1="1209.2" y1="302.0" x2="1232.0" y2="302.0" stroke="#C7B488" stroke-width="5.0" stroke-linecap="butt"/><text x="948" y="414" font-family="Liberation Sans, Arial, DejaVu Sans, sans-serif" font-size="13" font-weight="800" letter-spacing="1.5" fill="#36414C">F3 RUNNING OUT</text><rect x="90" y="490" width="400" height="250" rx="22" fill="#EFEAE6" stroke="#0000000f" stroke-width="1.2" filter="url(#soft)"/><path fill="none" stroke="#3C3038" stroke-width="8.10" stroke-linecap="butt" stroke-linejoin="miter" stroke-miterlimit="8" d="M 173.45 569.00 L 173.45 629.00 M 173.45 573.05 L 203.00 573.05 M 173.45 599.00 L 197.62 599.00"/><circle cx="243.80" cy="599.00" r="25.95" fill="none" stroke="#3C3038" stroke-width="8.10" stroke-linecap="butt" stroke-linejoin="miter" stroke-miterlimit="8"/><path fill="none" stroke="#3C3038" stroke-width="8.10" stroke-linecap="butt" stroke-linejoin="miter" stroke-miterlimit="8" d="M 288.65 629.00 L 288.65 569.00 L 312.20 618.20 L 335.75 569.00 L 335.75 629.00"/><circle cx="380.60" cy="599.00" r="25.95" fill="none" stroke="#3C3038" stroke-width="8.10" stroke-linecap="butt" stroke-linejoin="miter" stroke-miterlimit="8"/><circle cx="402.97" cy="578.86" r="7.29" fill="#3C3038" opacity="0.85"/><circle cx="404.43" cy="571.58" r="5.83" fill="#3C3038" opacity="0.62"/><circle cx="404.69" cy="563.29" r="4.46" fill="#3C3038" opacity="0.45"/><circle cx="403.57" cy="553.91" r="3.40" fill="#3C3038" opacity="0.32"/><circle cx="400.84" cy="543.40" r="2.59" fill="#3C3038" opacity="0.22"/><text x="108" y="724" font-family="Liberation Sans, Arial, DejaVu Sans, sans-serif" font-size="13" font-weight="800" letter-spacing="1.5" fill="#3C3038">F4 FADING</text><rect x="510" y="490" width="400" height="250" rx="22" fill="#EEEBE4" stroke="#0000000f" stroke-width="1.2" filter="url(#soft)"/><path fill="none" stroke="#2E3239" stroke-width="8.10" stroke-linecap="butt" stroke-linejoin="miter" stroke-miterlimit="8" d="M 593.45 569.00 L 593.45 629.00 M 593.45 573.05 L 623.00 573.05 M 593.45 599.00 L 617.62 599.00"/><circle cx="663.80" cy="599.00" r="25.95" fill="none" stroke="#2E3239" stroke-width="8.10" stroke-linecap="butt" stroke-linejoin="miter" stroke-miterlimit="8"/><path fill="none" stroke="#2E3239" stroke-width="8.10" stroke-linecap="butt" stroke-linejoin="miter" stroke-miterlimit="8" d="M 708.65 629.00 L 708.65 569.00 L 732.20 618.20 L 755.75 569.00 L 755.75 629.00"/><circle cx="800.60" cy="599.00" r="25.95" fill="none" stroke="#2E3239" stroke-width="8.10" stroke-linecap="butt" stroke-linejoin="miter" stroke-miterlimit="8"/><path d="M 807.1 546.4 L 800.6 564.7 L 794.1 546.4" fill="none" stroke="#C3AC82" stroke-width="4.9" stroke-linecap="butt" stroke-linejoin="round"/><path d="M 853.2 605.5 L 834.9 599.0 L 853.2 592.5" fill="none" stroke="#C3AC82" stroke-width="4.9" stroke-linecap="butt" stroke-linejoin="round"/><path d="M 794.1 651.6 L 800.6 633.3 L 807.1 651.6" fill="none" stroke="#C3AC82" stroke-width="4.9" stroke-linecap="butt" stroke-linejoin="round"/><path d="M 748.0 592.5 L 766.3 599.0 L 748.0 605.5" fill="none" stroke="#C3AC82" stroke-width="4.9" stroke-linecap="butt" stroke-linejoin="round"/><text x="528" y="724" font-family="Liberation Sans, Arial, DejaVu Sans, sans-serif" font-size="13" font-weight="800" letter-spacing="1.5" fill="#2E3239">F5 THE PULL</text><rect x="930" y="490" width="400" height="250" rx="22" fill="#F1ECE4" stroke="#0000000f" stroke-width="1.2" filter="url(#soft)"/><path fill="none" stroke="#2F2E2B" stroke-width="8.10" stroke-linecap="butt" stroke-linejoin="miter" stroke-miterlimit="8" d="M 1013.45 569.00 L 1013.45 629.00 M 1013.45 573.05 L 1043.00 573.05 M 1013.45 599.00 L 1037.62 599.00"/><circle cx="1083.80" cy="599.00" r="25.95" fill="none" stroke="#2F2E2B" stroke-width="8.10" stroke-linecap="butt" stroke-linejoin="miter" stroke-miterlimit="8"/><path fill="none" stroke="#2F2E2B" stroke-width="8.10" stroke-linecap="butt" stroke-linejoin="miter" stroke-miterlimit="8" d="M 1128.65 629.00 L 1128.65 569.00 L 1152.20 618.20 L 1175.75 569.00 L 1175.75 629.00"/><circle cx="1220.60" cy="599.00" r="25.95" fill="none" stroke="#2F2E2B" stroke-width="8.10" stroke-linecap="butt" stroke-linejoin="miter" stroke-miterlimit="8"/><circle cx="1239.28" cy="580.32" r="17.37" fill="#F1ECE4" opacity="1.0"/><circle cx="1239.28" cy="580.32" r="13.37" fill="#C19A6B" opacity="1.0"/><text x="948" y="724" font-family="Liberation Sans, Arial, DejaVu Sans, sans-serif" font-size="13" font-weight="800" letter-spacing="1.5" fill="#2F2E2B">F6 ALERT</text></svg>