<svg xmlns="http://www.w3.org/2000/svg" width="1400" height="990" viewBox="0 0 1400 990"><defs><filter id="soft" x="-20%" y="-20%" width="140%" height="140%"><feDropShadow dx="0" dy="6" stdDeviation="14" flood-color="#000" flood-opacity="0.12"/></filter></defs><rect width="1400" height="990" fill="#FBFAF7"/><text x="80" y="86" font-family="Liberation Sans, Arial, DejaVu Sans, sans-serif" font-size="20" font-weight="800" letter-spacing="4" fill="#2F2E2B">FOMO MARKETING</text><text x="80" y="112" font-family="Liberation Sans, Arial, DejaVu Sans, sans-serif" font-size="13" letter-spacing="3" fill="#999">UEBERSICHT &#183; FEAR OF MISSING OUT</text><line x1="80" y1="138" x2="1320" y2="138" stroke="#2F2E2B" stroke-width="2"/><rect x="90" y="180" width="400" height="250" rx="22" fill="#F1ECE2" stroke="#0000000f" stroke-width="1.2" filter="url(#soft)"/><path fill="none" stroke="#3B352D" stroke-width="6.00" stroke-linecap="round" stroke-linejoin="round" stroke-miterlimit="8" d="M 172.40 259.00 L 172.40 319.00 M 172.40 262.00 L 203.00 262.00 M 172.40 289.00 L 197.62 289.00"/><circle cx="243.80" cy="289.00" r="27.00" fill="none" stroke="#3B352D" stroke-width="6.00" stroke-linecap="round" stroke-linejoin="round" stroke-miterlimit="8"/><path fill="none" stroke="#3B352D" stroke-width="6.00" stroke-linecap="round" stroke-linejoin="round" stroke-miterlimit="8" d="M 287.60 319.00 L 287.60 259.00 L 312.20 295.00 L 336.80 259.00 L 336.80 319.00"/><path d="M 402.16 272.75 A 27.00 27.00 0 1 1 388.49 263.18" fill="none" stroke="#3B352D" stroke-width="6.00" stroke-linecap="round"/><circle cx="399.49" cy="262.02" r="8.70" fill="#CBB489" opacity="1.0"/><circle cx="410.80" cy="245.87" r="4.80" fill="#CBB489" opacity="0.4"/><text x="108" y="414" font-family="Liberation Sans, Arial, DejaVu Sans, sans-serif" font-size="13" font-weight="800" letter-spacing="1.5" fill="#3B352D">F1 MISSING PIECE</text><rect x="510" y="180" width="400" height="250" rx="22" fill="#EDEAE0" stroke="#0000000f" stroke-width="1.2" filter="url(#soft)"/><path fill="none" stroke="#37413A" stroke-width="6.00" stroke-linecap="round" stroke-linejoin="round" stroke-miterlimit="8" d="M 592.40 259.00 L 592.40 319.00 M 592.40 262.00 L 623.00 262.00 M 592.40 289.00 L 617.62 289.00"/><circle cx="663.80" cy="289.00" r="27.00" fill="none" stroke="#37413A" stroke-width="6.00" stroke-linecap="round" stroke-linejoin="round" stroke-miterlimit="8"/><path fill="none" stroke="#37413A" stroke-width="6.00" stroke-linecap="round" stroke-linejoin="round" stroke-miterlimit="8" d="M 707.60 319.00 L 707.60 259.00 L 732.20 295.00 L 756.80 259.00 L 756.80 319.00"/><circle cx="800.60" cy="289.00" r="27.00" fill="none" stroke="#37413A" stroke-width="6.00" stroke-linecap="round" stroke-linejoin="round" stroke-miterlimit="8"/><circle cx="800.60" cy="301.42" r="4.68" fill="#BFA97C" opacity="1.0"/><circle cx="789.84" cy="282.79" r="4.68" fill="#BFA97C" opacity="1.0"/><circle cx="811.36" cy="282.79" r="4.68" fill="#BFA97C" opacity="1.0"/><circle cx="811.36" cy="295.21" r="4.68" fill="#BFA97C" opacity="1.0"/><circle cx="789.84" cy="295.21" r="4.68" fill="#BFA97C" opacity="1.0"/><circle cx="800.60" cy="276.58" r="4.68" fill="#BFA97C" opacity="1.0"/><circle cx="800.60" cy="289.00" r="4.68" fill="#BFA97C" opacity="1.0"/><circle cx="849.20" cy="289.00" r="7.50" fill="none" stroke="#37413A" stroke-width="3.30" opacity="1.0"/><text x="528" y="414" font-family="Liberation Sans, Arial, DejaVu Sans, sans-serif" font-size="13" font-weight="800" letter-spacing="1.5" fill="#37413A">F2 LEFT OUT</text><rect x="930" y="180" width="400" height="250" rx="22" fill="#EEEAE2" stroke="#0000000f" stroke-width="1.2" filter="url(#soft)"/><path fill="none" stroke="#36414C" stroke-width="6.00" stroke-linecap="round" stroke-linejoin="round" stroke-miterlimit="8" d="M 1012.40 259.00 L 1012.40 319.00 M 1012.40 262.00 L 1043.00 262.00 M 1012.40 289.00 L 1037.62 289.00"/><circle cx="1083.80" cy="289.00" r="27.00" fill="none" stroke="#36414C" stroke-width="6.00" stroke-linecap="round" stroke-linejoin="round" stroke-miterlimit="8"/><path fill="none" stroke="#36414C" stroke-width="6.00" stroke-linecap="round" stroke-linejoin="round" stroke-miterlimit="8" d="M 1127.60 319.00 L 1127.60 259.00 L 1152.20 295.00 L 1176.80 259.00 L 1176.80 319.00"/><circle cx="1220.60" cy="289.00" r="27.00" fill="none" stroke="#36414C" stroke-width="6.00" stroke-linecap="round" stroke-linejoin="round" stroke-miterlimit="8"/><path d="M 1209.8 275.5 L 1231.4 275.5 L 1220.6 289.0 L 1231.4 302.5 L 1209.8 302.5 L 1220.6 289.0 Z" fill="none" stroke="#C7B488" stroke-width="3.7" stroke-linejoin="round"/><path d="M 1212.2 278.5 L 1229.0 278.5 L 1220.6 288.5 Z" fill="#C7B488" opacity="0.5"/><path d="M 1215.2 302.5 L 1226.0 302.5 L 1220.6 295.1 Z" fill="#C7B488"/><line x1="1208.7" y1="275.5" x2="1232.5" y2="275.5" stroke="#C7B488" stroke-width="3.7" stroke-linecap="round"/><line x1="1208.7" y1="302.5" x2="1232.5" y2="302.5" stroke="#C7B488" stroke-width="3.7" stroke-linecap="round"/><text x="948" y="414" font-family="Liberation Sans, Arial, DejaVu Sans, sans-serif" font-size="13" font-weight="800" letter-spacing="1.5" fill="#36414C">F3 RUNNING OUT</text><rect x="90" y="490" width="400" height="250" rx="22" fill="#EFEAE6" stroke="#0000000f" stroke-width="1.2" filter="url(#soft)"/><path fill="none" stroke="#3C3038" stroke-width="6.00" stroke-linecap="round" stroke-linejoin="round" stroke-miterlimit="8" d="M 172.40 569.00 L 172.40 629.00 M 172.40 572.00 L 203.00 572.00 M 172.40 599.00 L 197.62 599.00"/><circle cx="243.80" cy="599.00" r="27.00" fill="none" stroke="#3C3038" stroke-width="6.00" stroke-linecap="round" stroke-linejoin="round" stroke-miterlimit="8"/><path fill="none" stroke="#3C3038" stroke-width="6.00" stroke-linecap="round" stroke-linejoin="round" stroke-miterlimit="8" d="M 287.60 629.00 L 287.60 569.00 L 312.20 605.00 L 336.80 569.00 L 336.80 629.00"/><circle cx="380.60" cy="599.00" r="27.00" fill="none" stroke="#3C3038" stroke-width="6.00" stroke-linecap="round" stroke-linejoin="round" stroke-miterlimit="8"/><circle cx="403.88" cy="578.04" r="5.40" fill="#3C3038" opacity="0.85"/><circle cx="405.40" cy="570.47" r="4.32" fill="#3C3038" opacity="0.62"/><circle cx="405.66" cy="561.84" r="3.30" fill="#3C3038" opacity="0.45"/><circle cx="404.50" cy="552.09" r="2.52" fill="#3C3038" opacity="0.32"/><circle cx="401.65" cy="541.15" r="1.92" fill="#3C3038" opacity="0.22"/><text x="108" y="724" font-family="Liberation Sans, Arial, DejaVu Sans, sans-serif" font-size="13" font-weight="800" letter-spacing="1.5" fill="#3C3038">F4 FADING</text><rect x="510" y="490" width="400" height="250" rx="22" fill="#EEEBE4" stroke="#0000000f" stroke-width="1.2" filter="url(#soft)"/><path fill="none" stroke="#2E3239" stroke-width="6.00" stroke-linecap="round" stroke-linejoin="round" stroke-miterlimit="8" d="M 592.40 569.00 L 592.40 629.00 M 592.40 572.00 L 623.00 572.00 M 592.40 599.00 L 617.62 599.00"/><circle cx="663.80" cy="599.00" r="27.00" fill="none" stroke="#2E3239" stroke-width="6.00" stroke-linecap="round" stroke-linejoin="round" stroke-miterlimit="8"/><path fill="none" stroke="#2E3239" stroke-width="6.00" stroke-linecap="round" stroke-linejoin="round" stroke-miterlimit="8" d="M 707.60 629.00 L 707.60 569.00 L 732.20 605.00 L 756.80 569.00 L 756.80 629.00"/><circle cx="800.60" cy="599.00" r="27.00" fill="none" stroke="#2E3239" stroke-width="6.00" stroke-linecap="round" stroke-linejoin="round" stroke-miterlimit="8"/><path d="M 807.0 546.9 L 800.6 563.4 L 794.2 546.9" fill="none" stroke="#C3AC82" stroke-width="3.6" stroke-linecap="round" stroke-linejoin="round"/><path d="M 852.7 605.4 L 836.2 599.0 L 852.7 592.6" fill="none" stroke="#C3AC82" stroke-width="3.6" stroke-linecap="round" stroke-linejoin="round"/><path d="M 794.2 651.1 L 800.6 634.6 L 807.0 651.1" fill="none" stroke="#C3AC82" stroke-width="3.6" stroke-linecap="round" stroke-linejoin="round"/><path d="M 748.5 592.6 L 765.0 599.0 L 748.5 605.4" fill="none" stroke="#C3AC82" stroke-width="3.6" stroke-linecap="round" stroke-linejoin="round"/><text x="528" y="724" font-family="Liberation Sans, Arial, DejaVu Sans, sans-serif" font-size="13" font-weight="800" letter-spacing="1.5" fill="#2E3239">F5 THE PULL</text><rect x="930" y="490" width="400" height="250" rx="22" fill="#F1ECE4" stroke="#0000000f" stroke-width="1.2" filter="url(#soft)"/><path fill="none" stroke="#2F2E2B" stroke-width="6.00" stroke-linecap="round" stroke-linejoin="round" stroke-miterlimit="8" d="M 1012.40 569.00 L 1012.40 629.00 M 1012.40 572.00 L 1043.00 572.00 M 1012.40 599.00 L 1037.62 599.00"/><circle cx="1083.80" cy="599.00" r="27.00" fill="none" stroke="#2F2E2B" stroke-width="6.00" stroke-linecap="round" stroke-linejoin="round" stroke-miterlimit="8"/><path fill="none" stroke="#2F2E2B" stroke-width="6.00" stroke-linecap="round" stroke-linejoin="round" stroke-miterlimit="8" d="M 1127.60 629.00 L 1127.60 569.00 L 1152.20 605.00 L 1176.80 569.00 L 1176.80 629.00"/><circle cx="1220.60" cy="599.00" r="27.00" fill="none" stroke="#2F2E2B" stroke-width="6.00" stroke-linecap="round" stroke-linejoin="round" stroke-miterlimit="8"/><circle cx="1240.04" cy="579.56" r="13.90" fill="#F1ECE4" opacity="1.0"/><circle cx="1240.04" cy="579.56" r="9.90" fill="#C19A6B" opacity="1.0"/><text x="948" y="724" font-family="Liberation Sans, Arial, DejaVu Sans, sans-serif" font-size="13" font-weight="800" letter-spacing="1.5" fill="#2F2E2B">F6 ALERT</text></svg>