<svg xmlns="http://www.w3.org/2000/svg" width="1400" height="990" viewBox="0 0 1400 990"><defs><linearGradient id="ac" x1="0" y1="0" x2="1" y2="1"><stop offset="0" stop-color="#DEC793"/><stop offset="0.5" stop-color="#C9A24B"/><stop offset="1" stop-color="#907436"/></linearGradient><filter id="soft" x="-20%" y="-20%" width="140%" height="140%"><feDropShadow dx="0" dy="6" stdDeviation="14" flood-color="#000000" flood-opacity="0.12"/></filter></defs><rect width="1400" height="990" fill="#0B1F3A"/><circle cx="700.0" cy="425.0" r="470" fill="none" stroke="#C9A24B" stroke-opacity="0.08" stroke-width="1.4"/><circle cx="700.0" cy="425.0" r="360" fill="none" stroke="#C9A24B" stroke-opacity="0.08" stroke-width="1.4"/><rect x="560" y="275" width="280" height="280" rx="30" fill="none" stroke="url(#ac)" stroke-width="3.4"/><rect x="573" y="288" width="254" height="254" rx="22" fill="none" stroke="url(#ac)" stroke-width="1.3"/><circle cx="627.04" cy="409.00" r="28.80" fill="none" stroke="#F1E9D6" stroke-width="6.40" stroke-linecap="butt" stroke-linejoin="miter" stroke-miterlimit="8"/><path fill="none" stroke="url(#ac)" stroke-width="6.40" stroke-linecap="butt" d="M 643.56 385.41 A 28.80 28.80 0 0 1 610.52 432.59"/><path fill="none" stroke="#F1E9D6" stroke-width="6.40" stroke-linecap="butt" stroke-linejoin="miter" stroke-miterlimit="8" d="M 673.76 441.00 L 673.76 377.00 L 700.00 415.40 L 726.24 377.00 L 726.24 441.00"/><circle cx="772.96" cy="409.00" r="28.80" fill="none" stroke="#F1E9D6" stroke-width="6.40" stroke-linecap="butt" stroke-linejoin="miter" stroke-miterlimit="8"/><path fill="none" stroke="url(#ac)" stroke-width="6.40" stroke-linecap="butt" d="M 789.48 385.41 A 28.80 28.80 0 0 1 756.44 432.59"/><line x1="654" y1="461" x2="746" y2="461" stroke="url(#ac)" stroke-width="1.2"/><text x="700" y="481" font-family="Liberation Sans, Arial, DejaVu Sans, sans-serif" font-size="13" font-weight="600" letter-spacing="5" text-anchor="middle" fill="url(#ac)">EST &#183; 2026</text><path fill="none" stroke="#F1E9D6" stroke-width="9.60" stroke-linecap="butt" stroke-linejoin="miter" stroke-miterlimit="8" d="M 511.84 605.00 L 511.84 701.00 M 511.84 609.80 L 560.80 609.80 M 511.84 653.00 L 552.20 653.00"/><circle cx="626.08" cy="653.00" r="43.20" fill="none" stroke="#F1E9D6" stroke-width="9.60" stroke-linecap="butt" stroke-linejoin="miter" stroke-miterlimit="8"/><path fill="none" stroke="url(#ac)" stroke-width="9.60" stroke-linecap="butt" d="M 650.86 617.61 A 43.20 43.20 0 0 1 601.30 688.39"/><path fill="none" stroke="#F1E9D6" stroke-width="9.60" stroke-linecap="butt" stroke-linejoin="miter" stroke-miterlimit="8" d="M 696.16 701.00 L 696.16 605.00 L 735.52 662.60 L 774.88 605.00 L 774.88 701.00"/><circle cx="844.96" cy="653.00" r="43.20" fill="none" stroke="#F1E9D6" stroke-width="9.60" stroke-linecap="butt" stroke-linejoin="miter" stroke-miterlimit="8"/><path fill="none" stroke="url(#ac)" stroke-width="9.60" stroke-linecap="butt" d="M 869.74 617.61 A 43.20 43.20 0 0 1 820.18 688.39"/><text x="700.00" y="743.00" font-family="Liberation Sans, Arial, DejaVu Sans, sans-serif" font-size="20.00" font-weight="600" letter-spacing="12.00" text-anchor="middle" fill="#C9A24B">MARKETING</text><text x="700.0" y="795.0" font-family="Liberation Sans, Arial, DejaVu Sans, sans-serif" font-size="15" letter-spacing="4" text-anchor="middle" fill="#F1E9D6">ECLIPSE x CREST &#183; 6 EDLE KONZEPTE</text><text x="80" y="940" font-family="Liberation Sans, Arial, DejaVu Sans, sans-serif" font-size="13" letter-spacing="2" fill="#ffffff55">FOMO MARKETING</text><text x="1320" y="940" font-family="Liberation Sans, Arial, DejaVu Sans, sans-serif" font-size="13" letter-spacing="2" text-anchor="end" fill="#ffffff55">09.06.2026</text></svg>