<svg xmlns="http://www.w3.org/2000/svg" width="1400" height="990" viewBox="0 0 1400 990"><defs><linearGradient id="ac" x1="0" y1="0" x2="1" y2="1"><stop offset="0" stop-color="#E9D5AF"/><stop offset="0.5" stop-color="#DBBA7A"/><stop offset="1" stop-color="#9D8557"/></linearGradient><filter id="soft" x="-20%" y="-20%" width="140%" height="140%"><feDropShadow dx="0" dy="6" stdDeviation="14" flood-color="#000000" flood-opacity="0.12"/></filter></defs><rect width="1400" height="990" fill="#FBFAF7"/><text x="80" y="86" font-family="Liberation Sans, Arial, DejaVu Sans, sans-serif" font-size="20" font-weight="800" letter-spacing="4" fill="#33203A">FOMO MARKETING</text><text x="80" y="112" font-family="Liberation Sans, Arial, DejaVu Sans, sans-serif" font-size="13" letter-spacing="3" fill="#999">LOGO-KONZEPT H5 &#183; ECLIPSE x CREST</text><text x="1320" y="92" font-family="Liberation Sans, Arial, DejaVu Sans, sans-serif" font-size="42" font-weight="800" text-anchor="end" fill="#33203A">AUBERGINE ROYALE</text><text x="1320" y="116" font-family="Liberation Sans, Arial, DejaVu Sans, sans-serif" font-size="14" font-style="italic" text-anchor="end" fill="#888">Hexagon in Aubergine</text><line x1="80" y1="138" x2="1320" y2="138" stroke="#DBBA7A" stroke-width="2"/><rect x="90" y="178" width="580" height="560" rx="22" fill="#F4F0F4" stroke="#0000000f" stroke-width="1.2" filter="url(#soft)"/><rect x="730" y="178" width="580" height="560" rx="22" fill="#1F1226" filter="url(#soft)"/><path d="M 229 366 L 304 240 L 456 240 L 531 366 L 456 492 L 304 492 Z" fill="none" stroke="url(#ac)" stroke-width="3.4" stroke-linejoin="round"/><path d="M 242 366 L 311 253 L 449 253 L 518 366 L 449 479 L 311 479 Z" fill="none" stroke="url(#ac)" stroke-width="1.3" stroke-linejoin="round"/><circle cx="307.04" cy="360.00" r="28.80" fill="none" stroke="#33203A" stroke-width="6.40" stroke-linecap="butt" stroke-linejoin="miter" stroke-miterlimit="8"/><path fill="none" stroke="url(#ac)" stroke-width="6.40" stroke-linecap="butt" d="M 323.56 336.41 A 28.80 28.80 0 0 1 290.52 383.59"/><path fill="none" stroke="#33203A" stroke-width="6.40" stroke-linecap="butt" stroke-linejoin="miter" stroke-miterlimit="8" d="M 353.76 392.00 L 353.76 328.00 L 380.00 366.40 L 406.24 328.00 L 406.24 392.00"/><circle cx="452.96" cy="360.00" r="28.80" fill="none" stroke="#33203A" stroke-width="6.40" stroke-linecap="butt" stroke-linejoin="miter" stroke-miterlimit="8"/><path fill="none" stroke="url(#ac)" stroke-width="6.40" stroke-linecap="butt" d="M 469.48 336.41 A 28.80 28.80 0 0 1 436.44 383.59"/><line x1="334" y1="412" x2="426" y2="412" stroke="url(#ac)" stroke-width="1.2"/><text x="380" y="432" font-family="Liberation Sans, Arial, DejaVu Sans, sans-serif" font-size="13" font-weight="600" letter-spacing="5" text-anchor="middle" fill="url(#ac)">EST &#183; 2026</text><path fill="none" stroke="#33203A" stroke-width="6.20" stroke-linecap="butt" stroke-linejoin="miter" stroke-miterlimit="8" d="M 258.48 586.00 L 258.48 648.00 M 258.48 589.10 L 290.10 589.10 M 258.48 617.00 L 284.54 617.00"/><circle cx="332.26" cy="617.00" r="27.90" fill="none" stroke="#33203A" stroke-width="6.20" stroke-linecap="butt" stroke-linejoin="miter" stroke-miterlimit="8"/><path fill="none" stroke="url(#ac)" stroke-width="6.20" stroke-linecap="butt" d="M 348.26 594.15 A 27.90 27.90 0 0 1 316.26 639.85"/><path fill="none" stroke="#33203A" stroke-width="6.20" stroke-linecap="butt" stroke-linejoin="miter" stroke-miterlimit="8" d="M 377.52 648.00 L 377.52 586.00 L 402.94 623.20 L 428.36 586.00 L 428.36 648.00"/><circle cx="473.62" cy="617.00" r="27.90" fill="none" stroke="#33203A" stroke-width="6.20" stroke-linecap="butt" stroke-linejoin="miter" stroke-miterlimit="8"/><path fill="none" stroke="url(#ac)" stroke-width="6.20" stroke-linecap="butt" d="M 489.62 594.15 A 27.90 27.90 0 0 1 457.62 639.85"/><text x="380.00" y="682.00" font-family="Liberation Sans, Arial, DejaVu Sans, sans-serif" font-size="13.50" font-weight="600" letter-spacing="8.00" text-anchor="middle" fill="#DBBA7A">MARKETING</text><path d="M 869 366 L 944 240 L 1096 240 L 1171 366 L 1096 492 L 944 492 Z" fill="none" stroke="url(#ac)" stroke-width="3.4" stroke-linejoin="round"/><path d="M 882 366 L 951 253 L 1089 253 L 1158 366 L 1089 479 L 951 479 Z" fill="none" stroke="url(#ac)" stroke-width="1.3" stroke-linejoin="round"/><circle cx="947.04" cy="360.00" r="28.80" fill="none" stroke="#ECE2EE" stroke-width="6.40" stroke-linecap="butt" stroke-linejoin="miter" stroke-miterlimit="8"/><path fill="none" stroke="url(#ac)" stroke-width="6.40" stroke-linecap="butt" d="M 963.56 336.41 A 28.80 28.80 0 0 1 930.52 383.59"/><path fill="none" stroke="#ECE2EE" stroke-width="6.40" stroke-linecap="butt" stroke-linejoin="miter" stroke-miterlimit="8" d="M 993.76 392.00 L 993.76 328.00 L 1020.00 366.40 L 1046.24 328.00 L 1046.24 392.00"/><circle cx="1092.96" cy="360.00" r="28.80" fill="none" stroke="#ECE2EE" stroke-width="6.40" stroke-linecap="butt" stroke-linejoin="miter" stroke-miterlimit="8"/><path fill="none" stroke="url(#ac)" stroke-width="6.40" stroke-linecap="butt" d="M 1109.48 336.41 A 28.80 28.80 0 0 1 1076.44 383.59"/><line x1="974" y1="412" x2="1066" y2="412" stroke="url(#ac)" stroke-width="1.2"/><text x="1020" y="432" font-family="Liberation Sans, Arial, DejaVu Sans, sans-serif" font-size="13" font-weight="600" letter-spacing="5" text-anchor="middle" fill="url(#ac)">EST &#183; 2026</text><path fill="none" stroke="#ECE2EE" stroke-width="6.20" stroke-linecap="butt" stroke-linejoin="miter" stroke-miterlimit="8" d="M 898.48 586.00 L 898.48 648.00 M 898.48 589.10 L 930.10 589.10 M 898.48 617.00 L 924.54 617.00"/><circle cx="972.26" cy="617.00" r="27.90" fill="none" stroke="#ECE2EE" stroke-width="6.20" stroke-linecap="butt" stroke-linejoin="miter" stroke-miterlimit="8"/><path fill="none" stroke="url(#ac)" stroke-width="6.20" stroke-linecap="butt" d="M 988.26 594.15 A 27.90 27.90 0 0 1 956.26 639.85"/><path fill="none" stroke="#ECE2EE" stroke-width="6.20" stroke-linecap="butt" stroke-linejoin="miter" stroke-miterlimit="8" d="M 1017.52 648.00 L 1017.52 586.00 L 1042.94 623.20 L 1068.36 586.00 L 1068.36 648.00"/><circle cx="1113.62" cy="617.00" r="27.90" fill="none" stroke="#ECE2EE" stroke-width="6.20" stroke-linecap="butt" stroke-linejoin="miter" stroke-miterlimit="8"/><path fill="none" stroke="url(#ac)" stroke-width="6.20" stroke-linecap="butt" d="M 1129.62 594.15 A 27.90 27.90 0 0 1 1097.62 639.85"/><text x="1020.00" y="682.00" font-family="Liberation Sans, Arial, DejaVu Sans, sans-serif" font-size="13.50" font-weight="600" letter-spacing="8.00" text-anchor="middle" fill="#DBBA7A">MARKETING</text><text x="110" y="720" font-family="Liberation Sans, Arial, DejaVu Sans, sans-serif" font-size="12" letter-spacing="2" fill="#aaa">HELLER UNTERGRUND</text><text x="750" y="720" font-family="Liberation Sans, Arial, DejaVu Sans, sans-serif" font-size="12" letter-spacing="2" fill="#ffffff66">DUNKLER UNTERGRUND</text><text x="80" y="782" font-family="Liberation Sans, Arial, DejaVu Sans, sans-serif" font-size="15" fill="#333">Ein sechseckiges Emblem verleiht eine moderne, kreative Note. Tiefes Auberginen-Violett und</text><text x="80" y="804" font-family="Liberation Sans, Arial, DejaVu Sans, sans-serif" font-size="15" fill="#333">sanftes Sandgold wirken luxuriös und zugleich differenziert – edel mit Charakter.</text><rect x="812" y="768" width="34" height="34" rx="7" fill="#33203A" stroke="#00000022" stroke-width="1"/><text x="856" y="782" font-family="Liberation Sans, Arial, DejaVu Sans, sans-serif" font-size="13" font-weight="700" fill="#1a1a1a">PRIMAER</text><text x="856" y="798" font-family="Liberation Sans, Arial, DejaVu Sans, sans-serif" font-size="12" fill="#777">#33203A</text><rect x="940" y="768" width="34" height="34" rx="7" fill="#DBBA7A" stroke="#00000022" stroke-width="1"/><text x="984" y="782" font-family="Liberation Sans, Arial, DejaVu Sans, sans-serif" font-size="13" font-weight="700" fill="#1a1a1a">AKZENT</text><text x="984" y="798" font-family="Liberation Sans, Arial, DejaVu Sans, sans-serif" font-size="12" fill="#777">#DBBA7A</text><rect x="1068" y="768" width="34" height="34" rx="7" fill="#F4F0F4" stroke="#00000022" stroke-width="1"/><text x="1112" y="782" font-family="Liberation Sans, Arial, DejaVu Sans, sans-serif" font-size="13" font-weight="700" fill="#1a1a1a">HELL</text><text x="1112" y="798" font-family="Liberation Sans, Arial, DejaVu Sans, sans-serif" font-size="12" fill="#777">#F4F0F4</text><rect x="1196" y="768" width="34" height="34" rx="7" fill="#1F1226" stroke="#00000022" stroke-width="1"/><text x="1240" y="782" font-family="Liberation Sans, Arial, DejaVu Sans, sans-serif" font-size="13" font-weight="700" fill="#1a1a1a">DUNKEL</text><text x="1240" y="798" font-family="Liberation Sans, Arial, DejaVu Sans, sans-serif" font-size="12" fill="#777">#1F1226</text></svg>