<svg xmlns="http://www.w3.org/2000/svg" width="1400" height="990" viewBox="0 0 1400 990"><rect width="1400" height="990" fill="#FBFAF7"/><text x="80" y="86" font-family="Liberation Sans, Arial, DejaVu Sans, sans-serif" font-size="20" font-weight="800" letter-spacing="4" fill="#0B1F3A">FOMO MARKETING</text><text x="80" y="112" font-family="Liberation Sans, Arial, DejaVu Sans, sans-serif" font-size="13" letter-spacing="3" fill="#999">UEBERSICHT &#183; ECLIPSE x CREST</text><line x1="80" y1="138" x2="1320" y2="138" stroke="#0B1F3A" stroke-width="2"/><defs><linearGradient id="ac0" x1="0" y1="0" x2="1" y2="1"><stop offset="0" stop-color="#DEC793"/><stop offset="0.5" stop-color="#C9A24B"/><stop offset="1" stop-color="#907436"/></linearGradient><filter id="soft0" x="-20%" y="-20%" width="140%" height="140%"><feDropShadow dx="0" dy="6" stdDeviation="14" flood-color="#000000" flood-opacity="0.12"/></filter></defs><rect x="90" y="180" width="400" height="250" rx="22" fill="#F7F3EA" stroke="#0000000f" stroke-width="1.2" filter="url(#soft0)"/><g transform="translate(290.0 297.0) scale(0.66) translate(-290.0 -297.0)"><rect x="150" y="157" width="280" height="280" rx="30" fill="none" stroke="url(#ac0)" stroke-width="3.4"/><rect x="163" y="170" width="254" height="254" rx="22" fill="none" stroke="url(#ac0)" stroke-width="1.3"/><circle cx="217.04" cy="291.00" r="28.80" fill="none" stroke="#0B1F3A" stroke-width="6.40" stroke-linecap="butt" stroke-linejoin="miter" stroke-miterlimit="8"/><path fill="none" stroke="url(#ac0)" stroke-width="6.40" stroke-linecap="butt" d="M 233.56 267.41 A 28.80 28.80 0 0 1 200.52 314.59"/><path fill="none" stroke="#0B1F3A" stroke-width="6.40" stroke-linecap="butt" stroke-linejoin="miter" stroke-miterlimit="8" d="M 263.76 323.00 L 263.76 259.00 L 290.00 297.40 L 316.24 259.00 L 316.24 323.00"/><circle cx="362.96" cy="291.00" r="28.80" fill="none" stroke="#0B1F3A" stroke-width="6.40" stroke-linecap="butt" stroke-linejoin="miter" stroke-miterlimit="8"/><path fill="none" stroke="url(#ac0)" stroke-width="6.40" stroke-linecap="butt" d="M 379.48 267.41 A 28.80 28.80 0 0 1 346.44 314.59"/><line x1="244" y1="343" x2="336" y2="343" stroke="url(#ac0)" stroke-width="1.2"/><text x="290" y="363" font-family="Liberation Sans, Arial, DejaVu Sans, sans-serif" font-size="13" font-weight="600" letter-spacing="5" text-anchor="middle" fill="url(#ac0)">EST &#183; 2026</text></g><text x="108" y="414" font-family="Liberation Sans, Arial, DejaVu Sans, sans-serif" font-size="13" font-weight="800" letter-spacing="1.5" fill="#0B1F3A">H1 ROYAL ECLIPSE</text><defs><linearGradient id="ac1" x1="0" y1="0" x2="1" y2="1"><stop offset="0" stop-color="#DAC692"/><stop offset="0.5" stop-color="#C2A14A"/><stop offset="1" stop-color="#8B7335"/></linearGradient><filter id="soft1" x="-20%" y="-20%" width="140%" height="140%"><feDropShadow dx="0" dy="6" stdDeviation="14" flood-color="#000000" flood-opacity="0.12"/></filter></defs><rect x="510" y="180" width="400" height="250" rx="22" fill="#F6EFE9" stroke="#0000000f" stroke-width="1.2" filter="url(#soft1)"/><g transform="translate(710.0 297.0) scale(0.66) translate(-710.0 -297.0)"><path d="M 559 149 L 861 149 L 861 349 Q 861 433 710 482 Q 559 433 559 349 Z" fill="none" stroke="url(#ac1)" stroke-width="3.4" stroke-linejoin="round"/><path d="M 572 162 L 848 162 L 848 344 Q 848 421 710 466 Q 572 421 572 344 Z" fill="none" stroke="url(#ac1)" stroke-width="1.3" stroke-linejoin="round"/><circle cx="637.04" cy="291.00" r="28.80" fill="none" stroke="#5E1F2E" stroke-width="6.40" stroke-linecap="butt" stroke-linejoin="miter" stroke-miterlimit="8"/><path fill="none" stroke="url(#ac1)" stroke-width="6.40" stroke-linecap="butt" d="M 653.56 267.41 A 28.80 28.80 0 0 1 620.52 314.59"/><path fill="none" stroke="#5E1F2E" stroke-width="6.40" stroke-linecap="butt" stroke-linejoin="miter" stroke-miterlimit="8" d="M 683.76 323.00 L 683.76 259.00 L 710.00 297.40 L 736.24 259.00 L 736.24 323.00"/><circle cx="782.96" cy="291.00" r="28.80" fill="none" stroke="#5E1F2E" stroke-width="6.40" stroke-linecap="butt" stroke-linejoin="miter" stroke-miterlimit="8"/><path fill="none" stroke="url(#ac1)" stroke-width="6.40" stroke-linecap="butt" d="M 799.48 267.41 A 28.80 28.80 0 0 1 766.44 314.59"/><line x1="664" y1="343" x2="756" y2="343" stroke="url(#ac1)" stroke-width="1.2"/><text x="710" y="363" font-family="Liberation Sans, Arial, DejaVu Sans, sans-serif" font-size="13" font-weight="600" letter-spacing="5" text-anchor="middle" fill="url(#ac1)">EST &#183; 2026</text></g><text x="528" y="414" font-family="Liberation Sans, Arial, DejaVu Sans, sans-serif" font-size="13" font-weight="800" letter-spacing="1.5" fill="#5E1F2E">H2 OXBLOOD SEAL</text><defs><linearGradient id="ac2" x1="0" y1="0" x2="1" y2="1"><stop offset="0" stop-color="#DEC793"/><stop offset="0.5" stop-color="#C9A24B"/><stop offset="1" stop-color="#907436"/></linearGradient><filter id="soft2" x="-20%" y="-20%" width="140%" height="140%"><feDropShadow dx="0" dy="6" stdDeviation="14" flood-color="#000000" flood-opacity="0.12"/></filter></defs><rect x="930" y="180" width="400" height="250" rx="22" fill="#F4F1EA" stroke="#0000000f" stroke-width="1.2" filter="url(#soft2)"/><g transform="translate(1130.0 297.0) scale(0.66) translate(-1130.0 -297.0)"><circle cx="1130" cy="297" r="150" fill="none" stroke="url(#ac2)" stroke-width="3.4"/><circle cx="1130" cy="297" r="137" fill="none" stroke="url(#ac2)" stroke-width="1.3"/><circle cx="1057.04" cy="291.00" r="28.80" fill="none" stroke="#15110C" stroke-width="6.40" stroke-linecap="butt" stroke-linejoin="miter" stroke-miterlimit="8"/><path fill="none" stroke="url(#ac2)" stroke-width="6.40" stroke-linecap="butt" d="M 1073.56 267.41 A 28.80 28.80 0 0 1 1040.52 314.59"/><path fill="none" stroke="#15110C" stroke-width="6.40" stroke-linecap="butt" stroke-linejoin="miter" stroke-miterlimit="8" d="M 1103.76 323.00 L 1103.76 259.00 L 1130.00 297.40 L 1156.24 259.00 L 1156.24 323.00"/><circle cx="1202.96" cy="291.00" r="28.80" fill="none" stroke="#15110C" stroke-width="6.40" stroke-linecap="butt" stroke-linejoin="miter" stroke-miterlimit="8"/><path fill="none" stroke="url(#ac2)" stroke-width="6.40" stroke-linecap="butt" d="M 1219.48 267.41 A 28.80 28.80 0 0 1 1186.44 314.59"/><line x1="1084" y1="343" x2="1176" y2="343" stroke="url(#ac2)" stroke-width="1.2"/><text x="1130" y="363" font-family="Liberation Sans, Arial, DejaVu Sans, sans-serif" font-size="13" font-weight="600" letter-spacing="5" text-anchor="middle" fill="url(#ac2)">EST &#183; 2026</text></g><text x="948" y="414" font-family="Liberation Sans, Arial, DejaVu Sans, sans-serif" font-size="13" font-weight="800" letter-spacing="1.5" fill="#15110C">H3 NOIR &amp; OR</text><defs><linearGradient id="ac3" x1="0" y1="0" x2="1" y2="1"><stop offset="0" stop-color="#E1CA9C"/><stop offset="0.5" stop-color="#CDA75A"/><stop offset="1" stop-color="#937840"/></linearGradient><filter id="soft3" x="-20%" y="-20%" width="140%" height="140%"><feDropShadow dx="0" dy="6" stdDeviation="14" flood-color="#000000" flood-opacity="0.12"/></filter></defs><rect x="90" y="490" width="400" height="250" rx="22" fill="#F1EEE3" stroke="#0000000f" stroke-width="1.2" filter="url(#soft3)"/><g transform="translate(290.0 607.0) scale(0.66) translate(-290.0 -607.0)"><ellipse cx="290" cy="607" rx="168" ry="134" fill="none" stroke="url(#ac3)" stroke-width="3.4"/><ellipse cx="290" cy="607" rx="155" ry="121" fill="none" stroke="url(#ac3)" stroke-width="1.3"/><circle cx="217.04" cy="601.00" r="28.80" fill="none" stroke="#0E3B2E" stroke-width="6.40" stroke-linecap="butt" stroke-linejoin="miter" stroke-miterlimit="8"/><path fill="none" stroke="url(#ac3)" stroke-width="6.40" stroke-linecap="butt" d="M 233.56 577.41 A 28.80 28.80 0 0 1 200.52 624.59"/><path fill="none" stroke="#0E3B2E" stroke-width="6.40" stroke-linecap="butt" stroke-linejoin="miter" stroke-miterlimit="8" d="M 263.76 633.00 L 263.76 569.00 L 290.00 607.40 L 316.24 569.00 L 316.24 633.00"/><circle cx="362.96" cy="601.00" r="28.80" fill="none" stroke="#0E3B2E" stroke-width="6.40" stroke-linecap="butt" stroke-linejoin="miter" stroke-miterlimit="8"/><path fill="none" stroke="url(#ac3)" stroke-width="6.40" stroke-linecap="butt" d="M 379.48 577.41 A 28.80 28.80 0 0 1 346.44 624.59"/><line x1="244" y1="653" x2="336" y2="653" stroke="url(#ac3)" stroke-width="1.2"/><text x="290" y="673" font-family="Liberation Sans, Arial, DejaVu Sans, sans-serif" font-size="13" font-weight="600" letter-spacing="5" text-anchor="middle" fill="url(#ac3)">EST &#183; 2026</text></g><text x="108" y="724" font-family="Liberation Sans, Arial, DejaVu Sans, sans-serif" font-size="13" font-weight="800" letter-spacing="1.5" fill="#0E3B2E">H4 EMERALD CREST</text><defs><linearGradient id="ac4" x1="0" y1="0" x2="1" y2="1"><stop offset="0" stop-color="#E9D5AF"/><stop offset="0.5" stop-color="#DBBA7A"/><stop offset="1" stop-color="#9D8557"/></linearGradient><filter id="soft4" x="-20%" y="-20%" width="140%" height="140%"><feDropShadow dx="0" dy="6" stdDeviation="14" flood-color="#000000" flood-opacity="0.12"/></filter></defs><rect x="510" y="490" width="400" height="250" rx="22" fill="#F4F0F4" stroke="#0000000f" stroke-width="1.2" filter="url(#soft4)"/><g transform="translate(710.0 607.0) scale(0.66) translate(-710.0 -607.0)"><path d="M 559 607 L 634 481 L 786 481 L 861 607 L 786 733 L 634 733 Z" fill="none" stroke="url(#ac4)" stroke-width="3.4" stroke-linejoin="round"/><path d="M 572 607 L 641 494 L 779 494 L 848 607 L 779 720 L 641 720 Z" fill="none" stroke="url(#ac4)" stroke-width="1.3" stroke-linejoin="round"/><circle cx="637.04" cy="601.00" r="28.80" fill="none" stroke="#33203A" stroke-width="6.40" stroke-linecap="butt" stroke-linejoin="miter" stroke-miterlimit="8"/><path fill="none" stroke="url(#ac4)" stroke-width="6.40" stroke-linecap="butt" d="M 653.56 577.41 A 28.80 28.80 0 0 1 620.52 624.59"/><path fill="none" stroke="#33203A" stroke-width="6.40" stroke-linecap="butt" stroke-linejoin="miter" stroke-miterlimit="8" d="M 683.76 633.00 L 683.76 569.00 L 710.00 607.40 L 736.24 569.00 L 736.24 633.00"/><circle cx="782.96" cy="601.00" r="28.80" fill="none" stroke="#33203A" stroke-width="6.40" stroke-linecap="butt" stroke-linejoin="miter" stroke-miterlimit="8"/><path fill="none" stroke="url(#ac4)" stroke-width="6.40" stroke-linecap="butt" d="M 799.48 577.41 A 28.80 28.80 0 0 1 766.44 624.59"/><line x1="664" y1="653" x2="756" y2="653" stroke="url(#ac4)" stroke-width="1.2"/><text x="710" y="673" font-family="Liberation Sans, Arial, DejaVu Sans, sans-serif" font-size="13" font-weight="600" letter-spacing="5" text-anchor="middle" fill="url(#ac4)">EST &#183; 2026</text></g><text x="528" y="724" font-family="Liberation Sans, Arial, DejaVu Sans, sans-serif" font-size="13" font-weight="800" letter-spacing="1.5" fill="#33203A">H5 AUBERGINE ROYALE</text><defs><linearGradient id="ac5" x1="0" y1="0" x2="1" y2="1"><stop offset="0" stop-color="#CED2D7"/><stop offset="0.5" stop-color="#AEB4BD"/><stop offset="1" stop-color="#7D8188"/></linearGradient><filter id="soft5" x="-20%" y="-20%" width="140%" height="140%"><feDropShadow dx="0" dy="6" stdDeviation="14" flood-color="#000000" flood-opacity="0.12"/></filter></defs><rect x="930" y="490" width="400" height="250" rx="22" fill="#F2F3F5" stroke="#0000000f" stroke-width="1.2" filter="url(#soft5)"/><g transform="translate(1130.0 607.0) scale(0.66) translate(-1130.0 -607.0)"><rect x="990" y="467" width="280" height="280" rx="30" fill="none" stroke="url(#ac5)" stroke-width="3.4"/><rect x="1003" y="480" width="254" height="254" rx="22" fill="none" stroke="url(#ac5)" stroke-width="1.3"/><circle cx="1057.04" cy="601.00" r="28.80" fill="none" stroke="#11161F" stroke-width="6.40" stroke-linecap="butt" stroke-linejoin="miter" stroke-miterlimit="8"/><path fill="none" stroke="url(#ac5)" stroke-width="6.40" stroke-linecap="butt" d="M 1073.56 577.41 A 28.80 28.80 0 0 1 1040.52 624.59"/><path fill="none" stroke="#11161F" stroke-width="6.40" stroke-linecap="butt" stroke-linejoin="miter" stroke-miterlimit="8" d="M 1103.76 633.00 L 1103.76 569.00 L 1130.00 607.40 L 1156.24 569.00 L 1156.24 633.00"/><circle cx="1202.96" cy="601.00" r="28.80" fill="none" stroke="#11161F" stroke-width="6.40" stroke-linecap="butt" stroke-linejoin="miter" stroke-miterlimit="8"/><path fill="none" stroke="url(#ac5)" stroke-width="6.40" stroke-linecap="butt" d="M 1219.48 577.41 A 28.80 28.80 0 0 1 1186.44 624.59"/><line x1="1084" y1="653" x2="1176" y2="653" stroke="url(#ac5)" stroke-width="1.2"/><text x="1130" y="673" font-family="Liberation Sans, Arial, DejaVu Sans, sans-serif" font-size="13" font-weight="600" letter-spacing="5" text-anchor="middle" fill="url(#ac5)">EST &#183; 2026</text></g><text x="948" y="724" font-family="Liberation Sans, Arial, DejaVu Sans, sans-serif" font-size="13" font-weight="800" letter-spacing="1.5" fill="#11161F">H6 MIDNIGHT PLATINUM</text></svg>