<svg xmlns="http://www.w3.org/2000/svg" width="1400" height="990" viewBox="0 0 1400 990"><defs><filter id="soft" x="-20%" y="-20%" width="140%" height="140%"><feDropShadow dx="0" dy="6" stdDeviation="14" flood-color="#000" flood-opacity="0.12"/></filter></defs><rect width="1400" height="990" fill="#FBFAF7"/><text x="80" y="86" font-family="Liberation Sans, Arial, DejaVu Sans, sans-serif" font-size="20" font-weight="800" letter-spacing="4" fill="#0E3B2E">FOMO MARKETING</text><text x="80" y="112" font-family="Liberation Sans, Arial, DejaVu Sans, sans-serif" font-size="13" letter-spacing="3" fill="#999">LOGO-KONZEPT K4 &#183; WORT + BILD</text><text x="1320" y="92" font-family="Liberation Sans, Arial, DejaVu Sans, sans-serif" font-size="42" font-weight="800" text-anchor="end" fill="#0E3B2E">BUZZ</text><text x="1320" y="116" font-family="Liberation Sans, Arial, DejaVu Sans, sans-serif" font-size="14" font-style="italic" text-anchor="end" fill="#888">Wort in der Sprechblase</text><line x1="80" y1="138" x2="1320" y2="138" stroke="#CDA75A" stroke-width="2"/><rect x="90" y="178" width="580" height="560" rx="22" fill="#F1EEE3" stroke="#0000000f" stroke-width="1.2" filter="url(#soft)"/><rect x="730" y="178" width="580" height="560" rx="22" fill="#0A241B" filter="url(#soft)"/><rect x="119.0" y="352.4" width="522.0" height="162.4" rx="45.5" fill="none" stroke="#CDA75A" stroke-width="9.9"/><path d="M 254.7 512.8 l -7.0 30.2 l 37.1 -30.2 Z" fill="#F1EEE3" stroke="#CDA75A" stroke-width="9.9" stroke-linejoin="round"/><path fill="none" stroke="#0E3B2E" stroke-width="11.60" stroke-linecap="round" stroke-linejoin="round" stroke-miterlimit="8" d="M 152.64 375.64 L 152.64 491.64 M 152.64 381.44 L 211.80 381.44 M 152.64 433.64 L 201.41 433.64"/><circle cx="290.68" cy="433.64" r="52.20" fill="none" stroke="#0E3B2E" stroke-width="11.60" stroke-linecap="round" stroke-linejoin="round" stroke-miterlimit="8"/><path fill="none" stroke="#0E3B2E" stroke-width="11.60" stroke-linecap="round" stroke-linejoin="round" stroke-miterlimit="8" d="M 375.36 491.64 L 375.36 375.64 L 422.92 445.24 L 470.48 375.64 L 470.48 491.64"/><circle cx="555.16" cy="433.64" r="52.20" fill="none" stroke="#0E3B2E" stroke-width="11.60" stroke-linecap="round" stroke-linejoin="round" stroke-miterlimit="8"/><text x="380.00" y="530.62" font-family="Liberation Sans, Arial, DejaVu Sans, sans-serif" font-size="17.40" font-weight="600" letter-spacing="10.79" text-anchor="middle" fill="#0E3B2E">MARKETING</text><rect x="759.0" y="352.4" width="522.0" height="162.4" rx="45.5" fill="none" stroke="#CDA75A" stroke-width="9.9"/><path d="M 894.7 512.8 l -7.0 30.2 l 37.1 -30.2 Z" fill="#0A241B" stroke="#CDA75A" stroke-width="9.9" stroke-linejoin="round"/><path fill="none" stroke="#E9E3D2" stroke-width="11.60" stroke-linecap="round" stroke-linejoin="round" stroke-miterlimit="8" d="M 792.64 375.64 L 792.64 491.64 M 792.64 381.44 L 851.80 381.44 M 792.64 433.64 L 841.41 433.64"/><circle cx="930.68" cy="433.64" r="52.20" fill="none" stroke="#E9E3D2" stroke-width="11.60" stroke-linecap="round" stroke-linejoin="round" stroke-miterlimit="8"/><path fill="none" stroke="#E9E3D2" stroke-width="11.60" stroke-linecap="round" stroke-linejoin="round" stroke-miterlimit="8" d="M 1015.36 491.64 L 1015.36 375.64 L 1062.92 445.24 L 1110.48 375.64 L 1110.48 491.64"/><circle cx="1195.16" cy="433.64" r="52.20" fill="none" stroke="#E9E3D2" stroke-width="11.60" stroke-linecap="round" stroke-linejoin="round" stroke-miterlimit="8"/><text x="1020.00" y="530.62" font-family="Liberation Sans, Arial, DejaVu Sans, sans-serif" font-size="17.40" font-weight="600" letter-spacing="10.79" text-anchor="middle" fill="#E9E3D2">MARKETING</text><text x="110" y="720" font-family="Liberation Sans, Arial, DejaVu Sans, sans-serif" font-size="12" letter-spacing="2" fill="#aaa">HELLER UNTERGRUND</text><text x="750" y="720" font-family="Liberation Sans, Arial, DejaVu Sans, sans-serif" font-size="12" letter-spacing="2" fill="#ffffff66">DUNKLER UNTERGRUND</text><text x="80" y="782" font-family="Liberation Sans, Arial, DejaVu Sans, sans-serif" font-size="15" fill="#333">FOMO sitzt in einer Sprechblase – das Gespraech, ueber das alle reden. Wort und Bild</text><text x="80" y="804" font-family="Liberation Sans, Arial, DejaVu Sans, sans-serif" font-size="15" fill="#333">verschmelzen zu einem Social-Zeichen. Smaragd und Gold geben eine wertige Note.</text><rect x="812" y="768" width="34" height="34" rx="7" fill="#0E3B2E" stroke="#00000022" stroke-width="1"/><text x="856" y="782" font-family="Liberation Sans, Arial, DejaVu Sans, sans-serif" font-size="13" font-weight="700" fill="#1a1a1a">PRIMAER</text><text x="856" y="798" font-family="Liberation Sans, Arial, DejaVu Sans, sans-serif" font-size="12" fill="#777">#0E3B2E</text><rect x="940" y="768" width="34" height="34" rx="7" fill="#CDA75A" stroke="#00000022" stroke-width="1"/><text x="984" y="782" font-family="Liberation Sans, Arial, DejaVu Sans, sans-serif" font-size="13" font-weight="700" fill="#1a1a1a">AKZENT</text><text x="984" y="798" font-family="Liberation Sans, Arial, DejaVu Sans, sans-serif" font-size="12" fill="#777">#CDA75A</text><rect x="1068" y="768" width="34" height="34" rx="7" fill="#F1EEE3" stroke="#00000022" stroke-width="1"/><text x="1112" y="782" font-family="Liberation Sans, Arial, DejaVu Sans, sans-serif" font-size="13" font-weight="700" fill="#1a1a1a">HELL</text><text x="1112" y="798" font-family="Liberation Sans, Arial, DejaVu Sans, sans-serif" font-size="12" fill="#777">#F1EEE3</text><rect x="1196" y="768" width="34" height="34" rx="7" fill="#0A241B" stroke="#00000022" stroke-width="1"/><text x="1240" y="782" font-family="Liberation Sans, Arial, DejaVu Sans, sans-serif" font-size="13" font-weight="700" fill="#1a1a1a">DUNKEL</text><text x="1240" y="798" font-family="Liberation Sans, Arial, DejaVu Sans, sans-serif" font-size="12" fill="#777">#0A241B</text></svg>