<svg xmlns="http://www.w3.org/2000/svg" width="1400" height="990" viewBox="0 0 1400 990"><defs><filter id="soft" x="-20%" y="-20%" width="140%" height="140%"><feDropShadow dx="0" dy="6" stdDeviation="14" flood-color="#000" flood-opacity="0.12"/></filter></defs><rect width="1400" height="990" fill="#FBFAF7"/><text x="80" y="86" font-family="Liberation Sans, Arial, DejaVu Sans, sans-serif" font-size="20" font-weight="800" letter-spacing="4" fill="#0B1F3A">FOMO MARKETING</text><text x="80" y="112" font-family="Liberation Sans, Arial, DejaVu Sans, sans-serif" font-size="13" letter-spacing="3" fill="#999">UEBERSICHT &#183; WORT + BILD</text><line x1="80" y1="138" x2="1320" y2="138" stroke="#0B1F3A" stroke-width="2"/><rect x="90" y="180" width="400" height="250" rx="22" fill="#F4F6F8" stroke="#0000000f" stroke-width="1.2" filter="url(#soft)"/><path fill="none" stroke="#0B1F3A" stroke-width="6.00" stroke-linecap="round" stroke-linejoin="round" stroke-miterlimit="8" d="M 172.40 259.00 L 172.40 319.00 M 172.40 262.00 L 203.00 262.00 M 172.40 289.00 L 197.62 289.00"/><circle cx="243.80" cy="289.00" r="27.00" fill="none" stroke="#0B1F3A" stroke-width="6.00" stroke-linecap="round" stroke-linejoin="round" stroke-miterlimit="8"/><path fill="none" stroke="#0B1F3A" stroke-width="6.00" stroke-linecap="round" stroke-linejoin="round" stroke-miterlimit="8" d="M 287.60 319.00 L 287.60 259.00 L 312.20 295.00 L 336.80 259.00 L 336.80 319.00"/><circle cx="380.60" cy="289.00" r="27.00" fill="none" stroke="#0B1F3A" stroke-width="6.00" stroke-linecap="round" stroke-linejoin="round" stroke-miterlimit="8"/><circle cx="400.0" cy="269.6" r="14.2" fill="#F4F6F8"/><circle cx="400.0" cy="269.6" r="10.2" fill="#E5484D"/><text x="108" y="414" font-family="Liberation Sans, Arial, DejaVu Sans, sans-serif" font-size="13" font-weight="800" letter-spacing="1.5" fill="#0B1F3A">K1 NOTIFICATION</text><rect x="510" y="180" width="400" height="250" rx="22" fill="#F7F3EA" stroke="#0000000f" stroke-width="1.2" filter="url(#soft)"/><path fill="none" stroke="#0B1F3A" stroke-width="6.00" stroke-linecap="round" stroke-linejoin="round" stroke-miterlimit="8" d="M 592.40 259.00 L 592.40 319.00 M 592.40 262.00 L 623.00 262.00 M 592.40 289.00 L 617.62 289.00"/><circle cx="663.80" cy="289.00" r="27.00" fill="none" stroke="#0B1F3A" stroke-width="6.00" stroke-linecap="round" stroke-linejoin="round" stroke-miterlimit="8"/><path fill="none" stroke="#0B1F3A" stroke-width="6.00" stroke-linecap="round" stroke-linejoin="round" stroke-miterlimit="8" d="M 707.60 319.00 L 707.60 259.00 L 732.20 295.00 L 756.80 259.00 L 756.80 319.00"/><circle cx="800.60" cy="289.00" r="27.00" fill="none" stroke="#0B1F3A" stroke-width="6.00" stroke-linecap="round" stroke-linejoin="round" stroke-miterlimit="8"/><circle cx="663.8" cy="289.0" r="7.2" fill="#C9A24B"/><path d="M 632.89 269.68 A 36.45 36.45 0 0 1 694.71 269.68" fill="none" stroke="#C9A24B" stroke-width="3.72" stroke-linecap="round"/><path d="M 624.87 264.68 A 45.90 45.90 0 0 1 702.73 264.68" fill="none" stroke="#C9A24B" stroke-width="3.72" stroke-linecap="round"/><path d="M 616.86 259.67 A 55.35 55.35 0 0 1 710.74 259.67" fill="none" stroke="#C9A24B" stroke-width="3.72" stroke-linecap="round"/><text x="528" y="414" font-family="Liberation Sans, Arial, DejaVu Sans, sans-serif" font-size="13" font-weight="800" letter-spacing="1.5" fill="#0B1F3A">K2 SIGNAL</text><rect x="930" y="180" width="400" height="250" rx="22" fill="#F4F1EA" stroke="#0000000f" stroke-width="1.2" filter="url(#soft)"/><path fill="none" stroke="#15110C" stroke-width="6.00" stroke-linecap="butt" stroke-linejoin="miter" stroke-miterlimit="8" d="M 1012.40 259.00 L 1012.40 319.00 M 1012.40 262.00 L 1043.00 262.00 M 1012.40 289.00 L 1037.62 289.00"/><circle cx="1083.80" cy="289.00" r="27.00" fill="none" stroke="#15110C" stroke-width="6.00" stroke-linecap="butt" stroke-linejoin="miter" stroke-miterlimit="8"/><path fill="none" stroke="#15110C" stroke-width="6.00" stroke-linecap="butt" stroke-linejoin="miter" stroke-miterlimit="8" d="M 1127.60 319.00 L 1127.60 259.00 L 1152.20 295.00 L 1176.80 259.00 L 1176.80 319.00"/><circle cx="1220.60" cy="289.00" r="27.00" fill="none" stroke="#15110C" stroke-width="6.00" stroke-linecap="butt" stroke-linejoin="miter" stroke-miterlimit="8"/><path d="M 1075.2 276.6 L 1075.2 301.4 L 1097.8 289.0 Z" fill="#C9A24B"/><text x="948" y="414" font-family="Liberation Sans, Arial, DejaVu Sans, sans-serif" font-size="13" font-weight="800" letter-spacing="1.5" fill="#15110C">K3 PLAY</text><rect x="90" y="490" width="400" height="250" rx="22" fill="#F1EEE3" stroke="#0000000f" stroke-width="1.2" filter="url(#soft)"/><rect x="155.0" y="557.0" width="270.0" height="84.0" rx="23.5" fill="none" stroke="#CDA75A" stroke-width="5.1"/><path d="M 225.2 639.0 l -3.6 15.6 l 19.2 -15.6 Z" fill="#F1EEE3" stroke="#CDA75A" stroke-width="5.1" stroke-linejoin="round"/><path fill="none" stroke="#0E3B2E" stroke-width="6.00" stroke-linecap="round" stroke-linejoin="round" stroke-miterlimit="8" d="M 172.40 569.00 L 172.40 629.00 M 172.40 572.00 L 203.00 572.00 M 172.40 599.00 L 197.62 599.00"/><circle cx="243.80" cy="599.00" r="27.00" fill="none" stroke="#0E3B2E" stroke-width="6.00" stroke-linecap="round" stroke-linejoin="round" stroke-miterlimit="8"/><path fill="none" stroke="#0E3B2E" stroke-width="6.00" stroke-linecap="round" stroke-linejoin="round" stroke-miterlimit="8" d="M 287.60 629.00 L 287.60 569.00 L 312.20 605.00 L 336.80 569.00 L 336.80 629.00"/><circle cx="380.60" cy="599.00" r="27.00" fill="none" stroke="#0E3B2E" stroke-width="6.00" stroke-linecap="round" stroke-linejoin="round" stroke-miterlimit="8"/><text x="108" y="724" font-family="Liberation Sans, Arial, DejaVu Sans, sans-serif" font-size="13" font-weight="800" letter-spacing="1.5" fill="#0E3B2E">K4 BUZZ</text><rect x="510" y="490" width="400" height="250" rx="22" fill="#F7F3EA" stroke="#0000000f" stroke-width="1.2" filter="url(#soft)"/><path fill="none" stroke="#0B1F3A" stroke-width="6.00" stroke-linecap="round" stroke-linejoin="round" stroke-miterlimit="8" d="M 592.40 569.00 L 592.40 629.00 M 592.40 572.00 L 623.00 572.00 M 592.40 599.00 L 617.62 599.00"/><circle cx="663.80" cy="599.00" r="27.00" fill="none" stroke="#0B1F3A" stroke-width="6.00" stroke-linecap="round" stroke-linejoin="round" stroke-miterlimit="8"/><path fill="none" stroke="#0B1F3A" stroke-width="6.00" stroke-linecap="round" stroke-linejoin="round" stroke-miterlimit="8" d="M 707.60 629.00 L 707.60 569.00 L 732.20 605.00 L 756.80 569.00 L 756.80 629.00"/><circle cx="800.60" cy="599.00" r="27.00" fill="none" stroke="#0B1F3A" stroke-width="6.00" stroke-linecap="round" stroke-linejoin="round" stroke-miterlimit="8"/><path d="M 571.4 550.1 L 592.4 569.0 L 663.8 572.0 L 704.6 569.0 L 759.8 569.0 L 800.6 572.0 L 848.6 554.1" fill="none" stroke="#C9A24B" stroke-width="2.5" stroke-opacity="0.85" stroke-linejoin="round"/><circle cx="571.4" cy="550.1" r="4.5" fill="#C9A24B"/><circle cx="592.4" cy="569.0" r="4.5" fill="#C9A24B"/><circle cx="663.8" cy="572.0" r="4.5" fill="#C9A24B"/><circle cx="704.6" cy="569.0" r="4.5" fill="#C9A24B"/><circle cx="759.8" cy="569.0" r="4.5" fill="#C9A24B"/><circle cx="800.6" cy="572.0" r="4.5" fill="#C9A24B"/><circle cx="848.6" cy="554.1" r="4.5" fill="#C9A24B"/><text x="528" y="724" font-family="Liberation Sans, Arial, DejaVu Sans, sans-serif" font-size="13" font-weight="800" letter-spacing="1.5" fill="#0B1F3A">K5 WIRED</text><rect x="930" y="490" width="400" height="250" rx="22" fill="#F6EFE9" stroke="#0000000f" stroke-width="1.2" filter="url(#soft)"/><path fill="none" stroke="#5E1F2E" stroke-width="6.00" stroke-linecap="round" stroke-linejoin="round" stroke-miterlimit="8" d="M 1012.40 569.00 L 1012.40 629.00 M 1012.40 572.00 L 1043.00 572.00 M 1012.40 599.00 L 1037.62 599.00"/><circle cx="1083.80" cy="599.00" r="27.00" fill="none" stroke="#5E1F2E" stroke-width="6.00" stroke-linecap="round" stroke-linejoin="round" stroke-miterlimit="8"/><path fill="none" stroke="#5E1F2E" stroke-width="6.00" stroke-linecap="round" stroke-linejoin="round" stroke-miterlimit="8" d="M 1127.60 629.00 L 1127.60 569.00 L 1152.20 605.00 L 1176.80 569.00 L 1176.80 629.00"/><circle cx="1220.60" cy="599.00" r="27.00" fill="none" stroke="#5E1F2E" stroke-width="6.00" stroke-linecap="round" stroke-linejoin="round" stroke-miterlimit="8"/><circle cx="1220.6" cy="599.0" r="4.2" fill="#C2A14A"/><line x1="1220.6" y1="599.0" x2="1220.6" y2="585.5" stroke="#C2A14A" stroke-width="4.2" stroke-linecap="round"/><line x1="1220.6" y1="599.0" x2="1239.7" y2="595.6" stroke="#C2A14A" stroke-width="4.2" stroke-linecap="round"/><text x="948" y="724" font-family="Liberation Sans, Arial, DejaVu Sans, sans-serif" font-size="13" font-weight="800" letter-spacing="1.5" fill="#5E1F2E">K6 COUNTDOWN</text></svg>