<svg xmlns="http://www.w3.org/2000/svg" width="1400" height="990" viewBox="0 0 1400 990"><defs><filter id="soft" x="-20%" y="-20%" width="140%" height="140%"><feDropShadow dx="0" dy="6" stdDeviation="14" flood-color="#000" flood-opacity="0.12"/></filter></defs><rect width="1400" height="990" fill="#FBFAF7"/><text x="80" y="86" font-family="Liberation Sans, Arial, DejaVu Sans, sans-serif" font-size="20" font-weight="800" letter-spacing="4" fill="#15110C">FOMO MARKETING</text><text x="80" y="112" font-family="Liberation Sans, Arial, DejaVu Sans, sans-serif" font-size="13" letter-spacing="3" fill="#999">LOGO-KONZEPT M2 &#183; BILDMARKE / EMBLEM</text><text x="1320" y="92" font-family="Liberation Sans, Arial, DejaVu Sans, sans-serif" font-size="44" font-weight="800" text-anchor="end" fill="#15110C">F-SIEGEL</text><text x="1320" y="116" font-family="Liberation Sans, Arial, DejaVu Sans, sans-serif" font-size="14" font-style="italic" text-anchor="end" fill="#888">VW-Prinzip: Monogramm im Kreis</text><line x1="80" y1="138" x2="1320" y2="138" stroke="#C9A24B" stroke-width="2"/><rect x="90" y="178" width="580" height="560" rx="22" fill="#F4F1EA" stroke="#0000000f" stroke-width="1.2" filter="url(#soft)"/><rect x="730" y="178" width="580" height="560" rx="22" fill="#15110C" filter="url(#soft)"/><g transform="translate(380.0 368.0) scale(1.0) translate(-380.0 -368.0)"><circle cx="380.00" cy="368.00" r="108.00" fill="#15110C" opacity="1.0"/><circle cx="380.00" cy="368.00" r="96.00" fill="none" stroke="#C9A24B" stroke-width="2.20"/><rect x="344.0" y="310.0" width="23" height="116" fill="#C9A24B"/><rect x="344.0" y="310.0" width="71.9" height="23" fill="#C9A24B"/><rect x="344.0" y="356.5" width="57.5" height="23" fill="#C9A24B"/></g><path fill="none" stroke="#15110C" stroke-width="5.40" stroke-linecap="butt" stroke-linejoin="miter" stroke-miterlimit="8" d="M 274.16 518.00 L 274.16 572.00 M 274.16 520.70 L 301.70 520.70 M 274.16 545.00 L 296.86 545.00"/><circle cx="338.42" cy="545.00" r="24.30" fill="none" stroke="#15110C" stroke-width="5.40" stroke-linecap="butt" stroke-linejoin="miter" stroke-miterlimit="8"/><path fill="none" stroke="#15110C" stroke-width="5.40" stroke-linecap="butt" stroke-linejoin="miter" stroke-miterlimit="8" d="M 377.84 572.00 L 377.84 518.00 L 399.98 550.40 L 422.12 518.00 L 422.12 572.00"/><circle cx="461.54" cy="545.00" r="24.30" fill="none" stroke="#15110C" stroke-width="5.40" stroke-linecap="butt" stroke-linejoin="miter" stroke-miterlimit="8"/><text x="380.00" y="599.00" font-family="Liberation Sans, Arial, DejaVu Sans, sans-serif" font-size="18.36" font-weight="600" letter-spacing="11.38" text-anchor="middle" fill="#15110C">MARKETING</text><g transform="translate(1020.0 368.0) scale(1.0) translate(-1020.0 -368.0)"><circle cx="1020.00" cy="368.00" r="108.00" fill="#EFE6D2" opacity="1.0"/><circle cx="1020.00" cy="368.00" r="96.00" fill="none" stroke="#C9A24B" stroke-width="2.20"/><rect x="984.0" y="310.0" width="23" height="116" fill="#C9A24B"/><rect x="984.0" y="310.0" width="71.9" height="23" fill="#C9A24B"/><rect x="984.0" y="356.5" width="57.5" height="23" fill="#C9A24B"/></g><path fill="none" stroke="#EFE6D2" stroke-width="5.40" stroke-linecap="butt" stroke-linejoin="miter" stroke-miterlimit="8" d="M 914.16 518.00 L 914.16 572.00 M 914.16 520.70 L 941.70 520.70 M 914.16 545.00 L 936.86 545.00"/><circle cx="978.42" cy="545.00" r="24.30" fill="none" stroke="#EFE6D2" stroke-width="5.40" stroke-linecap="butt" stroke-linejoin="miter" stroke-miterlimit="8"/><path fill="none" stroke="#EFE6D2" stroke-width="5.40" stroke-linecap="butt" stroke-linejoin="miter" stroke-miterlimit="8" d="M 1017.84 572.00 L 1017.84 518.00 L 1039.98 550.40 L 1062.12 518.00 L 1062.12 572.00"/><circle cx="1101.54" cy="545.00" r="24.30" fill="none" stroke="#EFE6D2" stroke-width="5.40" stroke-linecap="butt" stroke-linejoin="miter" stroke-miterlimit="8"/><text x="1020.00" y="599.00" font-family="Liberation Sans, Arial, DejaVu Sans, sans-serif" font-size="18.36" font-weight="600" letter-spacing="11.38" text-anchor="middle" fill="#EFE6D2">MARKETING</text><text x="110" y="720" font-family="Liberation Sans, Arial, DejaVu Sans, sans-serif" font-size="12" letter-spacing="2" fill="#aaa">HELLER UNTERGRUND</text><text x="750" y="720" font-family="Liberation Sans, Arial, DejaVu Sans, sans-serif" font-size="12" letter-spacing="2" fill="#ffffff66">DUNKLER UNTERGRUND</text><text x="80" y="782" font-family="Liberation Sans, Arial, DejaVu Sans, sans-serif" font-size="15" fill="#333">Ein bold gesetztes 'F' in einem Siegel-Kreis – ein klassisches Monogramm-Emblem wie das</text><text x="80" y="804" font-family="Liberation Sans, Arial, DejaVu Sans, sans-serif" font-size="15" fill="#333">VW-Zeichen. Schwarz-Gold wirkt wie ein Premium-Stempel und funktioniert in jeder Groesse.</text><rect x="812" y="768" width="34" height="34" rx="7" fill="#15110C" stroke="#00000022" stroke-width="1"/><text x="856" y="782" font-family="Liberation Sans, Arial, DejaVu Sans, sans-serif" font-size="13" font-weight="700" fill="#1a1a1a">PRIMAER</text><text x="856" y="798" font-family="Liberation Sans, Arial, DejaVu Sans, sans-serif" font-size="12" fill="#777">#15110C</text><rect x="940" y="768" width="34" height="34" rx="7" fill="#C9A24B" stroke="#00000022" stroke-width="1"/><text x="984" y="782" font-family="Liberation Sans, Arial, DejaVu Sans, sans-serif" font-size="13" font-weight="700" fill="#1a1a1a">AKZENT</text><text x="984" y="798" font-family="Liberation Sans, Arial, DejaVu Sans, sans-serif" font-size="12" fill="#777">#C9A24B</text><rect x="1068" y="768" width="34" height="34" rx="7" fill="#F4F1EA" stroke="#00000022" stroke-width="1"/><text x="1112" y="782" font-family="Liberation Sans, Arial, DejaVu Sans, sans-serif" font-size="13" font-weight="700" fill="#1a1a1a">HELL</text><text x="1112" y="798" font-family="Liberation Sans, Arial, DejaVu Sans, sans-serif" font-size="12" fill="#777">#F4F1EA</text><rect x="1196" y="768" width="34" height="34" rx="7" fill="#15110C" stroke="#00000022" stroke-width="1"/><text x="1240" y="782" font-family="Liberation Sans, Arial, DejaVu Sans, sans-serif" font-size="13" font-weight="700" fill="#1a1a1a">DUNKEL</text><text x="1240" y="798" font-family="Liberation Sans, Arial, DejaVu Sans, sans-serif" font-size="12" fill="#777">#15110C</text></svg>