<svg xmlns="http://www.w3.org/2000/svg" width="1400" height="990" viewBox="0 0 1400 990"><defs><filter id="soft" x="-20%" y="-20%" width="140%" height="140%"><feDropShadow dx="0" dy="6" stdDeviation="14" flood-color="#000" flood-opacity="0.12"/></filter></defs><rect width="1400" height="990" fill="#FBFAF7"/><text x="80" y="86" font-family="Liberation Sans, Arial, DejaVu Sans, sans-serif" font-size="20" font-weight="800" letter-spacing="4" fill="#5E1F2E">FOMO MARKETING</text><text x="80" y="112" font-family="Liberation Sans, Arial, DejaVu Sans, sans-serif" font-size="13" letter-spacing="3" fill="#999">LOGO-KONZEPT M5 &#183; BILDMARKE / EMBLEM</text><text x="1320" y="92" font-family="Liberation Sans, Arial, DejaVu Sans, sans-serif" font-size="44" font-weight="800" text-anchor="end" fill="#5E1F2E">BULLSEYE</text><text x="1320" y="116" font-family="Liberation Sans, Arial, DejaVu Sans, sans-serif" font-size="14" font-style="italic" text-anchor="end" fill="#888">Im Zentrum der Aufmerksamkeit</text><line x1="80" y1="138" x2="1320" y2="138" stroke="#C2A14A" stroke-width="2"/><rect x="90" y="178" width="580" height="560" rx="22" fill="#F6EFE9" stroke="#0000000f" stroke-width="1.2" filter="url(#soft)"/><rect x="730" y="178" width="580" height="560" rx="22" fill="#2A0F16" filter="url(#soft)"/><g transform="translate(380.0 368.0) scale(1.0) translate(-380.0 -368.0)"><circle cx="380.00" cy="368.00" r="100.00" fill="none" stroke="#C2A14A" stroke-width="9.00"/><circle cx="380.00" cy="368.00" r="64.00" fill="none" stroke="#5E1F2E" stroke-width="6.00"/><circle cx="380.00" cy="368.00" r="20.00" fill="#C2A14A" opacity="1.0"/><circle cx="430.00" cy="281.40" r="13.00" fill="#5E1F2E" opacity="1.0"/></g><path fill="none" stroke="#5E1F2E" stroke-width="5.40" stroke-linecap="butt" stroke-linejoin="miter" stroke-miterlimit="8" d="M 274.16 518.00 L 274.16 572.00 M 274.16 520.70 L 301.70 520.70 M 274.16 545.00 L 296.86 545.00"/><circle cx="338.42" cy="545.00" r="24.30" fill="none" stroke="#5E1F2E" stroke-width="5.40" stroke-linecap="butt" stroke-linejoin="miter" stroke-miterlimit="8"/><path fill="none" stroke="#5E1F2E" stroke-width="5.40" stroke-linecap="butt" stroke-linejoin="miter" stroke-miterlimit="8" d="M 377.84 572.00 L 377.84 518.00 L 399.98 550.40 L 422.12 518.00 L 422.12 572.00"/><circle cx="461.54" cy="545.00" r="24.30" fill="none" stroke="#5E1F2E" stroke-width="5.40" stroke-linecap="butt" stroke-linejoin="miter" stroke-miterlimit="8"/><text x="380.00" y="599.00" font-family="Liberation Sans, Arial, DejaVu Sans, sans-serif" font-size="18.36" font-weight="600" letter-spacing="11.38" text-anchor="middle" fill="#5E1F2E">MARKETING</text><g transform="translate(1020.0 368.0) scale(1.0) translate(-1020.0 -368.0)"><circle cx="1020.00" cy="368.00" r="100.00" fill="none" stroke="#C2A14A" stroke-width="9.00"/><circle cx="1020.00" cy="368.00" r="64.00" fill="none" stroke="#EBD9C7" stroke-width="6.00"/><circle cx="1020.00" cy="368.00" r="20.00" fill="#C2A14A" opacity="1.0"/><circle cx="1070.00" cy="281.40" r="13.00" fill="#EBD9C7" opacity="1.0"/></g><path fill="none" stroke="#EBD9C7" stroke-width="5.40" stroke-linecap="butt" stroke-linejoin="miter" stroke-miterlimit="8" d="M 914.16 518.00 L 914.16 572.00 M 914.16 520.70 L 941.70 520.70 M 914.16 545.00 L 936.86 545.00"/><circle cx="978.42" cy="545.00" r="24.30" fill="none" stroke="#EBD9C7" stroke-width="5.40" stroke-linecap="butt" stroke-linejoin="miter" stroke-miterlimit="8"/><path fill="none" stroke="#EBD9C7" stroke-width="5.40" stroke-linecap="butt" stroke-linejoin="miter" stroke-miterlimit="8" d="M 1017.84 572.00 L 1017.84 518.00 L 1039.98 550.40 L 1062.12 518.00 L 1062.12 572.00"/><circle cx="1101.54" cy="545.00" r="24.30" fill="none" stroke="#EBD9C7" stroke-width="5.40" stroke-linecap="butt" stroke-linejoin="miter" stroke-miterlimit="8"/><text x="1020.00" y="599.00" font-family="Liberation Sans, Arial, DejaVu Sans, sans-serif" font-size="18.36" font-weight="600" letter-spacing="11.38" text-anchor="middle" fill="#EBD9C7">MARKETING</text><text x="110" y="720" font-family="Liberation Sans, Arial, DejaVu Sans, sans-serif" font-size="12" letter-spacing="2" fill="#aaa">HELLER UNTERGRUND</text><text x="750" y="720" font-family="Liberation Sans, Arial, DejaVu Sans, sans-serif" font-size="12" letter-spacing="2" fill="#ffffff66">DUNKLER UNTERGRUND</text><text x="80" y="782" font-family="Liberation Sans, Arial, DejaVu Sans, sans-serif" font-size="15" fill="#333">Konzentrische Ringe mit Mittelpunkt – das Ziel, der Fokus, das Zentrum. Steht dafuer, Marken ins</text><text x="80" y="804" font-family="Liberation Sans, Arial, DejaVu Sans, sans-serif" font-size="15" fill="#333">Rampenlicht zu ruecken. Oxblood und Gold geben einen souveraenen, edlen Auftritt.</text><rect x="812" y="768" width="34" height="34" rx="7" fill="#5E1F2E" stroke="#00000022" stroke-width="1"/><text x="856" y="782" font-family="Liberation Sans, Arial, DejaVu Sans, sans-serif" font-size="13" font-weight="700" fill="#1a1a1a">PRIMAER</text><text x="856" y="798" font-family="Liberation Sans, Arial, DejaVu Sans, sans-serif" font-size="12" fill="#777">#5E1F2E</text><rect x="940" y="768" width="34" height="34" rx="7" fill="#C2A14A" stroke="#00000022" stroke-width="1"/><text x="984" y="782" font-family="Liberation Sans, Arial, DejaVu Sans, sans-serif" font-size="13" font-weight="700" fill="#1a1a1a">AKZENT</text><text x="984" y="798" font-family="Liberation Sans, Arial, DejaVu Sans, sans-serif" font-size="12" fill="#777">#C2A14A</text><rect x="1068" y="768" width="34" height="34" rx="7" fill="#F6EFE9" stroke="#00000022" stroke-width="1"/><text x="1112" y="782" font-family="Liberation Sans, Arial, DejaVu Sans, sans-serif" font-size="13" font-weight="700" fill="#1a1a1a">HELL</text><text x="1112" y="798" font-family="Liberation Sans, Arial, DejaVu Sans, sans-serif" font-size="12" fill="#777">#F6EFE9</text><rect x="1196" y="768" width="34" height="34" rx="7" fill="#2A0F16" stroke="#00000022" stroke-width="1"/><text x="1240" y="782" font-family="Liberation Sans, Arial, DejaVu Sans, sans-serif" font-size="13" font-weight="700" fill="#1a1a1a">DUNKEL</text><text x="1240" y="798" font-family="Liberation Sans, Arial, DejaVu Sans, sans-serif" font-size="12" fill="#777">#2A0F16</text></svg>