<svg xmlns="http://www.w3.org/2000/svg" width="1400" height="990" viewBox="0 0 1400 990"><rect width="1400" height="990" fill="#3A111B"/><g transform="translate(700.0 318.6) scale(1.7) translate(-700.0 -475.0)"><circle cx="700.0" cy="475.0" r="100.0" fill="none" stroke="#EBDFC8" stroke-width="9.0"/><circle cx="700.0" cy="475.0" r="62.0" fill="none" stroke="#EBDFC8" stroke-width="5.0"/><circle cx="700.0" cy="475.0" r="15.0" fill="#EBDFC8"/><circle cx="753.0" cy="390.2" r="10.0" fill="#EBDFC8"/></g><path fill="none" stroke="#EBDFC8" stroke-width="12.85" stroke-linecap="butt" stroke-linejoin="miter" stroke-miterlimit="8" d="M 511.27 573.60 L 511.27 668.80 M 511.27 580.03 L 579.10 580.03 M 511.27 621.20 L 567.22 621.20"/><circle cx="643.83" cy="621.20" r="41.17" fill="none" stroke="#EBDFC8" stroke-width="12.85" stroke-linecap="butt" stroke-linejoin="miter" stroke-miterlimit="8"/><rect x="708.57" y="573.60" width="12.85" height="95.20" fill="#EBDFC8"/><rect x="769.97" y="573.60" width="12.85" height="95.20" fill="#EBDFC8"/><path fill="#EBDFC8" d="M 708.57 573.60 L 721.42 573.60 L 745.70 630.72 L 769.97 573.60 L 782.82 573.60 L 745.70 645.50 Z"/><circle cx="847.56" cy="621.20" r="41.17" fill="none" stroke="#EBDFC8" stroke-width="12.85" stroke-linecap="butt" stroke-linejoin="miter" stroke-miterlimit="8"/><text x="700.00" y="718.30" font-family="Liberation Sans, Arial, DejaVu Sans, sans-serif" font-size="30.46" font-weight="600" letter-spacing="21.32" text-anchor="middle" fill="#EBDFC8">MARKETING</text><text x="700.0" y="840" font-family="Liberation Sans, Arial, DejaVu Sans, sans-serif" font-size="15" letter-spacing="4" text-anchor="middle" fill="#EBDFC8">BULLSEYE-RICHTUNG &#183; 6 ENTWUERFE</text><text x="80" y="940" font-family="Liberation Sans, Arial, DejaVu Sans, sans-serif" font-size="13" letter-spacing="2" fill="#ffffff55">FOMO MARKETING</text><text x="1320" y="940" font-family="Liberation Sans, Arial, DejaVu Sans, sans-serif" font-size="13" letter-spacing="2" text-anchor="end" fill="#ffffff55">09.06.2026</text></svg>