<svg xmlns="http://www.w3.org/2000/svg" width="1400" height="990" viewBox="0 0 1400 990"><defs><filter id="soft" x="-20%" y="-20%" width="140%" height="140%"><feDropShadow dx="0" dy="6" stdDeviation="14" flood-color="#000" flood-opacity="0.12"/></filter></defs><rect width="1400" height="990" fill="#FBFAF7"/><text x="80" y="86" font-family="Liberation Sans, Arial, DejaVu Sans, sans-serif" font-size="20" font-weight="800" letter-spacing="4" fill="#0B1F3A">FOMO MARKETING</text><text x="80" y="112" font-family="Liberation Sans, Arial, DejaVu Sans, sans-serif" font-size="13" letter-spacing="3" fill="#999">UEBERSICHT &#183; BILDMARKEN</text><line x1="80" y1="138" x2="1320" y2="138" stroke="#0B1F3A" stroke-width="2"/><rect x="90" y="180" width="400" height="250" rx="22" fill="#F7F3EA" stroke="#0000000f" stroke-width="1.2" filter="url(#soft)"/><g transform="translate(290.0 281.0) scale(0.62) translate(-290.0 -281.0)"><circle cx="179.00" cy="281.00" r="56.00" fill="none" stroke="#0B1F3A" stroke-width="8.50"/><circle cx="253.00" cy="281.00" r="56.00" fill="none" stroke="#C9A24B" stroke-width="8.50"/><circle cx="327.00" cy="281.00" r="56.00" fill="none" stroke="#0B1F3A" stroke-width="8.50"/><circle cx="401.00" cy="281.00" r="56.00" fill="none" stroke="#C9A24B" stroke-width="8.50"/></g><text x="108" y="414" font-family="Liberation Sans, Arial, DejaVu Sans, sans-serif" font-size="13" font-weight="800" letter-spacing="1.5" fill="#0B1F3A">M1 VIER RINGE</text><rect x="510" y="180" width="400" height="250" rx="22" fill="#F4F1EA" stroke="#0000000f" stroke-width="1.2" filter="url(#soft)"/><g transform="translate(710.0 281.0) scale(0.62) translate(-710.0 -281.0)"><circle cx="710.00" cy="281.00" r="108.00" fill="#15110C" opacity="1.0"/><circle cx="710.00" cy="281.00" r="96.00" fill="none" stroke="#C9A24B" stroke-width="2.20"/><rect x="674.0" y="223.0" width="23" height="116" fill="#C9A24B"/><rect x="674.0" y="223.0" width="71.9" height="23" fill="#C9A24B"/><rect x="674.0" y="269.5" width="57.5" height="23" fill="#C9A24B"/></g><text x="528" y="414" font-family="Liberation Sans, Arial, DejaVu Sans, sans-serif" font-size="13" font-weight="800" letter-spacing="1.5" fill="#15110C">M2 F-SIEGEL</text><rect x="930" y="180" width="400" height="250" rx="22" fill="#F7F3EA" stroke="#0000000f" stroke-width="1.2" filter="url(#soft)"/><g transform="translate(1130.0 281.0) scale(0.62) translate(-1130.0 -281.0)"><circle cx="1088.00" cy="281.00" r="74.00" fill="#0B1F3A" opacity="0.92"/><circle cx="1172.00" cy="281.00" r="74.00" fill="#C9A24B" opacity="0.92"/></g><text x="948" y="414" font-family="Liberation Sans, Arial, DejaVu Sans, sans-serif" font-size="13" font-weight="800" letter-spacing="1.5" fill="#0B1F3A">M3 DOPPEL-O</text><rect x="90" y="490" width="400" height="250" rx="22" fill="#F1EEE3" stroke="#0000000f" stroke-width="1.2" filter="url(#soft)"/><g transform="translate(290.0 591.0) scale(0.62) translate(-290.0 -591.0)"><path d="M 349.10 515.35 A 96.00 96.00 0 1 1 266.78 497.85" fill="none" stroke="#CDA75A" stroke-width="11.00" stroke-linecap="round"/><circle cx="381.30" cy="561.33" r="17.00" fill="#0E3B2E" opacity="1.0"/></g><text x="108" y="724" font-family="Liberation Sans, Arial, DejaVu Sans, sans-serif" font-size="13" font-weight="800" letter-spacing="1.5" fill="#0E3B2E">M4 DER KREIS</text><rect x="510" y="490" width="400" height="250" rx="22" fill="#F6EFE9" stroke="#0000000f" stroke-width="1.2" filter="url(#soft)"/><g transform="translate(710.0 591.0) scale(0.62) translate(-710.0 -591.0)"><circle cx="710.00" cy="591.00" r="100.00" fill="none" stroke="#C2A14A" stroke-width="9.00"/><circle cx="710.00" cy="591.00" r="64.00" fill="none" stroke="#5E1F2E" stroke-width="6.00"/><circle cx="710.00" cy="591.00" r="20.00" fill="#C2A14A" opacity="1.0"/><circle cx="760.00" cy="504.40" r="13.00" fill="#5E1F2E" opacity="1.0"/></g><text x="528" y="724" font-family="Liberation Sans, Arial, DejaVu Sans, sans-serif" font-size="13" font-weight="800" letter-spacing="1.5" fill="#5E1F2E">M5 BULLSEYE</text><rect x="930" y="490" width="400" height="250" rx="22" fill="#F7F3EA" stroke="#0000000f" stroke-width="1.2" filter="url(#soft)"/><g transform="translate(1130.0 591.0) scale(0.62) translate(-1130.0 -591.0)"><path d="M 1140.03 495.53 A 96.00 96.00 0 0 1 1225.47 580.97" fill="none" stroke="#0B1F3A" stroke-width="15.00" stroke-linecap="round"/><path d="M 1225.47 601.03 A 96.00 96.00 0 0 1 1140.03 686.47" fill="none" stroke="#C9A24B" stroke-width="15.00" stroke-linecap="round"/><path d="M 1119.97 686.47 A 96.00 96.00 0 0 1 1034.53 601.03" fill="none" stroke="#0B1F3A" stroke-width="15.00" stroke-linecap="round"/><path d="M 1034.53 580.97 A 96.00 96.00 0 0 1 1119.97 495.53" fill="none" stroke="#C9A24B" stroke-width="15.00" stroke-linecap="round"/></g><text x="948" y="724" font-family="Liberation Sans, Arial, DejaVu Sans, sans-serif" font-size="13" font-weight="800" letter-spacing="1.5" fill="#0B1F3A">M6 QUARTETT</text></svg>