<svg xmlns="http://www.w3.org/2000/svg" width="1400" height="990" viewBox="0 0 1400 990"><defs><filter id="soft" x="-20%" y="-20%" width="140%" height="140%"><feDropShadow dx="0" dy="6" stdDeviation="14" flood-color="#000" flood-opacity="0.12"/></filter></defs><rect width="1400" height="990" fill="#FBFAF7"/><text x="80" y="86" font-family="Liberation Sans, Arial, DejaVu Sans, sans-serif" font-size="20" font-weight="800" letter-spacing="4" fill="#6E2433">FOMO MARKETING</text><text x="80" y="112" font-family="Liberation Sans, Arial, DejaVu Sans, sans-serif" font-size="13" letter-spacing="3" fill="#999">UEBERSICHT &#183; BULLSEYE-RICHTUNG</text><line x1="80" y1="138" x2="1320" y2="138" stroke="#6E2433" stroke-width="2"/><rect x="90" y="180" width="400" height="250" rx="22" fill="#F0E8D8" stroke="#0000000f" stroke-width="1.2" filter="url(#soft)"/><g transform="translate(290.0 234.0) scale(0.62) translate(-290.0 -291.0)"><circle cx="290.0" cy="291.0" r="100.0" fill="none" stroke="#6E2433" stroke-width="9.0"/><circle cx="290.0" cy="291.0" r="62.0" fill="none" stroke="#6E2433" stroke-width="5.0"/><circle cx="290.0" cy="291.0" r="15.0" fill="#6E2433"/><circle cx="343.0" cy="206.2" r="10.0" fill="#6E2433"/></g><path fill="none" stroke="#6E2433" stroke-width="4.69" stroke-linecap="butt" stroke-linejoin="miter" stroke-miterlimit="8" d="M 222.56 326.96 L 222.56 361.68 M 222.56 329.30 L 239.66 329.30 M 222.56 344.32 L 236.55 344.32"/><circle cx="263.27" cy="344.32" r="15.02" fill="none" stroke="#6E2433" stroke-width="4.69" stroke-linecap="butt" stroke-linejoin="miter" stroke-miterlimit="8"/><path fill="none" stroke="#6E2433" stroke-width="4.69" stroke-linecap="butt" stroke-linejoin="miter" stroke-miterlimit="8" d="M 289.22 361.68 L 289.22 326.96 L 302.85 355.43 L 316.47 326.96 L 316.47 361.68"/><circle cx="342.43" cy="344.32" r="15.02" fill="none" stroke="#6E2433" stroke-width="4.69" stroke-linecap="butt" stroke-linejoin="miter" stroke-miterlimit="8"/><text x="290.00" y="379.73" font-family="Liberation Sans, Arial, DejaVu Sans, sans-serif" font-size="11.11" font-weight="600" letter-spacing="7.78" text-anchor="middle" fill="#6E2433">MARKETING</text><text x="108" y="414" font-family="Liberation Sans, Arial, DejaVu Sans, sans-serif" font-size="13" font-weight="800" letter-spacing="1.5" fill="#6E2433">C1 BULLSEYE</text><rect x="510" y="180" width="400" height="250" rx="22" fill="#ECE6DA" stroke="#0000000f" stroke-width="1.2" filter="url(#soft)"/><g transform="translate(710.0 234.0) scale(0.62) translate(-710.0 -291.0)"><circle cx="710.0" cy="291.0" r="90.0" fill="none" stroke="#1C2A44" stroke-width="8.0"/><circle cx="710.0" cy="291.0" r="9.0" fill="#1C2A44"/><line x1="710.0" y1="233.0" x2="710.0" y2="173.0" stroke="#1C2A44" stroke-width="6.0" stroke-linecap="round"/><line x1="768.0" y1="291.0" x2="828.0" y2="291.0" stroke="#1C2A44" stroke-width="6.0" stroke-linecap="round"/><line x1="710.0" y1="349.0" x2="710.0" y2="409.0" stroke="#1C2A44" stroke-width="6.0" stroke-linecap="round"/><line x1="652.0" y1="291.0" x2="592.0" y2="291.0" stroke="#1C2A44" stroke-width="6.0" stroke-linecap="round"/></g><path fill="none" stroke="#1C2A44" stroke-width="4.69" stroke-linecap="butt" stroke-linejoin="miter" stroke-miterlimit="8" d="M 642.56 326.96 L 642.56 361.68 M 642.56 329.30 L 659.66 329.30 M 642.56 344.32 L 656.55 344.32"/><circle cx="683.27" cy="344.32" r="15.02" fill="none" stroke="#1C2A44" stroke-width="4.69" stroke-linecap="butt" stroke-linejoin="miter" stroke-miterlimit="8"/><path fill="none" stroke="#1C2A44" stroke-width="4.69" stroke-linecap="butt" stroke-linejoin="miter" stroke-miterlimit="8" d="M 709.22 361.68 L 709.22 326.96 L 722.85 355.43 L 736.47 326.96 L 736.47 361.68"/><circle cx="762.43" cy="344.32" r="15.02" fill="none" stroke="#1C2A44" stroke-width="4.69" stroke-linecap="butt" stroke-linejoin="miter" stroke-miterlimit="8"/><text x="710.00" y="379.73" font-family="Liberation Sans, Arial, DejaVu Sans, sans-serif" font-size="11.11" font-weight="600" letter-spacing="7.78" text-anchor="middle" fill="#1C2A44">MARKETING</text><text x="528" y="414" font-family="Liberation Sans, Arial, DejaVu Sans, sans-serif" font-size="13" font-weight="800" letter-spacing="1.5" fill="#1C2A44">C2 CROSSHAIR</text><rect x="930" y="180" width="400" height="250" rx="22" fill="#EAE6D6" stroke="#0000000f" stroke-width="1.2" filter="url(#soft)"/><g transform="translate(1130.0 234.0) scale(0.62) translate(-1130.0 -291.0)"><path d="M 1191.57 212.20 A 100.00 100.00 0 1 1 1105.81 193.97" fill="none" stroke="#1F3D2F" stroke-width="11.00" stroke-linecap="round"/><circle cx="1225.1" cy="260.1" r="16.0" fill="#1F3D2F"/></g><path fill="none" stroke="#1F3D2F" stroke-width="4.69" stroke-linecap="butt" stroke-linejoin="miter" stroke-miterlimit="8" d="M 1062.56 326.96 L 1062.56 361.68 M 1062.56 329.30 L 1079.66 329.30 M 1062.56 344.32 L 1076.55 344.32"/><circle cx="1103.27" cy="344.32" r="15.02" fill="none" stroke="#1F3D2F" stroke-width="4.69" stroke-linecap="butt" stroke-linejoin="miter" stroke-miterlimit="8"/><path fill="none" stroke="#1F3D2F" stroke-width="4.69" stroke-linecap="butt" stroke-linejoin="miter" stroke-miterlimit="8" d="M 1129.22 361.68 L 1129.22 326.96 L 1142.85 355.43 L 1156.47 326.96 L 1156.47 361.68"/><circle cx="1182.43" cy="344.32" r="15.02" fill="none" stroke="#1F3D2F" stroke-width="4.69" stroke-linecap="butt" stroke-linejoin="miter" stroke-miterlimit="8"/><text x="1130.00" y="379.73" font-family="Liberation Sans, Arial, DejaVu Sans, sans-serif" font-size="11.11" font-weight="600" letter-spacing="7.78" text-anchor="middle" fill="#1F3D2F">MARKETING</text><text x="948" y="414" font-family="Liberation Sans, Arial, DejaVu Sans, sans-serif" font-size="13" font-weight="800" letter-spacing="1.5" fill="#1F3D2F">C3 ENTER</text><rect x="90" y="490" width="400" height="250" rx="22" fill="#ECE5DA" stroke="#0000000f" stroke-width="1.2" filter="url(#soft)"/><g transform="translate(290.0 544.0) scale(0.62) translate(-290.0 -601.0)"><circle cx="250.0" cy="601.0" r="72.0" fill="none" stroke="#3A2440" stroke-width="9.0"/><circle cx="330.0" cy="601.0" r="72.0" fill="none" stroke="#3A2440" stroke-width="9.0"/></g><path fill="none" stroke="#3A2440" stroke-width="4.69" stroke-linecap="butt" stroke-linejoin="miter" stroke-miterlimit="8" d="M 222.56 636.96 L 222.56 671.68 M 222.56 639.30 L 239.66 639.30 M 222.56 654.32 L 236.55 654.32"/><circle cx="263.27" cy="654.32" r="15.02" fill="none" stroke="#3A2440" stroke-width="4.69" stroke-linecap="butt" stroke-linejoin="miter" stroke-miterlimit="8"/><path fill="none" stroke="#3A2440" stroke-width="4.69" stroke-linecap="butt" stroke-linejoin="miter" stroke-miterlimit="8" d="M 289.22 671.68 L 289.22 636.96 L 302.85 665.43 L 316.47 636.96 L 316.47 671.68"/><circle cx="342.43" cy="654.32" r="15.02" fill="none" stroke="#3A2440" stroke-width="4.69" stroke-linecap="butt" stroke-linejoin="miter" stroke-miterlimit="8"/><text x="290.00" y="689.73" font-family="Liberation Sans, Arial, DejaVu Sans, sans-serif" font-size="11.11" font-weight="600" letter-spacing="7.78" text-anchor="middle" fill="#3A2440">MARKETING</text><text x="108" y="724" font-family="Liberation Sans, Arial, DejaVu Sans, sans-serif" font-size="13" font-weight="800" letter-spacing="1.5" fill="#3A2440">C4 TWIN</text><rect x="510" y="490" width="400" height="250" rx="22" fill="#E8E6DC" stroke="#0000000f" stroke-width="1.2" filter="url(#soft)"/><g transform="translate(710.0 544.0) scale(0.62) translate(-710.0 -601.0)"><path d="M 720.87 505.62 A 96.00 96.00 0 0 1 805.38 590.13" fill="none" stroke="#163B40" stroke-width="15.00" stroke-linecap="round"/><path d="M 805.38 611.87 A 96.00 96.00 0 0 1 720.87 696.38" fill="none" stroke="#163B40" stroke-width="15.00" stroke-linecap="round"/><path d="M 699.13 696.38 A 96.00 96.00 0 0 1 614.62 611.87" fill="none" stroke="#163B40" stroke-width="15.00" stroke-linecap="round"/><path d="M 614.62 590.13 A 96.00 96.00 0 0 1 699.13 505.62" fill="none" stroke="#163B40" stroke-width="15.00" stroke-linecap="round"/></g><path fill="none" stroke="#163B40" stroke-width="4.69" stroke-linecap="butt" stroke-linejoin="miter" stroke-miterlimit="8" d="M 642.56 636.96 L 642.56 671.68 M 642.56 639.30 L 659.66 639.30 M 642.56 654.32 L 656.55 654.32"/><circle cx="683.27" cy="654.32" r="15.02" fill="none" stroke="#163B40" stroke-width="4.69" stroke-linecap="butt" stroke-linejoin="miter" stroke-miterlimit="8"/><path fill="none" stroke="#163B40" stroke-width="4.69" stroke-linecap="butt" stroke-linejoin="miter" stroke-miterlimit="8" d="M 709.22 671.68 L 709.22 636.96 L 722.85 665.43 L 736.47 636.96 L 736.47 671.68"/><circle cx="762.43" cy="654.32" r="15.02" fill="none" stroke="#163B40" stroke-width="4.69" stroke-linecap="butt" stroke-linejoin="miter" stroke-miterlimit="8"/><text x="710.00" y="689.73" font-family="Liberation Sans, Arial, DejaVu Sans, sans-serif" font-size="11.11" font-weight="600" letter-spacing="7.78" text-anchor="middle" fill="#163B40">MARKETING</text><text x="528" y="724" font-family="Liberation Sans, Arial, DejaVu Sans, sans-serif" font-size="13" font-weight="800" letter-spacing="1.5" fill="#163B40">C5 QUARTETT</text><rect x="930" y="490" width="400" height="250" rx="22" fill="#F0E8D7" stroke="#0000000f" stroke-width="1.2" filter="url(#soft)"/><g transform="translate(1130.0 544.0) scale(0.62) translate(-1130.0 -601.0)"><circle cx="1130.0" cy="601.0" r="100.0" fill="none" stroke="#3B2A21" stroke-width="7.0"/><circle cx="1130.0" cy="601.0" r="68.0" fill="none" stroke="#3B2A21" stroke-width="4.0"/><circle cx="1130.0" cy="601.0" r="36.0" fill="none" stroke="#3B2A21" stroke-width="4.0"/><circle cx="1130.0" cy="601.0" r="7.0" fill="#3B2A21"/><line x1="1130.0" y1="601.0" x2="1191.6" y2="522.2" stroke="#3B2A21" stroke-width="5.0" stroke-linecap="round"/><circle cx="1191.6" cy="522.2" r="10.0" fill="#3B2A21"/></g><path fill="none" stroke="#3B2A21" stroke-width="4.69" stroke-linecap="butt" stroke-linejoin="miter" stroke-miterlimit="8" d="M 1062.56 636.96 L 1062.56 671.68 M 1062.56 639.30 L 1079.66 639.30 M 1062.56 654.32 L 1076.55 654.32"/><circle cx="1103.27" cy="654.32" r="15.02" fill="none" stroke="#3B2A21" stroke-width="4.69" stroke-linecap="butt" stroke-linejoin="miter" stroke-miterlimit="8"/><path fill="none" stroke="#3B2A21" stroke-width="4.69" stroke-linecap="butt" stroke-linejoin="miter" stroke-miterlimit="8" d="M 1129.22 671.68 L 1129.22 636.96 L 1142.85 665.43 L 1156.47 636.96 L 1156.47 671.68"/><circle cx="1182.43" cy="654.32" r="15.02" fill="none" stroke="#3B2A21" stroke-width="4.69" stroke-linecap="butt" stroke-linejoin="miter" stroke-miterlimit="8"/><text x="1130.00" y="689.73" font-family="Liberation Sans, Arial, DejaVu Sans, sans-serif" font-size="11.11" font-weight="600" letter-spacing="7.78" text-anchor="middle" fill="#3B2A21">MARKETING</text><text x="948" y="724" font-family="Liberation Sans, Arial, DejaVu Sans, sans-serif" font-size="13" font-weight="800" letter-spacing="1.5" fill="#3B2A21">C6 RADAR</text></svg>