<svg xmlns="http://www.w3.org/2000/svg" width="1400" height="990" viewBox="0 0 1400 990"><defs><filter id="soft" x="-20%" y="-20%" width="140%" height="140%"><feDropShadow dx="0" dy="6" stdDeviation="14" flood-color="#000" flood-opacity="0.12"/></filter></defs><rect width="1400" height="990" fill="#FBFAF7"/><text x="80" y="86" font-family="Liberation Sans, Arial, DejaVu Sans, sans-serif" font-size="20" font-weight="800" letter-spacing="4" fill="#6E2433">FOMO MARKETING</text><text x="80" y="112" font-family="Liberation Sans, Arial, DejaVu Sans, sans-serif" font-size="13" letter-spacing="3" fill="#999">UEBERSICHT &#183; BULLSEYE-RICHTUNG</text><line x1="80" y1="138" x2="1320" y2="138" stroke="#6E2433" stroke-width="2"/><rect x="90" y="180" width="400" height="250" rx="22" fill="#F0E8D8" stroke="#0000000f" stroke-width="1.2" filter="url(#soft)"/><g transform="translate(290.0 265.0) scale(0.5) translate(-290.0 -311.0)"><circle cx="290.0" cy="311.0" r="100.0" fill="none" stroke="#6E2433" stroke-width="9.0"/><circle cx="290.0" cy="311.0" r="62.0" fill="none" stroke="#6E2433" stroke-width="5.0"/><circle cx="290.0" cy="311.0" r="15.0" fill="#6E2433"/><circle cx="343.0" cy="226.2" r="10.0" fill="#6E2433"/></g><path fill="none" stroke="#6E2433" stroke-width="3.78" stroke-linecap="butt" stroke-linejoin="miter" stroke-miterlimit="8" d="M 235.61 340.00 L 235.61 368.00 M 235.61 341.89 L 249.40 341.89 M 235.61 354.00 L 246.89 354.00"/><circle cx="268.44" cy="354.00" r="12.11" fill="none" stroke="#6E2433" stroke-width="3.78" stroke-linecap="butt" stroke-linejoin="miter" stroke-miterlimit="8"/><path fill="none" stroke="#6E2433" stroke-width="3.78" stroke-linecap="butt" stroke-linejoin="miter" stroke-miterlimit="8" d="M 289.37 368.00 L 289.37 340.00 L 300.36 355.40 L 311.35 340.00 L 311.35 368.00"/><circle cx="332.28" cy="354.00" r="12.11" fill="none" stroke="#6E2433" stroke-width="3.78" stroke-linecap="butt" stroke-linejoin="miter" stroke-miterlimit="8"/><text x="290.00" y="382.56" font-family="Liberation Sans, Arial, DejaVu Sans, sans-serif" font-size="8.96" font-weight="600" letter-spacing="6.27" text-anchor="middle" fill="#6E2433">MARKETING</text><text x="108" y="414" font-family="Liberation Sans, Arial, DejaVu Sans, sans-serif" font-size="13" font-weight="800" letter-spacing="1.5" fill="#6E2433">C1 BULLSEYE</text><rect x="510" y="180" width="400" height="250" rx="22" fill="#ECE6DA" stroke="#0000000f" stroke-width="1.2" filter="url(#soft)"/><g transform="translate(710.0 265.0) scale(0.5) translate(-710.0 -311.0)"><circle cx="710.0" cy="311.0" r="90.0" fill="none" stroke="#1C2A44" stroke-width="8.0"/><circle cx="710.0" cy="311.0" r="9.0" fill="#1C2A44"/><line x1="710.0" y1="253.0" x2="710.0" y2="193.0" stroke="#1C2A44" stroke-width="6.0" stroke-linecap="round"/><line x1="768.0" y1="311.0" x2="828.0" y2="311.0" stroke="#1C2A44" stroke-width="6.0" stroke-linecap="round"/><line x1="710.0" y1="369.0" x2="710.0" y2="429.0" stroke="#1C2A44" stroke-width="6.0" stroke-linecap="round"/><line x1="652.0" y1="311.0" x2="592.0" y2="311.0" stroke="#1C2A44" stroke-width="6.0" stroke-linecap="round"/></g><path fill="none" stroke="#1C2A44" stroke-width="3.78" stroke-linecap="butt" stroke-linejoin="miter" stroke-miterlimit="8" d="M 655.61 340.00 L 655.61 368.00 M 655.61 341.89 L 669.40 341.89 M 655.61 354.00 L 666.89 354.00"/><circle cx="688.44" cy="354.00" r="12.11" fill="none" stroke="#1C2A44" stroke-width="3.78" stroke-linecap="butt" stroke-linejoin="miter" stroke-miterlimit="8"/><path fill="none" stroke="#1C2A44" stroke-width="3.78" stroke-linecap="butt" stroke-linejoin="miter" stroke-miterlimit="8" d="M 709.37 368.00 L 709.37 340.00 L 720.36 355.40 L 731.35 340.00 L 731.35 368.00"/><circle cx="752.28" cy="354.00" r="12.11" fill="none" stroke="#1C2A44" stroke-width="3.78" stroke-linecap="butt" stroke-linejoin="miter" stroke-miterlimit="8"/><text x="710.00" y="382.56" font-family="Liberation Sans, Arial, DejaVu Sans, sans-serif" font-size="8.96" font-weight="600" letter-spacing="6.27" text-anchor="middle" fill="#1C2A44">MARKETING</text><text x="528" y="414" font-family="Liberation Sans, Arial, DejaVu Sans, sans-serif" font-size="13" font-weight="800" letter-spacing="1.5" fill="#1C2A44">C2 CROSSHAIR</text><rect x="930" y="180" width="400" height="250" rx="22" fill="#EAE6D6" stroke="#0000000f" stroke-width="1.2" filter="url(#soft)"/><g transform="translate(1130.0 265.0) scale(0.5) translate(-1130.0 -311.0)"><path d="M 1191.57 232.20 A 100.00 100.00 0 1 1 1105.81 213.97" fill="none" stroke="#1F3D2F" stroke-width="11.00" stroke-linecap="round"/><circle cx="1225.1" cy="280.1" r="16.0" fill="#1F3D2F"/></g><path fill="none" stroke="#1F3D2F" stroke-width="3.78" stroke-linecap="butt" stroke-linejoin="miter" stroke-miterlimit="8" d="M 1075.61 340.00 L 1075.61 368.00 M 1075.61 341.89 L 1089.40 341.89 M 1075.61 354.00 L 1086.89 354.00"/><circle cx="1108.44" cy="354.00" r="12.11" fill="none" stroke="#1F3D2F" stroke-width="3.78" stroke-linecap="butt" stroke-linejoin="miter" stroke-miterlimit="8"/><path fill="none" stroke="#1F3D2F" stroke-width="3.78" stroke-linecap="butt" stroke-linejoin="miter" stroke-miterlimit="8" d="M 1129.37 368.00 L 1129.37 340.00 L 1140.36 355.40 L 1151.35 340.00 L 1151.35 368.00"/><circle cx="1172.28" cy="354.00" r="12.11" fill="none" stroke="#1F3D2F" stroke-width="3.78" stroke-linecap="butt" stroke-linejoin="miter" stroke-miterlimit="8"/><text x="1130.00" y="382.56" font-family="Liberation Sans, Arial, DejaVu Sans, sans-serif" font-size="8.96" font-weight="600" letter-spacing="6.27" text-anchor="middle" fill="#1F3D2F">MARKETING</text><text x="948" y="414" font-family="Liberation Sans, Arial, DejaVu Sans, sans-serif" font-size="13" font-weight="800" letter-spacing="1.5" fill="#1F3D2F">C3 ENTER</text><rect x="90" y="490" width="400" height="250" rx="22" fill="#ECE5DA" stroke="#0000000f" stroke-width="1.2" filter="url(#soft)"/><g transform="translate(290.0 575.0) scale(0.5) translate(-290.0 -621.0)"><circle cx="250.0" cy="621.0" r="72.0" fill="none" stroke="#3A2440" stroke-width="9.0"/><circle cx="330.0" cy="621.0" r="72.0" fill="none" stroke="#3A2440" stroke-width="9.0"/></g><path fill="none" stroke="#3A2440" stroke-width="3.78" stroke-linecap="butt" stroke-linejoin="miter" stroke-miterlimit="8" d="M 235.61 650.00 L 235.61 678.00 M 235.61 651.89 L 249.40 651.89 M 235.61 664.00 L 246.89 664.00"/><circle cx="268.44" cy="664.00" r="12.11" fill="none" stroke="#3A2440" stroke-width="3.78" stroke-linecap="butt" stroke-linejoin="miter" stroke-miterlimit="8"/><path fill="none" stroke="#3A2440" stroke-width="3.78" stroke-linecap="butt" stroke-linejoin="miter" stroke-miterlimit="8" d="M 289.37 678.00 L 289.37 650.00 L 300.36 665.40 L 311.35 650.00 L 311.35 678.00"/><circle cx="332.28" cy="664.00" r="12.11" fill="none" stroke="#3A2440" stroke-width="3.78" stroke-linecap="butt" stroke-linejoin="miter" stroke-miterlimit="8"/><text x="290.00" y="692.56" font-family="Liberation Sans, Arial, DejaVu Sans, sans-serif" font-size="8.96" font-weight="600" letter-spacing="6.27" text-anchor="middle" fill="#3A2440">MARKETING</text><text x="108" y="724" font-family="Liberation Sans, Arial, DejaVu Sans, sans-serif" font-size="13" font-weight="800" letter-spacing="1.5" fill="#3A2440">C4 TWIN</text><rect x="510" y="490" width="400" height="250" rx="22" fill="#E8E6DC" stroke="#0000000f" stroke-width="1.2" filter="url(#soft)"/><g transform="translate(710.0 575.0) scale(0.5) translate(-710.0 -621.0)"><path d="M 720.87 525.62 A 96.00 96.00 0 0 1 805.38 610.13" fill="none" stroke="#163B40" stroke-width="15.00" stroke-linecap="round"/><path d="M 805.38 631.87 A 96.00 96.00 0 0 1 720.87 716.38" fill="none" stroke="#163B40" stroke-width="15.00" stroke-linecap="round"/><path d="M 699.13 716.38 A 96.00 96.00 0 0 1 614.62 631.87" fill="none" stroke="#163B40" stroke-width="15.00" stroke-linecap="round"/><path d="M 614.62 610.13 A 96.00 96.00 0 0 1 699.13 525.62" fill="none" stroke="#163B40" stroke-width="15.00" stroke-linecap="round"/></g><path fill="none" stroke="#163B40" stroke-width="3.78" stroke-linecap="butt" stroke-linejoin="miter" stroke-miterlimit="8" d="M 655.61 650.00 L 655.61 678.00 M 655.61 651.89 L 669.40 651.89 M 655.61 664.00 L 666.89 664.00"/><circle cx="688.44" cy="664.00" r="12.11" fill="none" stroke="#163B40" stroke-width="3.78" stroke-linecap="butt" stroke-linejoin="miter" stroke-miterlimit="8"/><path fill="none" stroke="#163B40" stroke-width="3.78" stroke-linecap="butt" stroke-linejoin="miter" stroke-miterlimit="8" d="M 709.37 678.00 L 709.37 650.00 L 720.36 665.40 L 731.35 650.00 L 731.35 678.00"/><circle cx="752.28" cy="664.00" r="12.11" fill="none" stroke="#163B40" stroke-width="3.78" stroke-linecap="butt" stroke-linejoin="miter" stroke-miterlimit="8"/><text x="710.00" y="692.56" font-family="Liberation Sans, Arial, DejaVu Sans, sans-serif" font-size="8.96" font-weight="600" letter-spacing="6.27" text-anchor="middle" fill="#163B40">MARKETING</text><text x="528" y="724" font-family="Liberation Sans, Arial, DejaVu Sans, sans-serif" font-size="13" font-weight="800" letter-spacing="1.5" fill="#163B40">C5 QUARTETT</text><rect x="930" y="490" width="400" height="250" rx="22" fill="#F0E8D7" stroke="#0000000f" stroke-width="1.2" filter="url(#soft)"/><g transform="translate(1130.0 575.0) scale(0.5) translate(-1130.0 -621.0)"><circle cx="1130.0" cy="621.0" r="100.0" fill="none" stroke="#3B2A21" stroke-width="7.0"/><circle cx="1130.0" cy="621.0" r="68.0" fill="none" stroke="#3B2A21" stroke-width="4.0"/><circle cx="1130.0" cy="621.0" r="36.0" fill="none" stroke="#3B2A21" stroke-width="4.0"/><circle cx="1130.0" cy="621.0" r="7.0" fill="#3B2A21"/><line x1="1130.0" y1="621.0" x2="1191.6" y2="542.2" stroke="#3B2A21" stroke-width="5.0" stroke-linecap="round"/><circle cx="1191.6" cy="542.2" r="10.0" fill="#3B2A21"/></g><path fill="none" stroke="#3B2A21" stroke-width="3.78" stroke-linecap="butt" stroke-linejoin="miter" stroke-miterlimit="8" d="M 1075.61 650.00 L 1075.61 678.00 M 1075.61 651.89 L 1089.40 651.89 M 1075.61 664.00 L 1086.89 664.00"/><circle cx="1108.44" cy="664.00" r="12.11" fill="none" stroke="#3B2A21" stroke-width="3.78" stroke-linecap="butt" stroke-linejoin="miter" stroke-miterlimit="8"/><path fill="none" stroke="#3B2A21" stroke-width="3.78" stroke-linecap="butt" stroke-linejoin="miter" stroke-miterlimit="8" d="M 1129.37 678.00 L 1129.37 650.00 L 1140.36 665.40 L 1151.35 650.00 L 1151.35 678.00"/><circle cx="1172.28" cy="664.00" r="12.11" fill="none" stroke="#3B2A21" stroke-width="3.78" stroke-linecap="butt" stroke-linejoin="miter" stroke-miterlimit="8"/><text x="1130.00" y="692.56" font-family="Liberation Sans, Arial, DejaVu Sans, sans-serif" font-size="8.96" font-weight="600" letter-spacing="6.27" text-anchor="middle" fill="#3B2A21">MARKETING</text><text x="948" y="724" font-family="Liberation Sans, Arial, DejaVu Sans, sans-serif" font-size="13" font-weight="800" letter-spacing="1.5" fill="#3B2A21">C6 RADAR</text></svg>