<svg xmlns="http://www.w3.org/2000/svg" width="1400" height="990" viewBox="0 0 1400 990"><defs><filter id="soft" x="-20%" y="-20%" width="140%" height="140%"><feDropShadow dx="0" dy="6" stdDeviation="14" flood-color="#000" flood-opacity="0.12"/></filter></defs><rect width="1400" height="990" fill="#FBFAF7"/><text x="80" y="86" font-family="Liberation Sans, Arial, DejaVu Sans, sans-serif" font-size="20" font-weight="800" letter-spacing="4" fill="#14110C">FOMO MARKETING</text><text x="80" y="112" font-family="Liberation Sans, Arial, DejaVu Sans, sans-serif" font-size="13" letter-spacing="3" fill="#999">LOGO-KONZEPT V3 &#183; VERBUNDENE BUCHSTABEN</text><text x="1320" y="92" font-family="Liberation Sans, Arial, DejaVu Sans, sans-serif" font-size="44" font-weight="800" text-anchor="end" fill="#14110C">LIGATURE</text><text x="1320" y="116" font-family="Liberation Sans, Arial, DejaVu Sans, sans-serif" font-size="14" font-style="italic" text-anchor="end" fill="#888">Durchgehende Linie</text><line x1="80" y1="138" x2="1320" y2="138" stroke="#C9A24B" stroke-width="2"/><rect x="90" y="178" width="580" height="560" rx="22" fill="#F4F1EA" stroke="#0000000f" stroke-width="1.2" filter="url(#soft)"/><rect x="730" y="178" width="580" height="560" rx="22" fill="#14110C" filter="url(#soft)"/><path fill="none" stroke="#14110C" stroke-width="12.00" stroke-linecap="round" stroke-linejoin="round" stroke-miterlimit="8" d="M 177.20 374.00 L 177.20 494.00 M 177.20 380.00 L 238.40 380.00 M 177.20 434.00 L 227.65 434.00"/><path fill="none" stroke="#14110C" stroke-width="12.00" stroke-linecap="round" stroke-linejoin="round" stroke-miterlimit="8" d="M 364.40 494.00 L 364.40 374.00 L 413.60 446.00 L 462.80 374.00 L 462.80 494.00"/><line x1="236.4" y1="434.0" x2="240.4" y2="434.0" stroke="#14110C" stroke-width="12.0" stroke-linecap="round"/><line x1="356.4" y1="434.0" x2="360.4" y2="434.0" stroke="#14110C" stroke-width="12.0" stroke-linecap="round"/><line x1="466.8" y1="434.0" x2="470.8" y2="434.0" stroke="#14110C" stroke-width="12.0" stroke-linecap="round"/><circle cx="298.40" cy="434.00" r="54.00" fill="none" stroke="#C9A24B" stroke-width="12.00" stroke-linecap="round" stroke-linejoin="round" stroke-miterlimit="8"/><circle cx="528.80" cy="434.00" r="54.00" fill="none" stroke="#C9A24B" stroke-width="12.00" stroke-linecap="round" stroke-linejoin="round" stroke-miterlimit="8"/><text x="380.00" y="531.44" font-family="Liberation Sans, Arial, DejaVu Sans, sans-serif" font-size="18.00" font-weight="600" letter-spacing="11.16" text-anchor="middle" fill="#14110C">MARKETING</text><path fill="none" stroke="#EFE6D2" stroke-width="12.00" stroke-linecap="round" stroke-linejoin="round" stroke-miterlimit="8" d="M 817.20 374.00 L 817.20 494.00 M 817.20 380.00 L 878.40 380.00 M 817.20 434.00 L 867.65 434.00"/><path fill="none" stroke="#EFE6D2" stroke-width="12.00" stroke-linecap="round" stroke-linejoin="round" stroke-miterlimit="8" d="M 1004.40 494.00 L 1004.40 374.00 L 1053.60 446.00 L 1102.80 374.00 L 1102.80 494.00"/><line x1="876.4" y1="434.0" x2="880.4" y2="434.0" stroke="#EFE6D2" stroke-width="12.0" stroke-linecap="round"/><line x1="996.4" y1="434.0" x2="1000.4" y2="434.0" stroke="#EFE6D2" stroke-width="12.0" stroke-linecap="round"/><line x1="1106.8" y1="434.0" x2="1110.8" y2="434.0" stroke="#EFE6D2" stroke-width="12.0" stroke-linecap="round"/><circle cx="938.40" cy="434.00" r="54.00" fill="none" stroke="#C9A24B" stroke-width="12.00" stroke-linecap="round" stroke-linejoin="round" stroke-miterlimit="8"/><circle cx="1168.80" cy="434.00" r="54.00" fill="none" stroke="#C9A24B" stroke-width="12.00" stroke-linecap="round" stroke-linejoin="round" stroke-miterlimit="8"/><text x="1020.00" y="531.44" font-family="Liberation Sans, Arial, DejaVu Sans, sans-serif" font-size="18.00" font-weight="600" letter-spacing="11.16" text-anchor="middle" fill="#EFE6D2">MARKETING</text><text x="110" y="720" font-family="Liberation Sans, Arial, DejaVu Sans, sans-serif" font-size="12" letter-spacing="2" fill="#aaa">HELLER UNTERGRUND</text><text x="750" y="720" font-family="Liberation Sans, Arial, DejaVu Sans, sans-serif" font-size="12" letter-spacing="2" fill="#ffffff66">DUNKLER UNTERGRUND</text><text x="80" y="782" font-family="Liberation Sans, Arial, DejaVu Sans, sans-serif" font-size="15" fill="#333">Eine durchlaufende Mittellinie verbindet alle vier Buchstaben zu einer Ligatur – FOMO als ein</text><text x="80" y="804" font-family="Liberation Sans, Arial, DejaVu Sans, sans-serif" font-size="15" fill="#333">einziger, fliessender Schriftzug. Schwarz und Gold: reduziert, hochwertig, unverwechselbar.</text><rect x="812" y="768" width="34" height="34" rx="7" fill="#14110C" stroke="#00000022" stroke-width="1"/><text x="856" y="782" font-family="Liberation Sans, Arial, DejaVu Sans, sans-serif" font-size="13" font-weight="700" fill="#1a1a1a">PRIMAER</text><text x="856" y="798" font-family="Liberation Sans, Arial, DejaVu Sans, sans-serif" font-size="12" fill="#777">#14110C</text><rect x="940" y="768" width="34" height="34" rx="7" fill="#C9A24B" stroke="#00000022" stroke-width="1"/><text x="984" y="782" font-family="Liberation Sans, Arial, DejaVu Sans, sans-serif" font-size="13" font-weight="700" fill="#1a1a1a">AKZENT</text><text x="984" y="798" font-family="Liberation Sans, Arial, DejaVu Sans, sans-serif" font-size="12" fill="#777">#C9A24B</text><rect x="1068" y="768" width="34" height="34" rx="7" fill="#F4F1EA" stroke="#00000022" stroke-width="1"/><text x="1112" y="782" font-family="Liberation Sans, Arial, DejaVu Sans, sans-serif" font-size="13" font-weight="700" fill="#1a1a1a">HELL</text><text x="1112" y="798" font-family="Liberation Sans, Arial, DejaVu Sans, sans-serif" font-size="12" fill="#777">#F4F1EA</text><rect x="1196" y="768" width="34" height="34" rx="7" fill="#14110C" stroke="#00000022" stroke-width="1"/><text x="1240" y="782" font-family="Liberation Sans, Arial, DejaVu Sans, sans-serif" font-size="13" font-weight="700" fill="#1a1a1a">DUNKEL</text><text x="1240" y="798" font-family="Liberation Sans, Arial, DejaVu Sans, sans-serif" font-size="12" fill="#777">#14110C</text></svg>