<svg xmlns="http://www.w3.org/2000/svg" width="1400" height="990" viewBox="0 0 1400 990"><defs><filter id="soft" x="-20%" y="-20%" width="140%" height="140%"><feDropShadow dx="0" dy="6" stdDeviation="14" flood-color="#000" flood-opacity="0.12"/></filter></defs><rect width="1400" height="990" fill="#FBFAF7"/><text x="80" y="86" font-family="Liberation Sans, Arial, DejaVu Sans, sans-serif" font-size="20" font-weight="800" letter-spacing="4" fill="#0B1F3A">FOMO MARKETING</text><text x="80" y="112" font-family="Liberation Sans, Arial, DejaVu Sans, sans-serif" font-size="13" letter-spacing="3" fill="#999">LOGO-KONZEPT V5 &#183; VERBUNDENE BUCHSTABEN</text><text x="1320" y="92" font-family="Liberation Sans, Arial, DejaVu Sans, sans-serif" font-size="44" font-weight="800" text-anchor="end" fill="#0B1F3A">MONOGRAM</text><text x="1320" y="116" font-family="Liberation Sans, Arial, DejaVu Sans, sans-serif" font-size="14" font-style="italic" text-anchor="end" fill="#888">FO / MO – kompaktes Zeichen</text><line x1="80" y1="138" x2="1320" y2="138" stroke="#C9A24B" stroke-width="2"/><rect x="90" y="178" width="580" height="560" rx="22" fill="#F7F3EA" stroke="#0000000f" stroke-width="1.2" filter="url(#soft)"/><rect x="730" y="178" width="580" height="560" rx="22" fill="#0B1F3A" filter="url(#soft)"/><path fill="none" stroke="#0B1F3A" stroke-width="7.80" stroke-linecap="round" stroke-linejoin="round" stroke-miterlimit="8" d="M 311.36 329.30 L 311.36 407.30 M 311.36 333.20 L 351.14 333.20 M 311.36 368.30 L 344.15 368.30"/><circle cx="385.46" cy="368.30" r="35.10" fill="none" stroke="#C9A24B" stroke-width="7.80" stroke-linecap="round" stroke-linejoin="round" stroke-miterlimit="8"/><path fill="none" stroke="#0B1F3A" stroke-width="7.80" stroke-linecap="round" stroke-linejoin="round" stroke-miterlimit="8" d="M 311.36 474.38 L 311.36 396.38 L 343.34 443.18 L 375.32 396.38 L 375.32 474.38"/><circle cx="413.54" cy="435.38" r="35.10" fill="none" stroke="#C9A24B" stroke-width="7.80" stroke-linecap="round" stroke-linejoin="round" stroke-miterlimit="8"/><path fill="none" stroke="#0B1F3A" stroke-width="4.06" stroke-linecap="round" stroke-linejoin="round" stroke-miterlimit="8" d="M 317.54 525.08 L 317.54 565.64 M 317.54 527.11 L 338.22 527.11 M 317.54 545.36 L 334.59 545.36"/><path fill="none" stroke="#0B1F3A" stroke-width="4.06" stroke-linecap="round" stroke-linejoin="round" stroke-miterlimit="8" d="M 372.70 565.64 L 372.70 525.08 L 389.33 549.42 L 405.96 525.08 L 405.96 565.64"/><circle cx="354.45" cy="545.36" r="18.25" fill="none" stroke="#C9A24B" stroke-width="4.06" stroke-linecap="round" stroke-linejoin="round" stroke-miterlimit="8"/><circle cx="424.21" cy="545.36" r="18.25" fill="none" stroke="#C9A24B" stroke-width="4.06" stroke-linecap="round" stroke-linejoin="round" stroke-miterlimit="8"/><text x="380.00" y="582.68" font-family="Liberation Sans, Arial, DejaVu Sans, sans-serif" font-size="16.22" font-weight="600" letter-spacing="10.06" text-anchor="middle" fill="#0B1F3A">MARKETING</text><path fill="none" stroke="#F1E9D6" stroke-width="7.80" stroke-linecap="round" stroke-linejoin="round" stroke-miterlimit="8" d="M 951.36 329.30 L 951.36 407.30 M 951.36 333.20 L 991.14 333.20 M 951.36 368.30 L 984.15 368.30"/><circle cx="1025.46" cy="368.30" r="35.10" fill="none" stroke="#C9A24B" stroke-width="7.80" stroke-linecap="round" stroke-linejoin="round" stroke-miterlimit="8"/><path fill="none" stroke="#F1E9D6" stroke-width="7.80" stroke-linecap="round" stroke-linejoin="round" stroke-miterlimit="8" d="M 951.36 474.38 L 951.36 396.38 L 983.34 443.18 L 1015.32 396.38 L 1015.32 474.38"/><circle cx="1053.54" cy="435.38" r="35.10" fill="none" stroke="#C9A24B" stroke-width="7.80" stroke-linecap="round" stroke-linejoin="round" stroke-miterlimit="8"/><path fill="none" stroke="#F1E9D6" stroke-width="4.06" stroke-linecap="round" stroke-linejoin="round" stroke-miterlimit="8" d="M 957.54 525.08 L 957.54 565.64 M 957.54 527.11 L 978.22 527.11 M 957.54 545.36 L 974.59 545.36"/><path fill="none" stroke="#F1E9D6" stroke-width="4.06" stroke-linecap="round" stroke-linejoin="round" stroke-miterlimit="8" d="M 1012.70 565.64 L 1012.70 525.08 L 1029.33 549.42 L 1045.96 525.08 L 1045.96 565.64"/><circle cx="994.45" cy="545.36" r="18.25" fill="none" stroke="#C9A24B" stroke-width="4.06" stroke-linecap="round" stroke-linejoin="round" stroke-miterlimit="8"/><circle cx="1064.21" cy="545.36" r="18.25" fill="none" stroke="#C9A24B" stroke-width="4.06" stroke-linecap="round" stroke-linejoin="round" stroke-miterlimit="8"/><text x="1020.00" y="582.68" font-family="Liberation Sans, Arial, DejaVu Sans, sans-serif" font-size="16.22" font-weight="600" letter-spacing="10.06" text-anchor="middle" fill="#F1E9D6">MARKETING</text><text x="110" y="720" font-family="Liberation Sans, Arial, DejaVu Sans, sans-serif" font-size="12" letter-spacing="2" fill="#aaa">HELLER UNTERGRUND</text><text x="750" y="720" font-family="Liberation Sans, Arial, DejaVu Sans, sans-serif" font-size="12" letter-spacing="2" fill="#ffffff66">DUNKLER UNTERGRUND</text><text x="80" y="782" font-family="Liberation Sans, Arial, DejaVu Sans, sans-serif" font-size="15" fill="#333">Ein quadratisches Monogramm: FO oben, MO unten, ineinander verschraenkt. Gelesen im Z – F, O, M,</text><text x="80" y="804" font-family="Liberation Sans, Arial, DejaVu Sans, sans-serif" font-size="15" fill="#333">O – ergibt sich klar FOMO. Darunter sichert die Wortmarke die Bedeutung. Ideal als App-Icon.</text><rect x="812" y="768" width="34" height="34" rx="7" fill="#0B1F3A" stroke="#00000022" stroke-width="1"/><text x="856" y="782" font-family="Liberation Sans, Arial, DejaVu Sans, sans-serif" font-size="13" font-weight="700" fill="#1a1a1a">PRIMAER</text><text x="856" y="798" font-family="Liberation Sans, Arial, DejaVu Sans, sans-serif" font-size="12" fill="#777">#0B1F3A</text><rect x="940" y="768" width="34" height="34" rx="7" fill="#C9A24B" stroke="#00000022" stroke-width="1"/><text x="984" y="782" font-family="Liberation Sans, Arial, DejaVu Sans, sans-serif" font-size="13" font-weight="700" fill="#1a1a1a">AKZENT</text><text x="984" y="798" font-family="Liberation Sans, Arial, DejaVu Sans, sans-serif" font-size="12" fill="#777">#C9A24B</text><rect x="1068" y="768" width="34" height="34" rx="7" fill="#F7F3EA" stroke="#00000022" stroke-width="1"/><text x="1112" y="782" font-family="Liberation Sans, Arial, DejaVu Sans, sans-serif" font-size="13" font-weight="700" fill="#1a1a1a">HELL</text><text x="1112" y="798" font-family="Liberation Sans, Arial, DejaVu Sans, sans-serif" font-size="12" fill="#777">#F7F3EA</text><rect x="1196" y="768" width="34" height="34" rx="7" fill="#0B1F3A" stroke="#00000022" stroke-width="1"/><text x="1240" y="782" font-family="Liberation Sans, Arial, DejaVu Sans, sans-serif" font-size="13" font-weight="700" fill="#1a1a1a">DUNKEL</text><text x="1240" y="798" font-family="Liberation Sans, Arial, DejaVu Sans, sans-serif" font-size="12" fill="#777">#0B1F3A</text></svg>